<svg width="24" height="24" viewBox="0 0 24 24" xmlns="http://www.w3.org/2000/svg"><g fill="none" fill-rule="evenodd"><path d="M0 0h24v24H0z"/><path d="M17.586 12l-1.414-1.414a1 1 0 011.414-1.414L19 10.586l1.414-1.414a1 1 0 011.414 1.414L20.414 12l1.414 1.414a1 1 0 01-1.414 1.414L19 13.414l-1.414 1.414a1 1 0 01-1.414-1.414L17.586 12z" fill="#335EEA" opacity=".3"/><path d="M7 16l-3.392-.678A2 2 0 012 13.36v-2.72a2 2 0 011.608-1.962L7 8l3.293-3.293A1 1 0 0112 5.414v13.172a1 1 0 01-1.707.707L7 16z" fill="#335EEA"/></g></svg>