<svg width="24" height="24" viewBox="0 0 24 24" xmlns="http://www.w3.org/2000/svg"><g fill="none" fill-rule="evenodd"><path d="M0 0h24v24H0z"/><path d="M12 8H8a4 4 0 00-4 4v1a3 3 0 003 3v2a5 5 0 01-5-5v-1a6 6 0 016-6h4V4.728a.5.5 0 01.8-.4l2.856 2.133a.5.5 0 01-.001.802l-2.857 2.121A.5.5 0 0112 8.983V8z" fill="#335EEA"/><path d="M12.058 16H16a4 4 0 004-4v-1a3 3 0 00-3-3V6a5 5 0 015 5v1a6 6 0 01-6 6h-3.942v.983a.5.5 0 01-.798.401l-2.857-2.12a.5.5 0 010-.803l2.856-2.134a.5.5 0 01.8.401V16z" fill="#335EEA" opacity=".3"/></g></svg>