<svg width="24" height="24" viewBox="0 0 24 24" xmlns="http://www.w3.org/2000/svg"><g fill="none" fill-rule="evenodd"><path d="M0 0h24v24H0z"/><path d="M18 15v-1.523a.5.5 0 01.83-.375l2.935 2.576a.5.5 0 01-.001.752l-2.935 2.56a.5.5 0 01-.829-.376V17h-1.555a6 6 0 01-4.736-2.316l-3.997-5.14A4 4 0 004.555 8H2V6h2.555A6 6 0 019.29 8.316l3.997 5.14A4 4 0 0016.445 15H18z" fill="#335EEA" opacity=".3"/><path d="M18 6V4.477a.5.5 0 01.83-.375l2.935 2.576a.5.5 0 01-.001.752l-2.935 2.56A.5.5 0 0118 9.614V8h-1.555a4 4 0 00-3.157 1.544l-3.997 5.14A6 6 0 014.555 17H2v-2h2.555a4 4 0 003.157-1.544l3.997-5.14A6 6 0 0116.445 6H18z" fill="#335EEA"/></g></svg>