<svg width="24" height="24" viewBox="0 0 24 24" xmlns="http://www.w3.org/2000/svg"><g fill="none" fill-rule="evenodd"><path d="M0 0h24v24H0z"/><rect fill="#335EEA" opacity=".3" x="3" y="3" width="18" height="18" rx="1"/><path d="M11 11v2h2v-2h-2zm-1-2h4a1 1 0 011 1v4a1 1 0 01-1 1h-4a1 1 0 01-1-1v-4a1 1 0 011-1z" fill="#335EEA" opacity=".3"/><rect fill="#335EEA" opacity=".3" x="5" y="5" width="2" height="2" rx=".5"/><rect fill="#335EEA" opacity=".3" x="5" y="9" width="2" height="2" rx=".5"/><rect fill="#335EEA" opacity=".3" x="5" y="13" width="2" height="2" rx=".5"/><rect fill="#335EEA" opacity=".3" x="9" y="5" width="2" height="2" rx=".5"/><rect fill="#335EEA" opacity=".3" x="13" y="5" width="2" height="2" rx=".5"/><rect fill="#335EEA" opacity=".3" x="17" y="5" width="2" height="2" rx=".5"/><rect fill="#335EEA" opacity=".3" x="17" y="9" width="2" height="2" rx=".5"/><rect fill="#335EEA" opacity=".3" x="17" y="13" width="2" height="2" rx=".5"/><rect fill="#335EEA" opacity=".3" x="5" y="17" width="2" height="2" rx=".5"/><rect fill="#335EEA" opacity=".3" x="9" y="17" width="2" height="2" rx=".5"/><rect fill="#335EEA" opacity=".3" x="13" y="17" width="2" height="2" rx=".5"/><rect fill="#335EEA" opacity=".3" x="17" y="17" width="2" height="2" rx=".5"/></g></svg>