<svg width="24" height="24" viewBox="0 0 24 24" xmlns="http://www.w3.org/2000/svg"><g fill="none" fill-rule="evenodd"><path d="M0 0h24v24H0z"/><path d="M4 7h16a2 2 0 012 2v10a2 2 0 01-2 2H4a2 2 0 01-2-2V9a2 2 0 012-2zm12 11a4 4 0 100-8 4 4 0 000 8z" fill="#335EEA" opacity=".3"/><path d="M20.619 7.098A1.998 1.998 0 0020 7h-2.799L8.013 1.873A1 1 0 118.987.127l11.125 6.207a.999.999 0 01.507.764zM16 16a2 2 0 100-4 2 2 0 000 4z" fill="#335EEA"/><rect fill="#335EEA" opacity=".3" x="4" y="11" width="5" height="2" rx="1"/><rect fill="#335EEA" opacity=".3" x="4" y="15" width="5" height="2" rx="1"/></g></svg>