<svg width="24" height="24" viewBox="0 0 24 24" xmlns="http://www.w3.org/2000/svg"><g fill="none" fill-rule="evenodd"><path d="M0 0h24v24H0z"/><path d="M18.778 12.5A5.5 5.5 0 1111 4.722a5.5 5.5 0 017.778 7.778zm-2.475-2.475a2 2 0 10-2.828-2.828 2 2 0 002.828 2.828zm-.707-.707a1 1 0 10-1.414-1.414 1 1 0 001.414 1.414z" fill="#335EEA" opacity=".3"/><path d="M3.575 16.39l7.071-7.072a3 3 0 114.243 4.243l-7.071 7.07a3 3 0 01-4.243-4.243z" fill="#335EEA" opacity=".3"/><path d="M20.44 13.455c-3.316 2.332-7.581 2.318-10.147-.248s-2.58-6.831-.248-10.147L20.44 13.455z" fill="#335EEA"/></g></svg>