<svg width="24" height="24" viewBox="0 0 24 24" xmlns="http://www.w3.org/2000/svg"><g fill="none" fill-rule="evenodd"><path d="M0 0h24v24H0z"/><path d="M17 20v-8a5 5 0 00-10 0v8H5a2 2 0 01-2-2V6a2 2 0 012-2h14a2 2 0 012 2v12a2 2 0 01-2 2h-2z" fill="#335EEA" opacity=".3"/><path d="M12.972 11.7c-.162 1.62-.648 2.487-1.458 2.6 0 0 .729-2.842-.243-4.3 0 0-.103 1.562-1.144 3.436-.488.878-1.042 1.47-1.042 2.637 0 1.666 1.706 2.527 2.918 2.527 1.212 0 2.912-.583 2.912-2.623 0-.84-.648-2.265-1.943-4.276z" fill="#335EEA"/></g></svg>