<svg width="24" height="24" viewBox="0 0 24 24" xmlns="http://www.w3.org/2000/svg"><g fill="none" fill-rule="evenodd"><path d="M0 0h24v24H0z"/><path d="M3.957 8.415L11.48 3.82a1 1 0 011.042 0l7.522 4.596A2 2 0 0121 10.122V19a2 2 0 01-2 2H5a2 2 0 01-2-2v-8.878a2 2 0 01.957-1.707z" fill="#335EEA" opacity=".3"/><path d="M13.8 12c-.644 0-1.397.73-1.8 1.2-.403-.47-1.156-1.2-1.8-1.2-1.14 0-1.8.889-1.8 2.02 0 1.253 1.2 2.58 3.6 3.98 2.4-1.4 3.6-2.7 3.6-3.9 0-1.131-.66-2.1-1.8-2.1z" fill="#335EEA" opacity=".3"/></g></svg>