<svg viewBox="0 0 1000 1000" xmlns="http://www.w3.org/2000/svg"><defs><linearGradient x1="80.814%" y1="15.801%" x2="43.696%" y2="97.438%" id="a"><stop stop-color="#0052CC" offset="0%"/><stop stop-color="#2684FF" offset="92.3%"/></linearGradient></defs><g fill-rule="nonzero" fill="none"><path d="M196.328 303.036c-9.813-10.483-25.103-9.889-31.772 3.45L3.634 628.335A19.237 19.237 0 0020.84 656.18h224.106c7.336.17 14.082-4 17.21-10.637 48.323-99.913 19.046-251.825-65.828-342.507z" fill="url(#a)" transform="translate(171 171)"/><path d="M485.4 181.306c-90.005 142.604-84.067 300.54-24.782 419.114l108.061 216.123a19.237 19.237 0 0017.207 10.634h224.103a19.237 19.237 0 0017.206-27.844s-301.487-603.06-309.071-618.15c-6.781-13.507-24.005-13.69-32.723.123z" fill="#2681FF"/></g></svg>