<svg viewBox="0 0 370 132" fill="none" xmlns="http://www.w3.org/2000/svg"><path d="M41.613 131.892c-10.98-.439-19.962-3.457-26.986-9.063-1.34-1.071-4.534-4.282-5.606-5.637-2.848-3.598-4.784-7.1-6.076-10.985-3.974-11.96-1.929-27.656 5.85-44.88 6.662-14.747 16.94-29.373 34.87-49.63C46.308 8.718 54.174 0 54.225 0c.019 0-.41.746-.95 1.655-4.662 7.846-8.651 17.088-10.824 25.09-3.492 12.838-3.07 23.857 1.233 32.4 2.968 5.886 8.057 10.984 13.78 13.802 10.019 4.932 24.687 5.34 42.599 1.194 1.233-.287 62.345-16.587 135.804-36.222C309.325 18.284 369.438 2.23 369.447 2.242c.021.017-170.666 73.4-259.272 111.471-14.033 6.027-17.785 7.55-24.382 9.877-16.864 5.95-31.97 8.789-44.18 8.302z" fill="currentColor"/></svg>