<svg viewBox="0 0 501 60" fill="none" xmlns="http://www.w3.org/2000/svg"><path d="M414.353 0h-41.96l-21.5 59.436h41.96L414.353 0zM406.723 27.725l24.794 31.71h48.376l-27.742-31.363L500.353 0H451.11l-44.387 27.725zM359.04 11.437L363.201 0H255.873l-14.738 40.895c-.867 2.599-1.04 5.544.867 7.797.694.693 5.375 6.238 6.416 7.278 1.733 1.906 3.814 3.466 7.282 3.466h86.001l4.161-11.264h-60.166c-3.641 0-5.375-2.772-4.508-5.545l2.774-7.45h66.582l4.161-11.437h-66.581l4.508-12.303h66.408zM235.761 0H128.953l-21.5 59.436h40.92l17.339-48h30.516c3.295 0 4.509 2.427 3.815 4.68-.694 2.425-1.734 5.37-2.601 7.104-1.04 2.426-3.468 4.332-7.109 4.332h-28.609l24.795 31.71h46.988l-21.153-23.74h12.657c5.895 0 9.363-3.118 10.924-7.104 1.734-4.505 5.721-15.422 6.935-19.06C245.124 3.637 241.656 0 235.761 0zM121.497 0H4.98L.818 11.437h40.227l-17.34 47.999H63.24l17.339-48h36.931L121.497 0z" fill="currentColor"/></svg>