<svg width="24" height="24" viewBox="0 0 24 24" xmlns="http://www.w3.org/2000/svg"><g fill="none" fill-rule="evenodd"><path d="M0 0h24v24H0z"/><path d="M5.857 2h7.88a1.5 1.5 0 01.968.355l4.764 4.029A1.5 1.5 0 0120 7.529v12.554c0 1.79-.02 1.917-1.857 1.917H5.857C4.02 22 4 21.874 4 20.083V3.917C4 2.127 4.02 2 5.857 2z" fill="#335EEA" opacity=".3"/><path d="M10.586 13l-1.414-1.414a1 1 0 111.414-1.414L12 11.586l1.414-1.414a1 1 0 111.414 1.414L13.414 13l1.414 1.414a1 1 0 11-1.414 1.414L12 14.414l-1.414 1.414a1 1 0 11-1.414-1.414L10.586 13z" fill="#335EEA"/></g></svg>