<svg width="24" height="24" viewBox="0 0 24 24" xmlns="http://www.w3.org/2000/svg"><g fill="none" fill-rule="evenodd"><path d="M0 0h24v24H0z"/><path d="M5.857 2h7.88a1.5 1.5 0 01.968.355l4.764 4.029A1.5 1.5 0 0120 7.529v12.554c0 1.79-.02 1.917-1.857 1.917H5.857C4.02 22 4 21.874 4 20.083V3.917C4 2.127 4.02 2 5.857 2z" fill="#335EEA" opacity=".3"/><path d="M10.927 9.855v1.956H8.92a.5.5 0 00-.5.5v1.024a.5.5 0 00.5.5h2.008v1.956a.5.5 0 00.823.382l3.506-2.968a.5.5 0 000-.764L11.75 9.473a.5.5 0 00-.823.382z" fill="#335EEA"/></g></svg>