<svg width="24" height="24" viewBox="0 0 24 24" xmlns="http://www.w3.org/2000/svg"><g fill="none" fill-rule="evenodd"><path d="M0 0h24v24H0z"/><path d="M2.56 10.682l2.122-2.121a1.5 1.5 0 012.121 0l2.122 2.121a1.5 1.5 0 010 2.121l-2.122 2.122a1.5 1.5 0 01-2.121 0l-2.121-2.122a1.5 1.5 0 010-2.121zm12 0l2.122-2.121a1.5 1.5 0 012.121 0l2.122 2.121a1.5 1.5 0 010 2.121l-2.122 2.122a1.5 1.5 0 01-2.121 0l-2.121-2.122a1.5 1.5 0 010-2.121z" fill="#335EEA" opacity=".3"/><path d="M8.56 16.682l2.122-2.121a1.5 1.5 0 012.121 0l2.122 2.121a1.5 1.5 0 010 2.121l-2.122 2.122a1.5 1.5 0 01-2.121 0l-2.121-2.122a1.5 1.5 0 010-2.121zm0-12l2.122-2.121a1.5 1.5 0 012.121 0l2.122 2.121a1.5 1.5 0 010 2.121l-2.122 2.122a1.5 1.5 0 01-2.121 0L8.561 6.803a1.5 1.5 0 010-2.121z" fill="#335EEA"/></g></svg>