<svg width="24" height="24" viewBox="0 0 24 24" xmlns="http://www.w3.org/2000/svg"><g fill="none" fill-rule="evenodd"><path d="M0 0h24v24H0z"/><path d="M7.39 2.835A10.466 10.466 0 0111.5 2C17.299 2 22 6.701 22 12.5S17.299 23 11.5 23 1 18.299 1 12.5c0-.985.136-1.938.39-2.842l1.925.54A8.509 8.509 0 003 12.5 8.5 8.5 0 1011.5 4c-.951 0-1.878.156-2.751.454l1.19 1.42a.5.5 0 01-.354.82l-4.867.276a.5.5 0 01-.515-.615l1.129-4.731a.5.5 0 01.869-.206L7.39 2.835z" fill="#335EEA" opacity=".3"/><path d="M14.5 11a1 1 0 011 1v3a1 1 0 01-1 1h-5a1 1 0 01-1-1v-3a1 1 0 011-1v-.5a2.5 2.5 0 115 0v.5zM12 9a1.5 1.5 0 00-1.5 1.5v.5h3v-.5A1.5 1.5 0 0012 9z" fill="#335EEA"/></g></svg>