<svg width="24" height="24" viewBox="0 0 24 24" xmlns="http://www.w3.org/2000/svg"><g fill="none" fill-rule="evenodd"><path d="M0 0h24v24H0z"/><path d="M8 7a1 1 0 110-2h8a4 4 0 110 8H8a2 2 0 100 4h9a1 1 0 010 2H8a4 4 0 110-8h8a2 2 0 100-4H8z" fill="#335EEA" opacity=".3"/><path d="M9.707 8.293a1 1 0 01-1.414 1.414l-3-3a1 1 0 010-1.414l3-3a1 1 0 011.414 1.414L7.414 6l2.293 2.293zM14.293 20.293a1 1 0 001.414 1.414l3-3a1 1 0 000-1.414l-3-3a1 1 0 00-1.414 1.414L16.586 18l-2.293 2.293z" fill="#335EEA"/></g></svg>