<svg width="24" height="24" viewBox="0 0 24 24" xmlns="http://www.w3.org/2000/svg"><g fill="none" fill-rule="evenodd"><path d="M0 0h24v24H0z"/><path d="M16 15.632V12a3 3 0 00-3-3H6.162V5.526A2.526 2.526 0 018.688 3h11.79a2.526 2.526 0 012.526 2.526v7.58l.017 4.68a.5.5 0 01-.854.356l-2.51-2.51H16z" fill="#335EEA"/><path d="M1.985 18v-5a2 2 0 012-2h8a2 2 0 012 2v5a2 2 0 01-2 2H4.101l-1.244 1.19a.5.5 0 01-.846-.36v-2.506A2.014 2.014 0 011.985 18zM6.5 14a.5.5 0 100 1h5a.5.5 0 100-1h-5zm3 2a.5.5 0 100 1h2a.5.5 0 100-1h-2z" fill="#335EEA" opacity=".3"/></g></svg>