<svg width="24" height="24" viewBox="0 0 24 24" xmlns="http://www.w3.org/2000/svg"><g fill="none" fill-rule="evenodd"><path d="M0 0h24v24H0z"/><path d="M8.296 4.138l-7.14 6.477a.75.75 0 00-.006 1.106l7.14 6.612a.75.75 0 001.26-.55V4.693a.75.75 0 00-1.254-.555z" fill="#335EEA" opacity=".3"/><path d="M23.295 17.791c0-.82.176-4.058-2.378-6.626C19.198 9.437 16.627 9.137 13.55 9V4.693a.75.75 0 00-1.254-.555l-7.14 6.477a.75.75 0 00-.006 1.106l7.14 6.612a.75.75 0 001.26-.55V13.5c1.953.054 3.344.178 4.608.58 1.82.58 3.227 2.222 4.22 4.928a.75.75 0 00.704.492h.218c0-.493-.005-1.274-.005-1.709z" fill="#335EEA"/></g></svg>