<svg viewBox="0 0 1000 1000" xmlns="http://www.w3.org/2000/svg"><g transform="translate(98.995 83)" fill-rule="nonzero" fill="none"><path d="M779.595 452.504L452.486 779.62c-29.84 29.841-78.247 29.841-108.088 0-29.874-29.842-29.841-78.249 0-108.09L671.539 344.38c29.842-29.841 78.248-29.841 108.089 0 29.841 29.875 29.841 78.249-.033 108.123z" fill="#FBBC04"/><circle fill="#34A853" transform="rotate(-45 398.417 725.66)" cx="398.417" cy="725.66" r="76.424"/><path d="M510.56 183.402L347.005 346.929 455.072 455l163.556-163.528c29.836-29.836 29.836-78.234 0-108.07-29.868-29.87-78.232-29.87-108.068 0z" fill="#FBBC04"/><path d="M291.463 618.62l163.542-163.54L346.925 347 183.384 510.541c-29.839 29.839-29.839 78.241 0 108.08s78.24 29.839 108.08 0z" fill="#3B80EF"/><circle fill="#34A853" transform="rotate(-45 401.254 400.682)" cx="401.254" cy="400.682" r="76.424"/><path d="M457.623 130.472L130.476 457.619c-29.841 29.841-78.248 29.841-108.09 0-29.842-29.842-29.842-78.249 0-108.09L349.533 22.38c29.842-29.841 78.249-29.841 108.09 0 29.842 29.842 29.842 78.249 0 108.09z" fill="#3B80EF"/><circle fill="#34A853" cx="403.505" cy="76.5" r="76.5"/></g></svg>