<svg viewBox="0 0 1000 1000" xmlns="http://www.w3.org/2000/svg"><g fill-rule="nonzero" fill="none"><path d="M828.449 821.266c-2.54 2.542-5.717 3.813-9.528 3.813-3.81 0-6.986-1.27-9.527-3.813-2.54-2.541-3.81-5.719-3.81-9.532 0-3.813 1.27-7.308 4.128-9.85 2.54-2.542 5.716-3.495 9.21-3.495 3.81 0 6.986 1.271 9.527 3.813 2.54 2.542 3.81 5.72 3.81 9.532.318 3.813-.952 6.99-3.81 9.532m-17.15-17.475c-2.222 2.224-3.175 4.766-3.175 7.625 0 3.178.953 5.72 3.176 7.944 2.223 2.224 4.763 3.177 7.939 3.177s5.716-.953 7.94-3.177c2.222-2.224 3.175-4.766 3.175-7.944 0-2.86-.953-5.719-3.176-7.625-2.223-2.225-4.763-3.496-7.939-3.496-3.176.318-5.716 1.271-7.94 3.496m12.068 14.616c-1.27.953-2.54 1.27-3.81 1.27-1.906 0-3.811-.635-5.4-2.223-1.587-1.59-2.222-3.496-2.222-5.72 0-2.224.635-4.13 1.905-5.72 1.27-1.588 3.176-2.223 5.399-2.223 1.27 0 2.54.317 3.81.953 1.589.953 2.86 2.542 3.177 5.084h-3.494c-.317-.953-.635-1.907-1.27-2.224-.635-.318-1.27-.636-1.905-.636-.953 0-1.906.318-2.541 1.271-.635.953-.953 2.224-.953 3.813s.318 2.86.953 3.495c.635.636 1.588 1.271 2.54 1.271.953 0 1.588-.318 2.224-.635l.952-1.907h3.176c-.317 1.907-1.27 3.178-2.54 4.13M857.03 677.33c0-1.271-.318-2.542-.318-3.813 0-.953-.318-1.589-.318-2.224-.317-1.907-.635-3.495-1.27-5.402-1.27-3.495-3.176-6.99-5.716-9.85-2.54-2.86-5.4-5.084-8.257-6.672-3.176-1.59-6.352-2.542-8.892-3.178-.953 0-1.588-.318-2.223-.318 3.493-15.251-.953-27.008-3.811-32.41l.635-.635c3.81-3.813 6.987-7.308 9.845-10.803l.635-.636c2.223-3.177 3.493-6.354 4.446-9.214.635-2.542 1.27-4.766 1.27-6.99v-6.037c-.317-4.767-.953-10.804-4.128-17.476-1.588-3.178-3.811-6.673-6.67-9.85a38.938 38.938 0 00-10.48-8.262c-.317-.317-.635-.317-.952-.635-8.575-12.392-18.102-22.242-26.676-29.55a192.77 192.77 0 00-12.068-9.533c-3.494-2.542-6.352-4.448-7.94-5.719-3.81-2.86-6.669-4.448-7.94-5.084-3.175-1.906-5.398-3.495-6.668-4.448-.953-.953-1.588-1.271-1.906-1.589 0 0 0-.318-.317-.953-.318-.953-.318-2.224-.318-4.449 0-3.177 0-7.943.318-14.298.635-10.168 1.588-23.83 2.858-42.578.317-6.037.317-11.756.317-16.84-.317-8.579-1.587-16.205-3.175-23.195-.318-1.589-.953-3.178-1.27-4.766-.318-1.271-.636-1.907-.953-2.542-.318-.953-.636-1.907-1.27-3.178-.318-.635-.318-1.27-.953-1.906-.636-1.589-1.27-3.178-2.223-4.766l-.318-.318-.318-.953-.317-.636c-1.588-2.86-3.493-5.401-5.399-7.626-.953-4.448-2.54-10.803-5.399-18.11-2.54-6.356-5.716-13.346-10.48-20.336-1.588-2.542-3.493-4.767-5.399-6.99l.636-.636c.952-.953 23.183-24.466 40.967-54.97 32.71-56.876 21.913-91.51 6.987-110.574l-.318-.636-.318-.635c-14.29-15.887-33.98-25.42-57.798-28.597-49.86-6.355-106.388 18.429-121.314 25.42l-27.312-29.868c-2.54-2.542-5.081-5.084-7.94-6.99-2.858-1.907-6.033-3.814-9.21-5.402-6.35-2.86-13.337-4.767-20.96-5.72-14.925-1.906-32.074 0-50.494 4.766-27.629 6.99-58.434 20.971-90.826 40.354-32.393 19.382-66.056 44.484-98.767 74.352-40.014 36.222-73.042 74.67-97.178 111.527-12.068 18.112-21.913 35.905-29.217 53.063-7.304 16.84-12.068 33.046-13.973 47.662-1.27 10.803-1.27 20.97.953 30.185.952 4.13 2.223 7.944 4.128 11.757 2.223 4.766 5.081 9.214 8.575 13.027l28.264 29.55 3.176 3.178-.318.317-.953 1.907c-.635.953-.952 1.906-1.588 2.542l-.952 1.906c-.318.954-.953 1.907-1.27 2.86l-.953 1.906c-.318.954-.953 1.907-1.27 2.86-.318.636-.636 1.271-.636 1.907l-.953 2.86c-.317.635-.317 1.27-.635 1.906-.317.953-.635 1.906-.952 3.177 0 .318-.318.636-.318.953 0 .318-.318.636-.318.954-.317.953-.635 2.224-.952 3.177 0 .636-.318 1.271-.318 1.907 0 .317-.317.953-.317 1.27 0 .636-.318 1.271-.318 1.907 0 .635-.318 1.27-.318 1.906-.317 1.271-.317 2.542-.635 4.131 0 .318 0 .636-.317 1.271v.318c0 .953-.318 1.906-.318 2.542 0 1.27-.317 2.86-.317 4.13v15.888c0 .635 0 1.27.317 1.906 0 .635 0 1.589.318 2.542v.953c0 .636.317 1.589.317 2.224 0 .636.318 1.271.318 2.225 0 .317 0 .635.317.953 0 .318.318.953.318 1.27v.636c0 .636.318 1.271.635 2.542 0 .318 0 .318.318.636.317.635.317 1.27.317 1.588l.318.636c0 .318 0 .318.317.635l.318.636v.953c0 .318 0 .318.318.636l.317.635c0 .636.318.953.318 1.589.317.635.317 1.27.635 2.542v-.318.318c0 .317 0 .317.317.635.318.953.636 1.589.636 1.907.317.635.635 1.27.952 2.542l.318.317c.318.636.318 1.271.635 1.589l.318.636c0 .317.317.635.317.953 0 .317.318.953.635 1.27l.318.636c.318.318.318.953.635 1.271.318.318.318.636.318.953.317.636.635 1.271.952 2.225l.318.317c.318.318.318.636.635.954.318.317.318.953.635 1.27.318.318.635.954.953 1.907l.318.318c.317.317.317.635.635.953.317.635.635.953.635 1.27.317.319.635.954.953 1.59v.317c.317.318.317.636.635.954.317.635.635.953.953 1.27.317.318.635.954 1.27 1.907.317.318.635.636.635.953.318.636.635.954.953 1.271.317.318.635.953.952 1.589.318.318.636.953.953 1.27.318.636.635.954 1.27 1.272l.953.953.318.318c.635.635.952 1.27 1.588 1.906l.635.636.953.953 1.905 1.906.635.636.953.953.317.318c.636.635 1.588 1.27 2.223 2.224l.318.318c.318.318.635.318.953.953.952.953 1.905 1.589 2.858 2.542l.635.318.318.318.635.317c.953.636 1.588 1.271 2.54 1.907l.318.317c.318.318.635.318.635.318l.635.636c.635.635 1.27.953 1.906 1.588l.635.318.635.636.318.317c.635.318 1.588.954 2.223 1.271.317.318.635.636 1.27.636l.635.318.318.317h.317c1.27.636 2.223 1.271 3.176 1.907l.635.318 3.811 1.906h.318l.635.318 1.905.953c.318 0 .635.318.953.318.318.317.635.317 1.27.635h.318c.635.318 1.27.636 1.905.636h.318c.635.317 1.27.635 2.223.953h.318l.635.318c.317 0 .635.317.952.317h.318c.953.318 1.905.636 3.176.954h.317c1.588.635 3.176.953 4.764 1.27h.318c1.27.318 2.858.636 4.128.954h1.27c1.27.318 2.541.635 3.811.635h1.27c.953 0 1.588.318 2.541.318 0 .318.318.636.318.953 2.223 6.037 4.446 12.075 6.986 17.794 37.474 103.902 141.322 184.608 259.778 199.542 118.455 14.617 245.168-64.184 296.616-170.628a213.825 213.825 0 006.034-12.074c5.08-5.401 9.21-10.803 11.75-16.522 4.128-3.496 5.081-10.486 4.764-16.523m-657.7-41.307h.317-.317" fill="#664F44"/><path d="M756.514 157.596c-5.72-6.369-12.392-11.145-19.7-14.648-1.271-.637-2.542-.955-4.13-1.274-.636-.318-1.272-.955-1.907-1.274-6.355-2.547-13.028-4.14-20.018-5.094-34.316-4.459-73.716 8.279-95.958 17.195-1.271.637-2.542.955-3.813 1.592-1.907.955-3.813 1.592-5.72 2.547-3.177 1.274-6.354 2.866-9.85 4.459-.635.318-.953.318-1.588.636l-6.037-7.005-2.86-3.184-2.542-2.866-.953-1.274-23.195-26.748-1.907-2.23-2.542-2.865h-.318l-6.672 1.592-7.626 1.592c-4.13-1.91-9.214-3.184-14.934-4.14-11.439-1.592-26.055 0-42.577 4.14-16.523 4.14-35.27 11.464-54.97 21.335-39.717 19.743-83.566 49.994-126.143 88.843-14.934 13.374-28.597 27.385-41.307 41.077-12.392 13.375-23.513 27.067-33.68 40.123-20.654 27.067-36.223 53.178-46.39 76.742-6.673 15.603-10.804 29.933-12.393 42.352-1.27 8.916-.953 16.877.636 23.245.635 2.23 1.27 3.821 1.906 5.732 1.589 3.821 3.495 7.005 6.037 9.871l25.737 27.067 2.86 2.866.318-.318a9.681 9.681 0 012.542-2.548l.318-.318.953-.956c.635-.955 1.588-1.592 2.224-2.547.635-.637.953-.955 1.589-1.274.635-.318.953-.955 1.588-1.274l.636-.636c.635-.319.953-.956 1.589-1.274.635-.637 1.588-1.274 2.224-1.91.317-.32.953-.638 1.27-.956h.318c.954-.637 1.59-1.274 2.542-1.91.636-.32.954-.637 1.59-1.274.952-.637 1.588-1.274 2.541-1.91.636-.32.953-.638 1.589-.956.953-.637 1.906-1.274 2.86-1.592.635-.319.953-.637 1.588-.956.953-.637 1.907-.955 2.86-1.592.635-.318.953-.637 1.589-.955l.635-.319c.953-.318 1.589-.955 2.542-1.273.318-.319.953-.319 1.27-.637.636-.319 1.272-.637 2.225-.955l1.907-.956.635-.318 4.766-1.91c.636-.32.953-.32 1.589-.638.635-.318.953-.318 1.589-.637l.635-.318c.318 0 .636-.318.953-.318.636-.319 1.271-.319 2.225-.637h.635c.953-.319 1.589-.319 2.542-.637.635-.319 1.589-.319 2.224-.637.953-.318 1.907-.318 2.86-.637.318 0 .635-.318 1.27-.318.319 0 .954 0 1.272-.319.953-.318 1.906-.318 2.86-.318.953 0 1.588-.319 2.541-.319.636 0 1.271-.318 1.907-.318h2.542c3.177 0 6.99 0 10.803.318h.635c3.813.319 8.262.956 12.71 1.911.953.318 2.224.318 3.178.637.317-.319.317-.955.635-1.274 2.542-4.14 4.766-8.598 7.308-12.737 14.299-23.883 29.55-44.9 45.12-63.368 5.401-6.369 10.803-12.1 16.204-17.832a421.464 421.464 0 0165.455-55.726c4.449-3.184 9.215-6.05 13.345-8.916 6.038-3.821 11.757-7.006 17.159-10.19 4.448-2.547 8.579-4.777 12.71-6.687 6.672-3.503 12.709-6.369 18.11-8.598l4.767-1.91c2.224-.956 4.448-1.911 6.354-2.548-1.588-.318-3.495-.318-5.083-.318h-6.355c-1.589 0-3.495 0-5.084.318-3.178.319-6.673.637-10.168.955-1.27.319-2.224.319-3.495.637 8.579-4.458 17.158-7.642 25.102-10.19a163.363 163.363 0 0115.887-3.82c6.99-1.274 13.663-2.23 19.7-2.548 4.13-.319 7.943-.319 11.438-.319 3.496 0 6.99.319 9.85.319 10.486.637 16.84 2.229 16.84 2.229-1.588-2.23-3.494-3.821-5.4-5.413-3.814-2.866-7.944-4.777-11.757-6.37-1.589-.636-2.86-.954-4.13-1.591-.954-.319-1.907-.637-2.543-.637 1.907-.319 3.495-.637 5.084-.637 1.906-.318 3.495-.318 5.402-.637 14.934-1.274 28.279 0 38.129 1.592 11.756 2.23 19.064 5.095 19.064 5.095-1.588-3.184-4.13-6.05-6.99-8.597-1.907-1.593-4.13-3.185-6.037-4.459 4.13.956 7.626 1.911 11.439 3.185 9.532 2.866 17.475 6.368 23.83 9.234l5.72 2.866c.635.319.953.637 1.27.637 5.72 3.184 8.897 5.413 8.897 5.413-.953-3.502-2.86-6.687-5.401-9.553-.636-.636-1.271-1.592-1.907-2.229h.318c.318 0 .635.319 1.27.319.319 0 .954.318 1.59.637 2.542.955 6.354 2.547 10.803 4.776.318 0 .318.319.635.319l1.907.955c1.589.955 3.177 1.592 4.766 2.866l4.766 2.866c.953.637 1.589.955 2.542 1.592 1.589 1.274 3.495 2.547 5.084 4.14 1.906 1.592 3.495 3.184 5.084 4.776l.953.955c1.271 1.274 2.542 2.548 3.495 3.821 2.224 2.548 4.13 5.414 6.037 8.28 2.224 3.502 3.813 7.642 5.402 11.782 0 .318 0 .637.318.637.953-.956 2.86-2.866 5.083-5.414 18.43-21.653 73.717-91.708 40.354-134.378" fill="#132134"/><path d="M838.03 680.275s.636-4.764-1.905-9.211c0-.318-.317-.635-.317-.635l-.318-.318-.952-.953c-.635-.635-1.27-1.27-2.223-1.905-.317-.318-.953-.636-1.588-.953-1.587-.635-3.175-1.27-5.398-1.588-1.587-.318-3.175-.318-5.08-.318h-2.54v.635c0 .318.317.636.317 1.27 0 .318 0 .636.317.636.318.953.635 2.54.953 3.811 0 0 0 .318-.318.953v.318c-.952 2.223-3.492 7.305-9.208 13.657-.953 1.27-1.905 2.224-3.176 3.494-15.876 16.516-50.17 39.702-122.57 52.724-24.45 3.494-47.312 3.811-66.365 1.27-28.578-3.493-49.853-12.704-60.014-25.091-.953-.953-1.588-2.223-2.54-3.176-.636-.953-.953-1.588-1.588-2.541-.318-.318-.318-.635-.635-.953a50.08 50.08 0 01-6.033-23.821c0-9.846 3.175-19.057 8.256-26.044 4.128-5.718 9.526-10.164 16.194-12.07 3.175-.953 6.668-1.588 10.161-1.27.635 0 1.588 0 2.858.317 2.223.318 5.716.636 9.844 1.27.317 0 .952 0 1.27.318 13.654 1.589 35.247 3.812 61.285 2.224 47.63-2.859 110.185-17.787 167.025-69.24v-.318c.317-4.446-.318-12.07-5.716-18.104-.953-.953-1.905-1.905-3.176-2.858-.635-.636-1.587-.953-2.222-1.588-.953-.318-1.588-.953-2.223-1.27l-2.858-1.906v-.318c-.317-.635-.635-1.27-1.27-1.906-14.607-22.233-34.93-35.255-43.185-41.29-3.81-2.858-6.351-4.129-6.351-4.129-17.465-10.798-20.005-14.292-18.417-43.195.635-10.481 1.588-24.139 2.858-42.878 0-2.54.317-4.764.317-6.988v-9.21c0-1.588-.317-3.176-.317-4.447 0-.635 0-1.27-.318-1.906-.317-1.588-.317-3.176-.635-4.764 0-.635-.317-1.588-.317-2.223 0-.953-.318-1.588-.636-2.541-.317-.635-.317-1.588-.635-2.223-.317-.953-.635-1.906-.635-2.859 0-.317-.317-.635-.317-.953 0-.317-.318-.635-.318-.953v-.317l-.317-.953c-.318-.635-.635-1.27-.635-1.906v-.317l-.318-.636-.317-.635c-.636-1.27-.953-2.54-1.588-3.494l-.318-.952c-.635-.953-1.27-2.224-1.905-3.177l-.317-.317-.318-.318c-.635-.635-.953-1.27-1.588-1.905l-.635-.953c-.635-.953-1.27-1.588-1.905-2.224v-2.54c-.318-1.27-.635-2.859-.953-4.447 0-.318-.317-.953-.317-1.27v-.318c0-.635-.318-.953-.318-1.588-.317-1.27-.635-2.541-1.27-3.812 0-.317-.317-.952-.317-1.27l-.953-2.859c-.318-.635-.318-1.27-.635-1.588-.318-.952-.635-1.905-1.27-2.858l-.953-1.906c-.317-.953-.952-1.906-1.27-2.858l-.953-1.906c-.635-.953-.952-1.906-1.587-2.859l-.953-1.905c-.635-.953-1.27-1.906-1.905-3.176-.318-.636-.635-.953-.953-1.588-.317-.318-.635-.953-.952-1.27-.953-.954-1.588-1.907-2.54-2.86l-.636-.317c-1.27-1.27-2.222-2.541-3.493-3.494l-.317-.317c-.635-.318-1.27-.953-1.588-1.27h-.317c-.635-.319-.953-.636-1.588-.954l-.318-.317c-.635-.318-1.587-.953-2.857-1.588-.318-.318-.953-.318-1.588-.636-2.858-.952-6.35-2.223-10.796-3.493-.318 0-.636 0-.953-.318-3.493-.953-7.62-1.906-12.066-2.54-1.588-.319-2.858-.319-4.446-.636-.635 0-1.27 0-2.223-.318h-.952c-3.493-.317-6.669-.635-10.162-.635h-.317c-4.446 0-8.891.318-13.02 1.27.953-1.588 3.811-3.493 6.352-5.081 3.492-1.906 6.668-3.177 6.668-3.177-1.905 0-3.81.318-5.716.636-.635 0-1.27.317-1.905.317-.318 0-.953 0-1.27.318h-.318c-.317 0-.635 0-.952.318-9.844 2.223-19.37 5.717-24.768 7.94l-1.906.953h-.317c-.635 0-.953 0-1.588.317 3.81-7.305 9.526-11.116 13.972-13.022.635-.317 1.588-.635 2.223-.953.317 0 .317 0 .635-.317.635-.318 1.27-.318 1.587-.636.953-.317 1.588-.317 1.588-.317h-5.08c-10.797 1.27-20.64 4.764-28.896 9.528-5.716 3.176-10.797 6.67-15.242 10.164-1.27.318-2.223.635-3.493.635-12.067 2.541-25.72 5.717-40.01 10.164-5.398 1.588-10.796 3.494-16.194 5.4-4.128 1.587-8.574 3.175-12.702 4.763-3.175 1.27-6.033 2.541-9.208 3.812-21.91 9.846-43.82 22.868-61.92 40.337l-1.906 1.906-4.763 4.764-1.905 1.905c-.635.953-1.588 1.906-2.223 2.541-3.493 3.812-6.668 7.94-9.843 12.387-2.223 3.176-4.446 6.67-6.351 10.164l-.318.318c-4.128 7.305-7.938 14.927-10.796 23.503-1.588 4.129-2.858 8.576-4.128 13.022-.317 1.27-.635 2.223-.952 3.494l-.318.635c-1.27 4.764-2.223 9.846-2.858 14.928 0 .953-.317 1.906-.317 3.176-.318 2.541-.635 5.082-.635 7.94-.318 2.541-.318 4.765-.318 7.306v9.846c0 2.858 0 5.717.318 8.575v.318c0 2.858.317 5.717.635 8.893 0 1.27.317 2.541.317 3.811v.953c0 .636 0 1.27.318 2.224.317 3.176.952 6.67 1.27 10.163 0 .953.317 1.906.317 2.859.635 2.858.953 6.034 1.588 8.893 0 0-.635-3.811-.317-9.528 0-1.27.317-2.859.317-4.13.318-3.176.953-6.987 2.223-10.48l.952-2.86c0-.317.318-.634.636-1.27.635-1.588 1.587-3.493 2.54-5.082.317 1.27.317 2.541.635 3.494v16.834c.317 10.799 1.27 23.82 3.493 34.937 0 0 .317-20.01 3.81-22.55 0 0 6.034 37.478 11.432 51.453.635 1.906 1.587 3.176 2.222 4.13v-3.812l-.635-20.645v-2.223c4.128 8.575 8.891 17.15 14.29 26.362 1.587 2.54 2.857 5.081 4.445 7.622-10.161 8.894-19.687 21.916-26.673 37.161-.953 2.541-2.223 5.082-3.175 7.623-.636 1.588-.953 2.858-1.588 4.446 0 .318-.318.953-.318 1.271-.317.953-.635 2.223-.952 3.176 0 .635-.318.953-.318 1.588-.317.953-.635 2.223-.952 3.176 0 .636-.318.953-.318 1.588l-.953 4.765c-.317 1.588-.635 3.176-.635 4.764 0 .635 0 .953-.317 1.588 0 1.27-.318 2.223-.318 3.494 0 .635 0 1.27-.317 1.905 0 1.27-.318 2.224-.318 3.494v11.117c0 1.27 0 2.54.318 4.129v.952c0 1.588.317 3.177.635 5.082 0 .635 0 .953.317 1.588 0 1.27.318 2.224.635 3.494 0 .635.318 1.27.318 1.906.317.953.317 2.223.635 3.176 0 .635.318 1.27.318 1.906.317.952.635 1.905.635 3.176.317.635.317 1.27.635 2.223.317.953.635 2.223.952 3.176.318.635.318 1.27.635 1.906.318.953.635 2.223.953 3.176.318.635.318 1.27.635 1.906.318 1.27.953 2.54 1.27 3.493.318.636.318.953.635 1.588l4.763 10.482c.318.635.635.953.953 1.588l1.905 3.811c.318.635.635 1.27 1.27 1.906.635.953 1.27 2.223 1.906 3.176.317.635.952 1.27 1.27 1.906.635.953 1.27 2.223 2.222 3.176.636.635.953 1.27 1.588 2.223.635.953 1.588 2.223 2.223 3.176.635.635.953 1.27 1.588 2.224.952.952 1.587 2.223 2.54 3.176.635.635.953 1.27 1.588 1.905.952 1.27 1.905 2.224 3.175 3.494l1.588 1.588c1.587 1.588 3.175 3.494 4.763 5.082 0 0-.953-1.27-2.223-3.811-.318-.318-.635-.953-.635-1.588l-.953-1.906c-.317-.635-.635-1.27-.952-2.223-2.54-5.717-4.763-13.975-4.446-22.869l2.858 3.812c.953 2.223 2.54 5.082 4.128 8.258.635.953 1.27 2.223 1.588 3.176 2.54 4.446 5.08 9.528 8.256 14.292 3.81 6.035 7.62 11.752 11.749 17.152 0 0-4.764-10.164-6.351-16.834-.318-1.906-.635-3.494-.318-4.446.318.317.635.952 1.27 1.27.318.318.635.953 1.27 1.27.636.953 1.588 2.224 2.858 3.812l.635.635c.636.635.953 1.588 1.588 2.223.635.953 1.27 1.906 2.223 2.859 6.668 8.575 15.877 20.01 22.228 26.044 2.222 1.906 4.128 3.494 5.398 4.13l-9.209-16.517c20.958 17.151 107.963 39.067 193.38 14.61 10.48-2.858 20.64-6.67 30.802-11.116 6.033-2.54 12.066-5.717 18.1-8.893l.952-.635c4.128-2.224 8.256-4.765 12.384-7.306 3.175-1.905 6.35-4.129 9.209-6.034a238.2 238.2 0 0015.241-11.434c.318-.318.636-.636.953-.636 4.763-4.129 9.526-8.575 13.654-13.022 5.716-6.034 10.796-12.07 15.242-18.104l.318-.317c1.27-1.588 2.222-2.859 3.175-4.447l.317-.318c.318-.635.636-.952.953-1.588 1.588-2.223 2.858-4.129 4.446-6.352.317-.635.635-.953.952-1.588.635-1.27 1.27-2.223 2.223-3.494.635-.953.953-1.588 1.588-2.54.635-.953 1.27-1.906 1.587-2.86.953-1.587 1.906-3.493 2.858-5.081l.953-1.906 1.905-3.811.953-1.906.317-.635c.635-1.588 1.588-3.176 2.223-4.764v-.318c2.858-2.54 4.763-5.082 6.668-7.305.318-.318.635-.635.635-.953 1.906-6.034 3.176-10.799 3.176-15.245m-510.919-61.617c0-.318 0-.636-.317-1.27-.953-5.4-1.905-11.117-2.223-16.834v-1.27c-.953.317-1.905 1.587-3.175 3.175-.318.636-.953 1.27-1.27 2.224-2.858 5.4-5.399 13.022-5.399 13.022.318-2.541.635-5.082.635-7.623v-.953c.318-2.54.636-5.4.953-7.94v-.953c.318-3.176.953-6.035 1.588-8.893 0-.318 0-.635.317-1.27v-.318c0-.318 0-.635.318-.953 0-.635.317-.953.317-1.588.318-2.223.953-4.447 1.27-6.67.318-1.906.636-3.811.953-5.4v-.635c0-.317 0-.635.318-.635v-.635c0-.318.317-.953.317-1.27 0-.318 0-.636.318-.953 0-.636.317-1.27.317-1.589 0-.317.318-.952.318-1.27 0-.635.317-1.27.317-1.588 0-.318 0-.635.318-.953 0-.318 0-.635.317-.635 0-.635.318-.953.318-1.27v-.953l-.635.635c-.635.317-.953.953-1.588 1.27l-.635.635c-.635.636-1.27 1.27-1.588 1.906l-.317.318-1.905 2.858-.318.318c0 .318-.317.318-.317.635l-.953 1.906v.635c-.318.953-.953 1.906-1.27 2.859-.953 2.54-1.905 5.081-2.54 7.305-.318.635-.318 1.588-.635 1.905-.318 1.27-.636 2.541-.636 2.859v.318-.318c0-.953 0-1.588.318-2.541 0-1.588.318-3.494.318-5.082 0-1.27.317-2.858.635-4.129 0-.317 0-.953.317-1.27 0-.635.318-1.27.318-1.906 0-.635.317-1.27.317-1.906v-.952c0-.636.318-1.589.318-2.224v-2.223c0-.318 0-.635.317-.953.318-.953.635-2.223.635-3.176v-.318c.318-.635.318-1.588.635-2.223v-.318c.318-1.588.953-3.176 1.27-4.764v-.635c0-.318 0-.635.318-.953.635-2.54 1.588-5.082 2.223-7.305v-.318c.635-1.905 1.588-4.129 2.223-6.034v-.318c.317-.953.635-1.588.952-2.54.635-1.271.953-2.542 1.588-3.812 0-.318.317-.953.953-2.223.317-.318.317-.953.635-1.27.317-.636.635-1.271.952-2.224l.318-.635 5.398-9.846c.317-.318.317-.953.635-1.27v-.319l.318-.635c.635-.953 1.27-2.223 1.905-3.176.952-1.588 1.587-3.176 2.54-4.447 1.588-2.858 2.858-5.399 3.81-6.67.318-.952.636-1.27.953-1.587-.317 0-1.905-1.27-4.445-2.859-3.176-1.906-7.621-4.447-13.02-6.988-1.905-.952-3.492-1.588-5.398-2.54-2.222-.953-4.763-1.906-7.303-2.859-.635-.318-1.27-.318-1.905-.635-2.223-.635-4.128-1.27-6.35-1.906-1.589-.317-3.176-.635-4.446-.953-1.27-.317-2.54-.317-3.81-.635-.636 0-1.271 0-1.906-.318-.635 0-1.27 0-1.905-.317-1.588 0-3.493-.318-5.081-.318h-2.54c-3.81 0-7.304.318-10.797.953h-.635c-6.35.953-12.384 2.541-18.417 4.764-1.905.635-3.81 1.588-6.033 2.541-.635.318-.953.635-1.588.635l-1.905.953c-5.716 2.859-11.114 6.67-16.194 10.8h-.318c-4.445 3.493-8.256 7.622-11.749 11.75l-2.858 3.812c-1.27 1.588-2.222 3.176-3.175 4.764-1.905 2.859-3.81 6.035-5.398 9.211-.635 1.27-1.27 2.224-1.588 3.494 0 .318-.317.318-.317.635-3.176 7.623-5.716 15.563-6.669 24.139-.317 1.588-.317 3.176-.635 5.082v.635c0 1.27-.317 2.54-.317 4.129v5.717c0 1.27 0 2.54.317 3.811v1.588c0 .953.318 1.906.318 2.859v.318c0 .635 0 .952.317 1.588 0 .952.318 1.905.318 2.54 0 .636.317 1.271.317 1.906.318.953.318 1.588.635 2.541 0 .635.318 1.27.636 1.906v.317l.317.636v.635l.318.635c.317.635.317 1.27.635 1.906.317.635.317 1.588.635 2.223.317.635.635 1.27.635 2.223l.317.636c.318.635.318.952.635 1.588.318.635.635 1.27.953 2.223l.953 1.906c.317.317.317.635.635.953.317.317.317.635.635.952l.952 1.906c.318.635.635 1.588 1.27 2.223.318.636.636 1.27.953 1.588.318.636.953 1.589 1.27 2.224.318.635.635.953.953 1.588.317.635.953 1.588 1.588 2.223.317.635.635.953.952 1.27.635.636.953 1.589 1.588 2.224.317.317.635.953.953 1.27.635.636 1.27 1.588 1.905 2.224.317.317.635.635.952 1.27.635.635 1.27 1.588 1.906 2.223l.952.953c.635.635 1.27 1.588 2.223 2.224l.953.952 2.222 2.224c.318.317.635.635.953.635.635.635 1.588 1.27 2.54 2.223.318.318.635.318.953.635.953.636 1.588 1.27 2.54 1.906.318.318.635.318.635.635l2.858 1.906.635.318 2.858 1.905.635.318c.953.635 2.223 1.27 3.175 1.906l.636.317c.952.635 2.222 1.27 3.175 1.588l.635.318c1.27.635 2.223.953 3.493 1.588l.317.318c1.27.635 2.54.952 3.493 1.588h.318c1.27.317 2.54.952 3.81 1.27h.318c.635.318 1.27.318 1.905.635.635.318 1.27.318 2.223.636h.317c1.27.317 2.858.635 4.128.952 1.27.318 2.858.636 4.128.636 4.446.635 8.891.952 13.337 1.27h3.175c1.588 0 2.858 0 4.446-.318 1.905-.317 4.128-.317 6.35-.635 1.906-.317 3.811-.635 5.399-.953 2.858-.635 5.716-1.27 8.256-2.223 8.256-2.223 15.242-5.4 19.687-8.893 0 0-2.858-12.705-5.08-25.41-.636-.634-.953-1.905-1.27-3.175" fill="#90694C"/><path d="M531.06 146.132l-.953-12.737 6.352-14.011 2.541-.637c-4.129-1.91-9.21-3.184-14.927-4.14-11.433-1.592-26.042 0-42.557 4.14s-35.252 11.464-54.943 21.335c-39.699 19.743-83.526 49.994-126.084 88.843-14.926 13.374-28.583 27.385-41.286 41.077-12.386 13.375-23.502 27.067-33.665 40.123-20.643 27.067-36.205 53.178-46.368 76.742-6.67 15.603-10.798 29.933-12.386 42.352-1.27 8.916-.953 16.877.635 23.245.635 2.23 1.27 3.821 1.906 5.732 1.588 3.821 3.493 7.005 6.034 9.871l25.725 27.067 2.858 2.866.318-.318a9.679 9.679 0 012.54-2.548l.318-.318.953-.956c.635-.955 1.588-1.592 2.223-2.547.635-.637.953-.955 1.588-1.274.635-.318.953-.955 1.588-1.274l.635-.636c.635-.319.953-.956 1.588-1.274.635-.637 1.588-1.274 2.223-1.91.318-.32.953-.638 1.27-.956h.318c.953-.637 1.588-1.274 2.54-1.91.636-.32.953-.637 1.589-1.274.952-.637 1.588-1.274 2.54-1.91.635-.32.953-.638 1.588-.956.953-.637 1.906-1.274 2.859-1.592.635-.319.952-.637 1.588-.956.952-.637 1.905-.955 2.858-1.592.635-.318.953-.637 1.588-.955l.635-.319c6.034-16.877 15.244-35.664 27.313-54.77 14.609-23.564 33.347-48.402 55.578-73.24 13.974-15.603 29.218-31.206 45.733-46.172 21.279-19.424 43.192-36.938 64.789-52.223 14.609-10.19 28.9-19.424 42.874-27.385 1.27-.637 2.541-1.592 4.129-2.23a190.921 190.921 0 0111.116-6.05c7.94-4.14 15.88-7.96 23.501-11.145l-3.81-4.458-.636-.636-4.764-5.414-26.36-31.843.318-22.927-.318-.319 18.738-5.731 35.57 18.15" fill="#2F83C1"/><path d="M838.03 679.432s.635-4.76-1.905-9.202c0-.317-.317-.635-.317-.635l-.318-.317-.952-.952c-.635-.635-1.27-1.27-2.223-1.904-.317-.317-.952-.634-1.587-.952-1.588-.634-3.175-1.269-5.398-1.586-1.587-.317-3.175-.317-5.08-.317h-2.54v.634c0 .318.318.635.318 1.27 0 .317 0 .634.318.634.317.952.635 2.538.952 3.808 0 0 0 .317-.317.951v.318c-.953 2.22-3.493 7.298-9.208 13.644-.952 1.269-1.905 2.22-3.175 3.49-15.875 16.5-50.164 39.662-122.554 52.671-24.447 3.49-47.307 3.808-66.357 1.27-28.574-3.49-49.847-12.692-60.007-25.067-.952-.952-1.587-2.221-2.54-3.173-.635-.952-.952-1.586-1.587-2.538-.318-.318-.318-.635-.635-.952a49.997 49.997 0 01-6.032-23.798c0-9.836 3.174-19.038 8.254-26.018 4.128-5.711 9.525-10.154 16.193-12.057 3.175-.952 6.667-1.587 10.16-1.27.635 0 1.587 0 2.857.318 2.223.317 5.715.634 9.843 1.269.317 0 .952 0 1.27.317 13.652 1.587 35.242 3.808 61.277 2.221 47.624-2.855 110.171-17.768 167.003-69.17v-.318c.317-4.442-.318-12.057-5.715-18.086-.952-.952-1.905-1.904-3.175-2.856-.635-.634-1.587-.952-2.222-1.586-.953-.318-1.588-.952-2.223-1.27l-2.857-1.903v-.318c-.318-.634-.635-1.269-1.27-1.903-14.605-22.211-34.925-35.22-43.18-41.25-3.81-2.855-6.35-4.124-6.35-4.124-17.462-10.788-20.002-14.278-18.415-43.153.635-10.47 1.588-24.114 2.858-42.835 0-2.538.317-4.76.317-6.98v-9.202c0-1.587-.317-3.173-.317-4.442 0-.635 0-1.27-.318-1.904-.317-1.587-.317-3.173-.635-4.76 0-.634-.317-1.586-.317-2.22 0-.953-.318-1.587-.635-2.539-.318-.635-.318-1.587-.635-2.221-.318-.952-.635-1.904-.635-2.856 0-.317-.318-.634-.318-.952 0-.317-.317-.634-.317-.952v-.317l-.318-.952c-.317-.634-.635-1.269-.635-1.904v-.317l-.317-.634-.318-.635c-.635-1.27-.952-2.538-1.587-3.49l-.318-.952c-.635-.952-1.27-2.221-1.905-3.173l-.317-.318-.318-.317c-.635-.634-.952-1.269-1.587-1.904l-.635-.952c-.635-.951-1.27-1.586-1.905-2.22l-2.54-2.539c-.953-.635-1.905-1.27-2.858-1.586-.317-.318-.635-.318-.952-.318l-1.905-.952c-.318 0-.635-.317-.953-.317-.635-.317-1.27-.317-1.587-.635-.318 0-.635-.317-1.27-.317s-.953-.317-1.588-.317h-6.984c-.318 0-.635 0-.953.317-.317 0-.635 0-.952.317-.635 0-1.27.318-2.223.635h-.635c-1.905.635-3.492 1.27-5.397 1.904l-.635.317c-.635.317-1.27.635-2.223.952l-.952.317-1.905.952-.953.635-1.905.952-.952.634c-.635.318-1.27.952-1.905 1.27l-.635.317c-.635.634-1.588.952-2.223 1.586l-.317.318c-.953.634-1.588 1.269-2.54 1.586-1.588.952-3.175 2.221-4.763 3.173-1.27.952-2.54 1.904-4.127 2.856l-.635.317a28.989 28.989 0 01-4.128 2.538l-.635.318c-1.27.952-2.857 1.586-4.127 2.538l-.635.317c-1.27.952-2.857 1.587-4.445 2.221l-.635.318c-1.587.634-2.857 1.269-4.445 1.904l-.635.317c-1.587.634-3.175.952-4.762 1.586h-.318c-1.587.318-3.492.635-5.08.952-2.857.318-6.032.635-8.89.635-4.762 0-9.525-.317-14.605-.952l-4.762-.952c-.635 0-1.27-.317-1.588-.317-4.127-.952-8.572-1.904-12.7-2.856-1.904-.317-3.492-.952-5.397-1.27-2.857-.634-5.715-1.268-8.89-1.903-.635 0-1.27-.317-1.587-.317-.318 0-.953-.317-1.27-.317-.635 0-1.27-.318-1.905-.318s-1.27-.317-1.905-.317h-.635c-.635 0-1.27-.317-1.588-.317-1.27-.318-2.54-.635-4.127-.635-.318 0-.953 0-1.27-.317-.953 0-1.905-.318-2.858-.318-.635 0-.952 0-1.587-.317-.953 0-1.588-.317-2.54-.317h-14.605c-1.587 0-2.857.317-4.445.317h-1.27c-.952 0-1.905.317-2.857.317h-.318c-.635 0-.952.318-1.587.318-.953.317-1.905.317-2.858.634-.635 0-1.27.318-1.587.318-.953.317-1.905.634-2.858.634-.635 0-.952.318-1.587.635-.953.317-2.223.634-3.175.952-.635.317-.953.317-1.27.634-1.588.635-3.175 1.27-4.445 1.904-12.065 6.98-22.543 16.5-30.48 27.288-2.857 3.807-5.397 7.615-7.62 11.422-2.54 4.125-4.445 8.568-6.35 13.01-.635 1.269-.952 2.538-1.587 3.807-.635 2.221-1.588 4.442-2.223 6.664 0 .317 0 .634-.317.634-.635 2.539-1.27 5.077-1.905 7.933-.635 2.855-.953 5.394-1.27 8.25-.318 1.586-.318 2.855-.318 4.442a76.434 76.434 0 000 12.057v.952c0 .952 0 1.904.318 3.173.317 2.855.635 5.711 1.27 8.567.317.952.635 1.904.635 3.173.317.952.317 1.904.635 2.856 1.905 7.297 4.762 13.96 8.255 19.672 13.017 22.528 34.607 36.172 50.482 43.47 6.032 2.538 12.382 5.077 19.05 7.298l-.635.634c-1.27.318-2.54.635-4.128.952-2.222.635-5.08 1.587-7.937 2.539-3.175.952-6.985 2.538-10.795 4.125-10.16 4.124-21.59 10.153-31.75 18.403-1.27.952-2.54 2.22-3.81 3.173a54.098 54.098 0 00-6.032 6.028l-.635.635-.953.952c-.635.952-1.587 1.586-2.222 2.538l-.953.952c-.952 1.27-1.905 2.539-2.54 3.808-.952 1.269-1.587 2.538-2.54 3.807-6.032 10.471-9.525 23.163-8.572 38.394v-.635c0-.317 0-.635.317-.952v-.317c0-.318.318-.635.318-1.27v-.317c0-.317.317-.952.317-1.586 0-.635.318-.952.635-1.587v-.317c.318-.635.318-1.27.635-1.904v-.317c.318-.635.318-1.27.635-1.904v-.317c.318-.635.635-1.27.953-2.221l.317-.318c.318-.634.635-1.586 1.27-2.22.635-1.27 1.27-2.222 1.905-3.491.318-.317.635-.952.953-1.27l.317-.316 1.905-2.856c.635-.635 1.27-1.587 1.905-2.221l.635-.635c.635-.634.953-1.269 1.588-1.586l.635-.635c.635-.635 1.587-1.27 2.222-2.221 0 0-13.652 31.095-7.62 55.527v-4.759c0-.635 0-1.27.318-1.904 0-.635 0-1.27.317-1.904v-.317c0-.635.318-1.587.318-2.221v-.635c.317-.952.317-1.586.635-2.538v-.318c.317-.951.635-1.903.635-2.538 0-.317.317-.634.317-.952l.318-.634c.317-.635.635-1.587.952-2.221.318-.952.953-1.904 1.588-2.856 0-.317.317-.635.317-.635l1.905-2.855s-.635 7.615-.635 16.816c0 1.587 0 2.856.318 4.443 0 .951 0 1.903.317 2.855.635-9.836 2.54-19.038 5.08-27.605-2.54 8.567-4.445 17.769-5.08 27.605-.317 6.346-.317 12.692.318 19.355.952 11.106 3.81 23.163 8.572 35.538 0 0-4.445-14.279 1.905-28.557l1.905 3.808c.635 4.124 1.27 10.153 2.54 16.816 1.27 11.106 6.35 44.422 29.21 67.585 0 0-8.573-11.105-7.303-25.384.953 1.904 1.905 3.49 2.54 5.077 3.81 7.298 11.43 20.624 20.003 30.143 0 0-6.668-13.009-5.08-15.865 0 0 22.224 27.605 29.21 30.144l-9.208-15.23-.318-.318c32.068 23.48 76.517 32.047 131.127 16.817 9.525-2.539 19.05-6.029 29.21-10.154 6.032-2.538 12.064-5.711 18.097-8.884l.952-.635c4.128-2.22 8.255-4.76 12.383-7.298 3.175-1.903 6.35-4.124 9.207-6.028 5.08-3.49 10.16-7.298 15.24-11.423.317-.317.635-.635.952-.635 4.763-4.124 9.525-8.567 13.653-13.009 5.715-6.028 10.795-12.057 15.24-18.086l.317-.317c1.27-1.587 2.223-2.856 3.175-4.442l.318-.318c.317-.634.635-.951.952-1.586 1.588-2.221 2.858-4.125 4.445-6.346.318-.635.635-.952.953-1.587.635-1.269 1.27-2.22 2.222-3.49.635-.952.953-1.586 1.588-2.538.635-.952 1.27-1.904 1.587-2.856.953-1.586 1.905-3.49 2.858-5.077l.952-1.903 1.905-3.808.952-1.904.318-.634c.635-1.587 1.587-3.173 2.222-4.76v-.317c2.858-2.539 4.763-5.077 6.668-7.298.317-.317.635-.635.635-.952 2.857-4.125 4.127-8.884 4.127-13.326M324.638 598.52c-.953.318-1.905 1.587-3.175 3.173-.318.635-.953 1.27-1.27 2.222-2.858 5.394-5.398 13.009-5.398 13.009.318-2.539.635-5.077.635-7.615v-.952c.318-2.539.635-5.394.953-7.933v-.952c.317-3.173.952-6.028 1.587-8.884 0-.317 0-.635.318-1.27v-.317c0-.317 0-.634.317-.951 0-.635.318-.952.318-1.587.317-2.221.952-4.442 1.27-6.663.317-1.904.635-3.808.952-5.394v-.635c0-.317 0-.634.318-.634v-.635c0-.317.317-.952.317-1.27 0-.317 0-.634.318-.951 0-.635.317-1.27.317-1.587 0-.317.318-.952.318-1.269 0-.634.317-1.269.317-1.586 0-.318 0-.635.318-.952 0-.317 0-.635.317-.635 0-.634.318-.952.318-1.269v-.952l-.635.635c-.635.317-.953.952-1.588 1.269l-.635.635c-.635.634-1.27 1.269-1.587 1.903l-.318.318-1.905 2.855-.317.318c0 .317-.318.317-.318.634l-.952 1.904v.635c-.318.951-.953 1.903-1.27 2.855-.953 2.539-1.905 5.077-2.54 7.298-.318.635-.318 1.587-.635 1.904-.318 1.27-.635 2.538-.635 2.856v.317-.317c0-.952 0-1.587.317-2.539 0-1.586.318-3.49.318-5.077 0-1.269.317-2.855.635-4.124 0-.318 0-.952.317-1.27 0-.634.318-1.269.318-1.903 0-.635.317-1.27.317-1.904v-.952c0-.635.318-1.587.318-2.221v-2.221c0-.318 0-.635.317-.952.318-.952.635-2.221.635-3.173v-.317c.318-.635.318-1.587.635-2.222v-.317c.318-1.586.953-3.173 1.27-4.76v-.634c0-.317 0-.635.318-.952.635-2.538 1.587-5.077 2.222-7.298v-.317c.635-1.904 1.588-4.125 2.223-6.029v-.317c.317-.952.635-1.586.952-2.538.635-1.27.953-2.539 1.588-3.808 0-.317.317-.952.952-2.221.318-.317.318-.952.635-1.27.318-.634.635-1.268.953-2.22l.317-.635c-.317-.317-.952-.317-1.27-.634h-.317l-.635-.318c-2.858-1.269-6.033-2.538-9.208-3.49h-.635c-2.222-.635-4.127-.952-6.35-1.27-1.27 0-2.54-.317-3.81-.317h-3.175c-1.587 0-3.175.318-4.762.318-.635 0-.953 0-1.588.317-.635 0-1.587.317-2.222.317-.318 0-.635 0-.953.318-.635 0-.952.317-1.587.317-.953.317-2.223.635-3.175.952-.318 0-.953.317-1.27.317-1.27.635-2.858.952-4.128 1.587-.635.317-.952.634-1.587.634l-1.905.952-.635.317c-.635.318-1.27.635-1.905 1.27-.635.317-1.27.634-1.905 1.269-.635.317-1.27.952-1.905 1.269-.317.317-.952.635-1.27.952-.952.952-2.222 1.904-3.175 2.856l-1.587 1.586c-.953.952-1.588 1.904-2.54 2.856l-.318.317c-.317.635-.952.952-1.27 1.587l-.952.951c-1.588 2.222-3.175 4.76-4.445 7.298-.318.318-.318.635-.635.952-.635 1.27-.953 2.539-1.588 3.808-.317.634-.317.952-.635 1.586-.317 1.27-.952 2.539-1.27 4.125v1.27c-.317.951-.317 1.903-.635 2.855 0 .635 0 .952-.317 1.587 0 .634 0 .951-.318 1.586v1.27c0 1.586-.317 3.172 0 4.759 0 1.269 0 2.538.318 3.807v.635c0 .634.317 1.269.317 1.904.318 2.538.953 4.76 1.588 7.298.635 1.903 1.27 3.49 1.905 5.076 1.27 3.173 2.857 6.029 4.762 8.885 3.81 5.711 8.89 10.788 14.923 14.595 3.174 2.221 6.984 3.808 10.794 5.077 3.493 1.27 7.303 2.221 11.43 2.539.953 0 1.905.317 2.54.317h4.128c1.27 0 2.54-.317 3.81-.317.635 0 1.587 0 2.222-.318 1.905-.317 3.493-.634 5.398-.952h.317c.635-.317 1.27-.317 2.223-.634 2.222-.635 4.445-1.587 6.35-2.539l.317-.317c.635-.317 1.27-.635 1.588-.635-.953-5.394-1.905-11.105-2.223-16.816 1.588-.635 1.588-.952 1.588-1.27" fill="#FCE9CD"/><path d="M539.05 150.2l.9.6-.9-.6z" fill="#4D9ED7"/><path d="M817.683 667.351c0-.318 0-.636-.316-.636-.317-.636-.317-.954-.317-1.272-1.584-5.09-3.484-8.907-5.385-11.77-2.217-3.5-4.117-5.408-4.117-5.408l.95-3.818c.317-1.59.634-3.18.634-4.771 1.266-11.452-1.584-20.36-4.118-25.45-.317-.954-.633-1.59-.95-2.226-1.9 1.272-3.484 2.545-5.385 3.817-34.206 23.223-72.53 38.174-114.023 44.536-28.505 4.454-58.595 4.772-89.951.954l.633.318s-19.003 2.545-24.071 20.678l.317.318L570 694.709c.633 16.542 7.918 26.721 16.47 32.13 8.868 3.499 19.637 6.044 31.673 7.634 20.588 2.545 44.659 1.909 68.73-1.909 32.307-4.453 77.916-21.631 110.54-43.899 7.284-5.09 14.252-10.498 19.954-15.906l.316-.318.317-.318c0-2.227-.317-3.5-.317-4.772" fill="#FFF"/><g fill="#F2D2AC"><path d="M756.467 510.312c-17.459-10.817-19.998-14.317-18.411-43.27.635-10.5 1.587-24.181 2.857-42.953 0-2.546.317-4.773.317-7v-9.227c0-1.59-.317-3.182-.317-4.454 0-.637 0-1.273-.318-1.91-.317-1.59-.317-3.181-.635-4.772 0-.636-.317-1.59-.317-2.227 0-.955-.318-1.59-.635-2.545-.317-.637-.317-1.591-.635-2.228-2.54-3.818-5.396-7-8.888-9.863l-.635-.636-.635-.318h-.317c-.635-.318-.952-.637-1.587-.955-.635-.318-1.27-.636-1.587-.954-5.08-3.182-11.11-5.091-17.141-6.045-3.492-.637-6.984-.637-10.476-.637-1.587 0-3.491.318-5.078.318-4.444.637-8.888 1.591-13.65 2.864-1.587.954-3.174 2.227-4.761 3.182-1.27.954-2.54 1.909-4.127 2.863l-.635.318a28.968 28.968 0 01-4.126 2.546l-.635.318c-1.27.954-2.857 1.59-4.127 2.545l-.635.318c-1.27.955-2.856 1.591-4.444 2.227l-.634.319c-1.588.636-2.857 1.272-4.444 1.909l-.635.318c-1.587.636-3.175.954-4.762 1.59h-.317c-1.587.319-3.492.637-5.079.955-2.857.318-6.031.636-8.888.636-4.761 0-9.523-.318-14.602-.954l-4.761-.955c-.635 0-1.27-.318-1.587-.318-4.127-.954-8.57-1.909-12.697-2.863-1.905-.318-3.492-.955-5.397-1.273-2.857-.636-5.713-1.273-8.888-1.909-.635 0-1.27-.318-1.587-.318-2.54 0-5.079.318-7.3.636h-.636c-7.3.955-14.284 2.546-21.585 5.091-.317 0-.635.318-1.27.318-1.27.318-2.221.955-3.491 1.273-1.587.636-2.857 1.272-4.444 1.909-10.475 4.454-20.316 10.818-29.838 18.772-3.81 3.181-7.301 6.681-10.793 10.181-5.079 5.409-9.523 11.136-13.65 17.181-.317.318-.317.637-.634.955-2.222 3.181-4.127 6.681-5.714 9.863-.635 1.273-1.27 2.545-1.905 3.5v.318c-1.904 4.136-3.491 7.954-4.761 12.09 0 .319 0 .637-.317.637-.318.636-.318 1.272-.635 1.909-.635 1.909-1.27 3.818-1.587 5.727-.635 1.909-.953 3.818-1.27 6.045 0 .318-.318.955-.318 1.273-.317 1.272-.317 2.545-.634 3.5-.635 4.454-.953 8.908-1.27 13.363v3.181c1.904 7.318 4.761 14 8.253 19.727 13.015 22.59 34.6 36.271 50.471 43.589 6.031 2.545 12.38 5.09 19.046 7.318l.317.318.318-.318c.952-.637 1.587-1.273 2.54-1.91.317-.317.634-.317.951-.636l2.857-1.909c.318-.318.635-.318.953-.636l2.856-1.909c.318-.318.635-.318.953-.636.952-.637 1.904-1.273 3.174-1.91.317-.317.635-.317.952-.636.953-.636 2.222-1.272 3.175-1.909.317-.318.634-.318.952-.636.952-.636 2.222-1.273 3.174-1.909.318-.318.952-.318 1.27-.636.952-.637 2.222-1.273 3.174-1.91.318-.318.952-.636 1.27-.636.952-.636 2.222-1.272 3.492-1.909.634-.318.952-.636 1.587-.636 1.27-.636 2.222-1.273 3.491-1.59.635-.319.953-.637 1.588-.637 1.27-.637 2.222-.955 3.491-1.591l1.905-.955c1.27-.636 2.222-.954 3.492-1.59.634-.319 1.27-.637 2.222-.955 1.27-.318 2.222-.954 3.491-1.273.635-.318 1.587-.636 2.222-.954 1.27-.318 2.222-.955 3.492-1.273.952-.318 1.587-.636 2.54-.954 1.27-.318 2.221-.955 3.491-1.273l2.857-.954c.952-.319 2.222-.637 3.174-1.273.953-.318 2.222-.636 3.175-.955.952-.318 2.222-.636 3.174-.954 1.27-.318 2.54-.636 3.492-.955.952-.318 1.904-.636 3.174-.954 1.27-.318 2.54-.636 4.126-1.273.635-.318 1.27-.318 1.905-.636 5.079-13.045 20.633-45.498 46.98-48.998 2.856-.318 5.396-.636 7.935-.636h1.905c-.318-1.91-.635-3.818-.635-6.046-.952-14 3.492-25.771 9.523-26.09 4.761-.318 8.57 6.682 9.205 8.91 1.905 4.135 3.174 9.544 3.492 15.59.317 5.408-.318 10.5-1.27 14.953.635.637.952 1.273 1.587 1.591 6.031 7.636 6.984 17.818 6.666 25.454 2.222-.318 4.762-.318 7.301-.637.635 0 1.27 0 1.905-.318h1.27c2.856-.318 6.03-.636 9.205-.636 6.983-.636 13.967-.955 21.268-1.273-4.127-2.227-6.666-3.5-6.666-3.5m66.342 195.992c-11.427 10.182-23.49 18.454-35.552 25.136-6.031 3.181-12.062 6.045-17.776 8.59-13.014 5.727-25.394 9.545-36.504 12.409-24.442 6.045-41.266 6.045-41.266 6.045 13.332 7.318 30.156 7.318 41.583 6.363 7.936-.636 13.332-2.227 13.332-2.227-.317 4.773-.952 9.227-1.587 13.681-.952 4.773-2.222 8.91-3.809 12.727v.318c-1.905 4.773-4.444 8.909-6.983 12.727-.318.318-.635.955-.953 1.273l.953-.637c4.126-2.227 8.253-4.772 12.38-7.317 3.174-1.91 6.348-4.137 9.205-6.046a238.158 238.158 0 0015.236-11.454c.318-.318.635-.636.953-.636 4.761-4.136 9.522-8.59 13.649-13.045 5.714-6.045 10.793-12.09 15.237-18.136l.317-.318c1.27-1.59 2.222-2.863 3.174-4.454l.318-.318c.317-.637.635-.955.952-1.591 1.587-2.227 2.857-4.136 4.444-6.364.317-.636.635-.954.952-1.59.635-1.273 1.27-2.228 2.222-3.5.635-.955.953-1.591 1.587-2.546.635-.954 1.27-1.909 1.588-2.863.952-1.591 1.904-3.5 2.856-5.09l.953-1.91 1.904-3.818.953-1.909.317-.636c.635-1.591 1.587-3.182 2.222-4.773-1.27.318-1.905.955-2.857 1.91M533.314 578.081c-3.174.955-6.983 2.546-10.792 4.136-10.158 4.137-21.585 10.182-31.743 18.454-1.27.955-2.54 2.227-3.81 3.182a54.166 54.166 0 00-6.03 6.045l-.635.637-.953.954c-.634.955-1.587 1.59-2.222 2.545l-.952.955c-.952 1.273-1.904 2.545-2.54 3.818-.952 1.273-1.586 2.545-2.539 3.818-6.03 10.5-9.523 23.226-8.57 38.498v-.636c0-.318 0-.636.317-.955v-.318c0-.318.318-.636.318-1.272v-.319c0-.318.317-.954.317-1.59 0-.637.317-.955.635-1.591v-.318c.317-.637.317-1.273.635-1.91v-.318c.317-.636.317-1.272.635-1.909v-.318c.317-.636.634-1.272.952-2.227l.317-.318c.318-.636.635-1.59 1.27-2.227.635-1.273 1.27-2.227 1.905-3.5.317-.318.634-.955.952-1.273l.317-.318 1.905-2.863c.635-.637 1.27-1.591 1.904-2.228l.635-.636c.635-.636.953-1.273 1.587-1.59l.635-.637c.635-.637 1.587-1.273 2.222-2.227 0 0-13.65 31.18-7.618 55.68v-4.773c0-.637 0-1.273.317-1.91 0-.636 0-1.272.318-1.908v-.319c0-.636.317-1.59.317-2.227v-.636c.318-.955.318-1.59.635-2.545v-.319c.318-.954.635-1.909.635-2.545 0-.318.317-.636.317-.954l.318-.637c.317-.636.635-1.59.952-2.227.318-.954.952-1.909 1.587-2.864 0-.318.318-.636.318-.636l1.904-2.863s-.635 7.636-.635 16.863c0 1.59 0 2.863.318 4.454 0 .954 0 1.909.317 2.863.635-9.863 2.54-19.09 5.08-27.68.634-2.227 1.586-4.773 2.221-7 0-.318.318-.636.318-.954.952-2.228 1.587-4.137 2.539-6.364.317-.318.317-.636.635-1.272.952-1.91 1.904-4.137 2.857-6.046.317-.318.317-.636.317-.954 2.222-4.136 4.444-7.954 6.666-11.454.318-.318.318-.637.635-.955.952-1.272 1.905-2.545 2.857-4.136.317-.318.317-.636.635-.954.317-.319.317-.637.635-.955 1.27-1.59 2.222-3.182 3.491-4.773.318-.318.318-.636.635-.636 1.27-1.59 2.54-3.182 3.81-4.454 1.586-1.91 3.174-3.5 4.76-5.41 1.27-1.272 2.223-2.544 3.492-3.499l1.27-1.273c2.54-2.545 5.079-5.09 7.618-7.317 6.984-6.364 12.698-10.5 14.602-11.773-1.27.318-2.54.637-4.126.955-1.905.954-4.444 1.909-7.619 2.863"/><path d="M716.153 509.04s0-.637-.317-1.91c-1.27-4.454-5.714-15.271-23.173-13.68-18.41 1.908-24.759 16.862-26.346 21.953-.318.955-.318 1.59-.318 1.59l.635.32c2.222-1.91 6.666-1.91 10.793.954 1.904 1.272 3.174 2.545 4.444 4.136 1.587 2.545 1.904 5.09.952 7l-.952.954s.635.318 1.904.636c5.08 1.591 19.364 4.455 26.982-5.409.317-.636.635-.954.952-1.59-1.587-.637-2.222-2.864-2.222-5.727 0-1.273.318-2.546.635-4.137.952-3.818 3.81-6.045 6.031-5.09m-91.737 136.176c-12.062 2.545-22.537 4.454-30.473 5.727.318 0 .952 0 1.27.318 13.65 1.59 35.234 3.818 61.264 2.227 47.614-2.863 110.147-17.817 166.967-69.36v-.319c.317-4.454-.317-12.09-5.714-18.135-.952-.955-1.904-1.91-3.174-2.864-.317 0-.317-.318-.635-.318-1.587-.954-2.857-1.59-4.126-2.545l-2.857-1.91v-.317c-3.492 5.09-7.619 9.863-12.063 14.317-1.587 1.59-3.174 3.182-5.078 4.773-15.554 14-35.87 26.09-57.772 35.635-36.187 15.908-76.818 26.408-107.609 32.77m-300.922-83.041c-.635.318-.952.954-1.587 1.273l-.635.636c-.635.636-1.27 1.273-1.587 1.909l-.318.318-1.904 2.864-.318.318c0 .318-.317.318-.317.636l-.952 1.91v.635c-.318.955-.953 1.91-1.27 2.864-.952 2.545-1.905 5.09-2.54 7.318-.317.636-.317 1.59-.634 1.909-.318 1.273-.635 2.545-.635 2.863v.319-.319c0-.954 0-1.59.317-2.545 0-1.59.318-3.5.318-5.09 0-1.273.317-2.864.635-4.137 0-.318 0-.954.317-1.273 0-.636.317-1.272.317-1.909 0-.636.318-1.272.318-1.909v-.954c0-.636.317-1.59.317-2.227v-2.227c0-.319 0-.637.318-.955.317-.954.635-2.227.635-3.182v-.318c.317-.636.317-1.59.634-2.227v-.318c.318-1.591.953-3.182 1.27-4.773v-.636c0-.318 0-.636.318-.955.634-2.545 1.587-5.09 2.222-7.317v-.319c.634-1.909 1.587-4.136 2.222-6.045v-.318c.317-.954.634-1.59.952-2.545.635-1.273.952-2.546 1.587-3.818 0-.318.317-.955.952-2.227.318-.319.318-.955.635-1.273.318-.637.635-1.273.952-2.227l.318-.637c-.318-.318-.952-.318-1.27-.636h-.317l-.635-.318c-2.857-1.273-6.031-2.546-9.206-3.5h-.634c-2.222-.636-4.127-.955-6.349-1.273-1.27 0-2.54-.318-3.81-.318h-3.173c-1.588 0-3.175.318-4.762.318-.635 0-.952 0-1.587.318-.635 0-1.587.319-2.222.319-.317 0-.635 0-.952.318-.635 0-.953.318-1.587.318-.953.318-2.222.636-3.175.954-.317 0-.952.319-1.27.319-1.27.636-2.856.954-4.126 1.59-.635.319-.952.637-1.587.637l-1.905.954-.635.318c-.634.319-1.27.637-1.904 1.273-.635.318-1.27.636-1.905 1.273-.635.318-1.27.954-1.904 1.273-.318.318-.953.636-1.27.954-.952.955-2.222 1.909-3.174 2.864l-1.587 1.59c-.953.955-1.588 1.91-2.54 2.864l-.317.318c-.318.636-.953.955-1.27 1.59l-.952.955c-1.587 2.228-3.175 4.773-4.444 7.318-.318.318-.318.637-.635.955-.635 1.272-.952 2.545-1.587 3.818-.318.636-.318.954-.635 1.59 0 .319.317.637.317.955.318 1.273.635 2.227.953 3.5v.636c.317.955.952 2.228 1.27 3.182 1.269 3.182 2.539 6.045 4.126 8.59.317.319.317.637.635.955v.318l.317.318c.952 1.91 1.905 3.5 2.857 4.773 1.587 2.227 2.857 3.818 3.81 5.09l.634.637c0 .318.317.318.317.318l.635.637c0-.637-.317-1.273-.317-1.591-.952-4.137-1.27-7.955-1.27-12.09v-.637c0-2.545 0-5.09.318-7.318l.952 2.864c.317 1.272.952 2.545 1.27 3.818v.636c1.904 5.409 4.126 9.863 6.348 13.363 2.54 4.454 4.762 7.318 6.349 9.227.317.318.635.636.635.954l.634.637c-.952-4.455-1.587-8.59-1.587-12.727v-4.136c0-1.91 0-3.5.318-5.09.635 2.863 1.587 5.726 2.54 8.271v.319c3.49 9.227 7.617 15.908 10.474 20.044l.318.318c.635.637.952 1.273 1.27 1.91.317.318.634.636.634.954l.635.636.318.318v-.636c0-.636-.318-1.273-.318-1.909-.317-2.227-.635-4.454-.952-6.363 0-1.273-.318-2.864-.318-4.136v-7c0-1.591.318-3.5.318-5.09.317.954.635 2.226.952 3.18.318.637.635 1.592.952 2.228v.318l.318.318c.317.955.635 1.91.952 2.546.635 1.59 1.27 3.181 2.222 4.454.952 1.91 1.587 3.5 2.54 4.773.634.954.952 1.59 1.27 2.227.634.954 1.269 1.909 1.586 2.545.635.636.953 1.273 1.27 1.91l.318.317c.317.637.952.955 1.27 1.591.317.318.634.636.634.955.635.636.952 1.272 1.27 1.272l.317.318v-.954c.318-2.545.635-5.409.953-7.954v-.955c.317-3.181.952-6.045 1.587-8.908 0-.319 0-.637.317-1.273v-.318c0-.318 0-.637.318-.955 0-.636.317-.954.317-1.59.317-2.228.952-4.455 1.27-6.682.317-1.91.635-3.818.952-5.41v-.635c0-.319 0-.637.317-.637v-.636c0-.318.318-.955.318-1.273 0-.318 0-.636.317-.954 0-.637.318-1.273.318-1.591 0-.318.317-.955.317-1.273 0-.636.318-1.272.318-1.59 0-.319 0-.637.317-.955 0-.318 0-.636.317-.636 0-.637.318-.955.318-1.273v-.955l1.587.955m384.723 132.994c4.444-1.59 8.254-2.863 11.428-4.136 6.031-2.545 9.205-4.454 9.205-5.09-.317-.637-3.809-.319-10.157 1.272-3.175.636-6.984 1.273-11.745 2.546-2.222.636-4.762.954-7.301 1.272-2.54.318-5.396.955-8.253 1.273-5.714.954-12.063 1.59-19.046 2.227l-10.475.955c-3.492.318-7.301.318-11.11.636-15.237.318-32.06-.318-49.202-3.5-8.888-1.59-21.267-5.727-29.838-10.5l-.317-.318c5.079-18.135 24.124-20.68 24.124-20.68l-.635-.319h-.952c-2.857-.318-5.079-.636-7.3-.954-1.588-.319-2.858-.319-3.81-.637-.952 0-1.904-.318-2.222-.318-11.427-.636-17.776 8.909-19.68 13.045l-.953 1.91c-1.587 3.817-2.857 7.953-3.174 12.726-.635 8.59 1.587 17.817 8.253 25.771 4.444 5.41 12.062 10.182 21.903 14-8.57-5.409-16.19-15.909-16.507-32.135 9.84 4.136 20.95 6.681 29.521 8.272 18.094 3.5 35.87 3.818 51.424 2.864 3.809-.318 7.935-.637 11.427-.955 3.81-.636 7.301-.954 10.793-1.272 6.983-1.273 13.014-2.228 19.045-3.5 2.857-.637 5.714-1.273 8.254-2.227 2.856-.637 5.078-1.273 7.3-2.228"/></g><path d="M693.27 482.117c9.541.318 15.902 3.18 20.355 7.63a53.421 53.421 0 001.272-14.942c-.318-6.04-1.59-11.445-3.498-15.578-.636-2.543-4.453-9.219-9.224-8.901-6.043.318-10.496 12.08-9.542 26.069 0 1.907.318 3.815.637 5.722m15.902 35.924c0 2.543.955 4.769 2.227 5.723 2.226 1.271 5.089-1.272 6.361-5.405 0-.318.318-.636.318-.954.954-3.815 0-7.63-2.226-8.583-2.227-1.272-5.09 1.271-6.362 5.404 0 1.272-.318 2.544-.318 3.815m-43.255 6.994c.954 1.59 2.544 3.18 4.452 4.451 4.135 2.543 8.588 2.861 11.132.636l.955-.954c.954-1.907.636-4.45-.955-6.994-.954-1.59-2.544-3.18-4.452-4.133-4.135-2.543-8.588-2.861-10.814-.954-.318.318-.637.636-.955 1.272-.954 1.59-.636 4.133.637 6.676m152.985 146.24a151.885 151.885 0 01-20.355 16.213c-32.76 22.254-78.56 39.74-111.003 43.872-24.49 3.815-48.344 4.45-69.018 1.907-12.086-1.59-22.582-4.132-31.806-7.63-9.86-3.814-17.493-8.583-21.946-13.988-6.68-7.947-8.588-17.485-8.27-25.75.319-4.451 1.273-8.902 3.181-12.717l.954-1.907c2.227-4.133 8.27-13.988 19.72-13.035.318 0 1.272 0 2.226.318.954 0 2.545.318 3.817.636 2.226.318 4.453.636 7.315.954h.954c31.488 3.815 61.704 3.497 90.329-.954 41.666-6.358 80.15-21.3 114.5-44.508 1.91-1.271 3.5-2.543 5.408-3.815l18.765-27.976c-56.932 51.82-119.59 66.762-167.298 69.623-26.081 1.59-47.709-.318-61.385-2.226-.637 0-.955 0-1.273-.317-4.134-.636-7.315-.954-9.86-1.272-1.272 0-2.226-.318-2.862-.318-3.499-.318-6.997.318-10.178 1.272-6.361 1.907-12.086 6.358-16.22 12.08-5.09 6.994-8.27 16.532-8.27 26.069a50.1 50.1 0 006.043 23.843c.318.318.318.636.636.954.636.954.954 1.59 1.59 2.543.636.954 1.59 2.226 2.545 3.18 9.86 12.398 31.487 21.3 60.113 25.115 19.401 2.543 41.983 2.225 66.474-1.272 72.517-13.034 106.867-36.56 122.77-52.773 1.272-1.272 2.227-2.226 3.18-3.497 5.726-6.677 8.27-11.763 9.224-13.67v-.319c.319-.635.319-.953.319-.953l-.319.318" fill="#664F44"/><path d="M588.016 420.147c-2.22-1.274-4.757-2.228-7.294-2.865a151.213 151.213 0 00-5.074-.955c-.635 0-1.269 0-1.903-.318-8.563-.637-15.857.636-15.857.636-1.586.319-3.172.637-4.44 1.274-11.418 3.501-19.346 9.549-25.055 16.552-4.44 5.73-7.611 11.777-9.197 17.825-.317.637-.317.955-.317 1.592-.317 1.591-.952 3.183-1.269 4.456-.951 5.093-1.585 9.55-1.585 13.37 0 5.092.317 8.276.317 8.276 1.903-4.457 4.123-8.277 6.343-12.096 5.391-9.231 11.1-16.871 17.125-22.919 11.418-11.777 23.152-18.144 32.032-21.327 9.514-3.183 16.174-3.501 16.174-3.501m137.324-16.234l-.317-.637c-1.269-1.591-2.854-3.183-4.757-4.456-4.44-2.865-10.466-4.457-18.712-2.865 0 0-9.831 2.228-15.54 8.913 0 0 17.126-7.321 35.52 5.73 1.586 1.273 3.489 2.546 5.075 4.137 1.585 1.592 3.488 3.184 5.074 5.412 0 0-.634-7.958-5.392-14.961-.317-.637-.634-.955-.951-1.273" fill="#E9B784"/><path d="M590.687 531c6.531-1.912 13.373-3.824 21.148-5.736 1.245-6.055 1.556-13.384.623-21.351-2.178-18.483-10.264-32.824-18.35-31.868-8.086.956-12.75 16.89-10.574 35.373 1.244 9.56 3.732 17.846 7.153 23.582" fill="#664F44"/><path d="M553.925 115l-17.176 3.78 3.499 30.866-45.483-22.992L476 132.323l.318.315L531.66 195l.636-.315.637-.315c1.59-.945 3.498-2.205 5.089-3.15.636-.314 1.272-.63 1.908-1.26 2.544-1.574 5.089-3.149 7.633-4.409l-23.536-26.771 37.849 18.267c1.272-.63 2.226-1.26 3.499-1.89l-3.499-26.771 17.175 19.842h.318c1.59-.63 2.863-1.574 4.453-2.204l.636-.315.636-.315c.318 0 .636-.315.636-.315l1.909-.945s.318 0 .318-.315c1.908-.945 4.135-1.89 6.043-2.835L553.925 115" fill="#FFD250"/><path d="M536.15 119.662v-.951.95m0-.95l2.533-.634c-4.117-1.901-9.185-3.169-14.886-4.12-11.402-1.584-25.971 0-42.441 4.12-16.47 4.12-35.157 11.409-54.793 21.233-39.591 19.648-83.3 49.753-125.74 88.416-14.887 13.31-28.506 27.253-41.175 40.88l51.31 63.38c13.936-15.21 28.822-30.422 45.291-45.317 21.855-19.964 44.025-37.711 65.88-52.922 21.22-14.895 42.44-27.57 62.394-37.712l-8.868-40.563.317-22.817-.317-.317 18.687-5.704 36.423 18.697-.95-12.676 6.334-13.944" fill="#4D9ED7"/><path d="M536.188 119.318l-6.433 13.977.965 13.025 9.006 4.448-3.538-31.45zM523 159.663l38.599 18.743-14.796 8.26L523 159.662zm38.599-10.484l3.538 27.003 13.831-6.99-17.37-20.013z" fill="#132134"/><path d="M704.378 139.412h6.985c6.35 0 12.382.953 18.097 2.223.318 0 .635 0 .953.318h.317l.635.318H732c-.635-.318-1.27-.953-1.905-1.27-6.35-2.542-13.017-4.13-20.002-5.084-34.29-4.448-73.66 8.26-95.885 17.155-1.27.636-2.54.954-3.81 1.589-1.905.953-3.81 1.588-5.715 2.542-3.175 1.27-6.35 2.859-9.842 4.447-.635.318-.953.318-1.588.636-1.905.953-4.127 1.906-6.032 2.859 0 0-.318 0-.318.318l-1.905.953c-.317 0-.635.317-.635.317h-1.27l-.317.318c-1.588.635-2.858 1.27-4.445 2.224h-.318c-.317.318-.635.318-.952.635h-.318c-.317 0-.635.318-.635.318-2.222 1.27-4.445 2.224-6.667 3.495-1.587.953-3.175 1.588-4.762 2.541h-.318c-1.27.636-2.222 1.27-3.492 1.906-3.81 1.906-7.303 4.13-11.113 6.354-.317.318-.635.318-1.27.636-.317.317-.635.317-.952.635-.318.318-.635.318-.953.635l-.317.318c-2.54 1.589-5.08 2.86-7.62 4.448-.635.317-1.27.635-1.905 1.27-1.588.954-3.493 2.224-5.08 3.178l-.635.317-.635.318-14.288 9.53c-7.937 5.402-15.557 10.802-23.177 16.52-.953.636-1.905 1.59-2.857 2.225-20.003 14.931-39.053 31.134-57.468 47.654-19.367 17.79-38.1 35.9-55.562 54.326-9.525 9.53-17.78 18.108-24.13 25.097-13.335 14.297-20.637 23.192-20.32 23.51 0 0 1.27-.953 3.493-3.177-1.588 1.906-3.493 4.13-5.08 6.036 29.21-31.134 61.277-62.903 95.884-92.767 20.955-18.108 42.863-35.581 65.405-51.784 9.842-6.99 20.002-13.978 30.162-20.65 3.175-2.224 6.668-4.13 9.843-6.354 1.587-.953 3.175-1.906 5.08-2.86.952-.635 1.905-1.27 2.857-1.588 1.905-.953 3.493-2.223 5.398-3.177 1.587-.953 3.492-1.906 5.08-3.176.952-.636 1.905-.954 2.857-1.589l6.668-3.812c1.27-.636 2.54-1.589 3.81-2.224 4.127-2.224 8.254-4.448 12.7-6.672.317-.317.634-.317.952-.635l1.905-.953c.952-.318 1.587-.953 2.54-1.271.317-.318.635-.318.952-.635l1.905-.953s.318 0 .318-.318h.317c1.905-.953 3.81-1.906 5.398-2.542.317 0 .635-.317.952-.635l1.905-.953c2.223-.953 4.128-1.906 6.35-2.86.635-.317 1.27-.635 1.588-.952.317 0 .635-.318.952-.318.635-.318 1.27-.636 1.905-.636 2.54-.953 4.763-2.223 7.303-3.177 2.222-.953 4.127-1.906 6.35-2.859 12.065-5.083 23.177-9.213 33.654-12.708 19.685-5.4 37.148-8.895 52.388-9.53" fill="#FFF"/></g></svg>