<svg viewBox="0 0 1000 1000" xmlns="http://www.w3.org/2000/svg"><g fill-rule="nonzero" fill="none"><path d="M401.392 126c-41.22.03-74.578 33.513-74.548 74.77-.03 41.258 33.36 74.74 74.578 74.77H476v-74.739c.03-41.258-33.359-74.74-74.608-74.801.03 0 .03 0 0 0zm0 199.429H202.578c-41.219.03-74.608 33.512-74.578 74.77-.06 41.258 33.329 74.74 74.548 74.801h198.844c41.219-.03 74.608-33.513 74.578-74.77.03-41.289-33.36-74.77-74.578-74.801z" fill="#36C5F0"/><path d="M873 400.199c.03-41.258-33.362-74.74-74.584-74.77-41.223.03-74.615 33.512-74.585 74.77V475h74.585c41.222-.03 74.614-33.513 74.584-74.801zm-198.861 0V200.77c.03-41.227-33.332-74.709-74.554-74.77-41.223.03-74.615 33.513-74.585 74.77V400.2c-.06 41.258 33.332 74.74 74.554 74.801 41.223-.03 74.615-33.513 74.585-74.801z" fill="#2EB67D"/><path d="M599.578 874c41.219-.03 74.608-33.51 74.578-74.764.03-41.254-33.36-74.733-74.578-74.764H525v74.764c-.03 41.224 33.359 74.703 74.578 74.764zm0-199.442h198.844c41.219-.03 74.608-33.51 74.578-74.764.06-41.254-33.329-74.733-74.548-74.794H599.608c-41.219.03-74.608 33.51-74.578 74.764-.03 41.285 33.329 74.764 74.548 74.794z" fill="#ECB22E"/><path d="M128 599.77c-.03 41.258 33.362 74.74 74.584 74.77 41.223-.03 74.615-33.512 74.585-74.77V525h-74.585c-41.222.03-74.614 33.513-74.584 74.77zm198.861 0V799.2c-.06 41.258 33.332 74.74 74.554 74.801 41.223-.03 74.615-33.513 74.585-74.77V599.83c.06-41.257-33.332-74.74-74.554-74.8-41.253 0-74.615 33.482-74.585 74.74 0 0 0 .03 0 0z" fill="#E01E5A"/></g></svg>