<svg width="18" height="18" viewBox="0 0 18 18" fill="none" xmlns="http://www.w3.org/2000/svg">
<g clip-path="url(#clip0)">
<path d="M3.94955 7.32375C4.30047 6.26209 4.9777 5.33836 5.88464 4.68435C6.79158 4.03034 7.8819 3.67945 9.00005 3.68175C10.2676 3.68175 11.4136 4.13175 12.3136 4.86825L14.9326 2.25C13.3366 0.85875 11.2913 0 9.00005 0C5.45255 0 2.39855 2.0235 0.930054 4.9875L3.94955 7.32375Z" fill="#EA4335"/>
<path d="M12.03 13.5099C11.2125 14.0372 10.1745 14.3184 8.99998 14.3184C7.88629 14.3207 6.80009 13.9726 5.89516 13.3234C4.99024 12.6743 4.31244 11.7569 3.95773 10.7012L0.927734 13.0014C1.67117 14.5061 2.82169 15.7722 4.2486 16.6558C5.67552 17.5395 7.32164 18.0052 8.99998 18.0002C11.1997 18.0002 13.3012 17.2179 14.8755 15.7502L12.0307 13.5099H12.03Z" fill="#34A853"/>
<path d="M14.8755 15.7503C16.5217 14.2143 17.5905 11.9283 17.5905 9.00027C17.5905 8.46777 17.5087 7.89552 17.3865 7.36377H9V10.8415H13.827C13.5893 12.0108 12.9495 12.916 12.0308 13.51L14.8755 15.7503Z" fill="#4A90E2"/>
<path d="M3.95772 10.7008C3.77423 10.1525 3.68102 9.57801 3.68172 8.9998C3.68172 8.4133 3.77547 7.85006 3.94947 7.32356L0.929965 4.9873C0.312249 6.23432 -0.00618203 7.60819 -3.47294e-05 8.9998C-3.47294e-05 10.4398 0.333715 11.7973 0.927715 13.0011L3.95772 10.7008Z" fill="#FBBC05"/>
</g>
<defs>
<clipPath id="clip0">
<rect width="18" height="18" fill="white"/>
</clipPath>
</defs>
</svg>
