<svg width="24" height="24" viewBox="0 0 24 24" xmlns="http://www.w3.org/2000/svg"><g fill="none" fill-rule="evenodd"><path d="M0 0h24v24H0z"/><path d="M7.143 11.665a.5.5 0 01-.85-.298l-.524-4.709a.5.5 0 01.552-.552l4.71.523a.5.5 0 01.298.85L9.943 8.866l1.501 1.502a.5.5 0 010 .707l-.707.707a.5.5 0 01-.707 0L8.53 10.28l-1.386 1.385z" fill="#335EEA" opacity=".3"/><path d="M12.08 14.784l2.204-2.204a2 2 0 00.375-2.309l-.125-.25a2 2 0 01.374-2.308l2.733-2.733a.5.5 0 01.801.13l1.104 2.208a4.387 4.387 0 01-.822 5.065l-5.999 5.998a5.427 5.427 0 01-5.553 1.311l-2.415-.804a.5.5 0 01-.195-.828l2.65-2.652a2 2 0 012.31-.374l.25.125a2 2 0 002.308-.375z" fill="#335EEA"/></g></svg>