<svg viewBox="0 0 2761 991" xmlns="http://www.w3.org/2000/svg"><g fill="currentColor" fill-rule="nonzero"><path d="M301.69 714v-85.02c90.17 0 159.725-88.874 124.96-182.919a126.724 126.724 0 00-75.995-75.97 134.386 134.386 0 00-123.435 15.063c-36.204 24.9-57.938 65.926-58.198 109.856H84c0-141.7 137.841-253.768 288.538-207.38 65.73 20.64 117.208 72.11 137.841 137.823C556.758 576.178 444.68 714 301.69 714z"/><path d="M302.679 629.864h-85.112v-83.668h85.112v83.668zm-85.112 65.658h-64.475v-65.658h64.475v65.658zm-64.475-65.658H99v-54.056h54.092v54.056zm707.956-225.268c-24.495-16.744-56.733-25.84-92.854-25.84h-78.64v251.005h78.665c36.113 0 67.065-9.01 92.855-27.028a98.514 98.514 0 0032.237-39.897c7.768-16.744 11.6-37.338 11.6-59.224 0-21.886-3.858-42.48-11.6-57.932-7.768-19.198-18.073-32.066-32.263-41.084zM735.982 421.34h24.495c27.085 0 50.286 5.167 68.333 16.743 19.343 11.577 28.483 33.592 28.483 65.659 0 32.066-10.357 55.348-28.483 68.216-16.753 10.336-38.685 16.744-67.064 16.744h-25.764V421.34zm224.368-46.33a26.259 26.259 0 00-19.343 7.751 23.237 23.237 0 00-9.037 19.302c0 14.927 12.127 27.028 27.085 27.028 14.959 0 27.085-12.1 27.085-27.028a26.173 26.173 0 00-7.768-19.302c-3.858-5.168-10.358-7.752-18.126-7.752h.104zm-23.408 77.234h45.132v176.354h-44.95V452.244h-.182zm206.501 15.503c-12.947-11.576-28.483-19.302-45.132-19.302a79.884 79.884 0 00-60.617 25.84 89.533 89.533 0 00-24.495 63.074c0 24.47 7.768 46.33 23.304 63.074 15.536 16.744 36.095 24.47 60.617 24.47a71.463 71.463 0 0043.837-14.16v3.85c0 14.16-3.858 25.84-11.6 33.591-7.742 7.752-18.125 11.576-32.237 11.576-20.715 0-33.533-7.752-48.991-29.612l-31.072 29.612 1.294 1.292c6.448 9.018 16.753 18.088 29.648 27.028 12.895 8.94 29.649 12.92 48.991 12.92 27.085 0 47.722-7.752 63.18-24.47 15.459-16.718 24.496-37.338 24.496-64.366v-159.92h-43.786v15.503h2.59-.027zM1131.87 572.01c-7.768 9.018-18.126 12.92-31.072 12.92-12.947 0-23.305-3.85-31.073-12.92-7.768-9.07-11.6-20.671-11.6-34.754 0-14.082 4.117-25.813 11.885-34.831 7.768-9.018 18.126-12.92 31.072-12.92 12.947 0 23.305 3.85 31.073 12.92 7.768 9.07 11.6 20.671 11.6 34.754 0 14.082-3.858 25.84-11.6 34.754l-.285.077zm94.408-119.791h45.132v176.354h-45.417V452.244l.285-.026zm21.647-77.209a26.467 26.467 0 00-19.35 7.72 26.353 26.353 0 00-7.735 19.308c0 14.928 12.126 27.029 27.085 27.029 14.958 0 27.084-12.101 27.084-27.029a26.353 26.353 0 00-7.744-19.318 26.467 26.467 0 00-19.366-7.71h.026zm119.861 29.587H1324v47.648h-25.893v39.896h25.893v73.384c0 23.255 5.179 39.896 14.19 48.914 9.01 9.018 25.893 14.16 47.722 14.16 7.334.212 14.673-.22 21.931-1.292h2.59v-39.922l-15.536 1.292c-10.358 0-18.126-1.292-20.715-5.168-3.858-3.85-5.179-11.576-5.179-23.256v-66.82h41.274V453.51h-41.144l-1.347-48.914zm250.158-25.84h45.132v251.005h-45.08V378.91l-.052-.155zm495.24 188.086a149.432 149.432 0 01-21.931 20.671 44.581 44.581 0 01-23.305 6.434 44.06 44.06 0 01-32.108-14.29c-9.036-10.335-12.946-21.885-12.946-37.337 0-15.452 3.858-27.028 12.946-37.338a39.68 39.68 0 0132.238-14.16c14.19 0 29.648 9.018 42.543 24.47l29.648-28.424c-19.342-24.47-43.838-36.046-73.512-36.046-24.495 0-45.132 9.018-63.18 27.028a93.433 93.433 0 00-25.894 65.658c0 25.84 9.037 48.915 25.894 65.659a83.953 83.953 0 0063.18 27.028c32.238 0 58.028-14.16 76.076-39.896l-29.649-29.613v.156zm181.825-88.966a67.868 67.868 0 00-25.893-20.671 84.304 84.304 0 00-37.39-7.752c-24.496 0-45.133 9.018-60.618 27.028a103.217 103.217 0 00-21.931 65.658c0 27.028 7.768 48.914 24.495 65.658s37.39 25.84 64.475 25.84c29.648 0 54.17-11.577 73.512-36.047l1.294-1.291-29.648-28.424c-2.59 3.85-6.447 6.434-10.357 10.336a39.308 39.308 0 01-12.947 9.018 42.434 42.434 0 01-21.932 5.168 49.706 49.706 0 01-31.072-10.336c-7.768-6.434-11.6-15.504-12.947-27.028h118.644v-16.744a95.836 95.836 0 00-5.178-33.591 58.32 58.32 0 00-12.947-27.028l.44.206zm-96.712 41.292a45.556 45.556 0 0111.6-20.672 31.108 31.108 0 0123.304-9.018c10.358 0 19.343 2.584 24.495 9.018 5.18 5.168 7.769 12.92 9.037 20.672h-68.436zm268.231-52.79c-12.947-11.576-32.237-16.744-55.438-16.744a113.07 113.07 0 00-41.223 9.044c-11.6 6.434-23.304 15.503-29.648 28.423l28.483 27.028c11.6-19.302 24.496-25.84 42.543-25.84a36.041 36.041 0 0123.305 7.752 23.237 23.237 0 019.036 19.302v9.018a98.92 98.92 0 00-32.237-5.167c-21.923 0-39.98 5.167-54.17 15.503-14.19 10.336-20.714 25.84-20.714 43.772 0 16.744 5.178 29.612 16.753 39.896 11.574 10.285 25.893 14.16 42.543 14.16s32.238-6.434 47.722-18.087v14.16h43.838v-113.28c0-20.672-6.448-37.338-20.715-48.914l-.078-.026zm-78.587 95.27c5.179-3.85 11.6-5.168 20.715-5.168a109.914 109.914 0 0133.532 6.434v16.744a57.037 57.037 0 01-38.685 14.16c-7.768 0-14.19-1.292-18.125-5.168-3.936-3.876-6.448-7.752-6.448-12.92a21.106 21.106 0 019.037-14.16l-.026.078zm270.717-92.686c-12.946-14.16-29.648-20.672-51.58-20.672-18.056 0-32.237 5.168-42.543 15.504v-10.336h-43.863v176.354h45.132v-97.776c0-12.92 2.59-24.47 9.037-32.17a32.5 32.5 0 0125.894-11.576 28.353 28.353 0 0123.304 10.335 46.445 46.445 0 019.037 28.424v102.97H2678V526.894c-1.295-24.462-7.742-43.772-19.343-57.932zm-1096.1-2.584c-12.947-11.576-32.238-16.744-55.439-16.744a113.07 113.07 0 00-41.274 9.018c-11.6 6.434-23.304 15.503-29.648 28.423l28.483 27.028c11.6-19.302 24.495-25.84 42.543-25.84a36.041 36.041 0 0123.304 7.753 23.237 23.237 0 019.037 19.302v9.018a98.92 98.92 0 00-32.237-5.168c-21.924 0-39.98 5.168-54.17 15.503-14.19 10.336-20.715 25.84-20.715 43.772 0 16.744 5.18 29.612 16.754 39.897 11.574 10.284 25.893 14.16 42.543 14.16s32.237-6.434 47.722-18.088v14.16h43.837V515.318c0-20.672-7.768-37.338-20.715-48.914l-.025-.026zm-79.934 95.27c5.179-3.85 11.6-5.168 20.715-5.168a109.914 109.914 0 0133.532 6.434v16.744a57.037 57.037 0 01-38.685 14.16c-7.768 0-14.19-1.292-18.125-5.168-3.936-3.876-6.448-7.752-6.448-12.92a38.336 38.336 0 019.037-14.16l-.026.078zm341.821 72.014c-52.18.021-99.235-31.33-119.219-79.432-19.983-48.103-8.96-103.481 27.931-140.309 36.89-36.828 92.38-47.851 140.591-27.929 48.211 19.922 79.647 66.866 79.647 118.938-.255 70.971-57.83 128.449-128.95 128.732zm0-213.666c-33.918-.052-64.527 20.294-77.548 51.548s-5.89 67.258 18.068 91.218c23.959 23.96 60.023 31.155 91.37 18.228 31.348-12.926 51.803-43.427 51.824-77.274a83.399 83.399 0 00-24.495-59.207 83.751 83.751 0 00-59.322-24.461l.103-.052z"/></g></svg>