<svg viewBox="0 0 2761 991" xmlns="http://www.w3.org/2000/svg"><g fill="#869ab8" fill-rule="nonzero"><path d="M359.679 335.082c-28.395 0-36.914 12.475-36.914 40.26v45.93h76.1l-7.384 74.848h-68.716v226.248h-91.432V496.12H170V421.84h61.333v-44.796c0-75.983 30.667-115.675 115.284-115.675 17.605 0 35.778 1.134 53.383 3.402v70.312M404.567 562.732c0-83.884 39.657-147.364 123.505-147.364 45.323 0 73.084 23.238 86.68 52.71V422.17H702v300.964h-87.814V677.79c-12.464 28.906-41.357 51.578-86.68 51.578-83.282 0-123.506-62.914-123.506-147.365l.567-19.27zm91.212 20.405c0 44.776 16.43 74.816 58.92 74.816 37.392 0 56.088-27.206 56.088-70.282v-30.607c0-43.075-19.262-70.281-56.087-70.281-42.49 0-58.92 29.473-58.92 74.816v21.538zM891.565 415.368c35.201 0 69.267 7.368 87.435 20.404l-20.44 64.614c-18.735-9.069-39.742-13.603-60.75-13.603-49.394 0-70.969 28.34-70.969 77.083v17.57c0 48.744 21.575 77.083 70.97 77.083 21.007 0 42.014-5.1 60.75-14.17L979 708.964c-18.168 12.47-51.666 20.405-87.435 20.405C784.26 729.368 736 672.122 736 579.736v-14.17c0-92.386 48.26-150.198 155.565-150.198M991 582.935V556.26c0-85.703 48.774-141.892 148.022-141.892 93.577 0 134.978 56.756 134.978 140.756v48.244h-191.691c1.701 41.432 20.416 59.594 70.891 59.594 32.894 0 65.788-6.243 96.98-18.162l16.447 62.433c-23.82 12.486-73.16 22.135-116.83 22.135C1034.103 728.8 991 671.476 991 582.935m91.309-39.73h110.024v-7.378c0-32.919-13.044-59.027-53.311-59.027-40.834 0-56.713 26.108-56.713 66.406M1611.434 581.834c0 83.98-40.189 147.534-123.962 147.534-45.283 0-76.981-22.698-89.434-51.637v45.395H1312V270.312l91.132-7.944v201.44c13.019-26.67 42.453-48.232 84.906-48.232 83.207 0 123.962 62.985 123.962 147.533l-.566 18.725zm-91.132-20.995c0-42.558-16.415-74.334-60-74.334-37.359 0-57.17 26.67-57.17 69.795v31.776c0 43.125 20.377 69.795 57.17 69.795 43.585 0 60-31.777 60-74.334v-22.698zM1642 579.033v-15.33c0-86.876 49.267-149.335 149.5-149.335S1941 476.827 1941 563.702v15.331c0 86.875-49.267 149.335-149.5 149.335S1642 666.476 1642 579.033zm208.394-21.577c0-39.746-16.422-71.544-58.894-71.544-42.472 0-58.894 31.798-58.894 71.544v28.39c0 39.748 16.422 71.545 58.894 71.545 42.472 0 58.894-31.797 58.894-71.544v-28.39zM1973 579.033v-15.33c0-86.876 49.267-149.335 149.5-149.335S2272 476.827 2272 563.702v15.331c0 86.875-49.267 149.335-149.5 149.335S1973 666.476 1973 579.033zm208.394-21.577c0-39.746-16.422-71.544-58.894-71.544-42.472 0-58.894 31.798-58.894 71.544v28.39c0 39.748 16.422 71.545 58.894 71.545 42.472 0 58.894-31.797 58.894-71.544v-28.39zM2396.645 564.732l90.079-144.027h96.31l-94.044 149.13L2587 722.368h-96.877l-93.478-147.43v147.43H2306V269.873l90.645-8.505"/></g></svg>