<svg viewBox="0 0 2761 991" xmlns="http://www.w3.org/2000/svg"><path d="M2140.629 749.008c29.915 2.896 59.815 6.007 89.644 9.225l65.859-162.412 62.6 177.393a7894.176 7894.176 0 0196.232 12.643l-109.75-311.073L2455 204.021h-92.981l-.967 1.33-59.307 146.273-52.068-147.581h-91.807l94.779 268.625-112.013 276.34h-.007zm-69.432-6.364V204.02h-91.77v531.064c30.609 2.36 61.233 4.892 91.77 7.552v.007zm-689.374-30.12c24.774 0 49.52.186 74.222.386V515.03h110.244v-84.267h-110.237V288.388h126.97v-84.367h-219.099v508.575c5.95 0 11.929-.093 17.9-.072zm-284.928 5.149a8147.87 8147.87 0 0191.82-2.746V288.402h85.779v-84.36h-263.377v84.36h85.792v429.27h-.014zm-701.862 56.793V453.568l108.662 307.94a7954.136 7954.136 0 01100.442-10.605V204.03h-88.055v332.396L398.828 204.03H307V786h.551c29.092-4.019 58.284-7.837 87.482-11.534zM922.625 288.38v-84.352h-219.12v537.757a7890.227 7890.227 0 01218.941-15.81v-84.432a7642.138 7642.138 0 00-126.805 8.445V515.066h110.244v-84.317H795.64V288.38h126.984zm842.27 349.13V204h-92.171v513.98c73.32 2.69 146.352 6.436 219.142 11.156v-84.481a8007.367 8007.367 0 00-126.97-7.151v.007z" fill="currentColor" fill-rule="nonzero"/></svg>