<svg xmlns:dc="http://purl.org/dc/elements/1.1/" xmlns:cc="http://creativecommons.org/ns#" xmlns:rdf="http://www.w3.org/1999/02/22-rdf-syntax-ns#" xmlns:svg="http://www.w3.org/2000/svg" xmlns="http://www.w3.org/2000/svg" xmlns:sodipodi="http://sodipodi.sourceforge.net/DTD/sodipodi-0.dtd" xmlns:inkscape="http://www.inkscape.org/namespaces/inkscape" width="132.25603mm" height="26.456337mm" viewBox="0 0 468.62372 93.742926" id="svg2" version="1.1" inkscape:version="0.91 r13725" sodipodi:docname="Twitter logo.svg">
  <title id="title4225">Twitter logo</title>
  <defs id="defs4"/>
  <sodipodi:namedview id="base" pagecolor="#ffffff" bordercolor="#666666" borderopacity="1.0" inkscape:pageopacity="0.0" inkscape:pageshadow="2" inkscape:zoom="1.4142136" inkscape:cx="234.00027" inkscape:cy="54.652165" inkscape:document-units="px" inkscape:current-layer="g4147" showgrid="false" fit-margin-top="0" fit-margin-left="0" fit-margin-right="0" fit-margin-bottom="0" inkscape:window-width="1366" inkscape:window-height="705" inkscape:window-x="-8" inkscape:window-y="-8" inkscape:window-maximized="1"/>
  <metadata id="metadata7">
    <rdf:RDF>
      <cc:Work rdf:about="">
        <dc:format>image/svg+xml</dc:format>
        <dc:type rdf:resource="http://purl.org/dc/dcmitype/StillImage"/>
        <dc:title>Twitter logo</dc:title>
        <cc:license rdf:resource="http://creativecommons.org/licenses/by-sa/3.0/"/>
        <dc:source>http://www.dafont.com/forum/attach/orig/7/1/71172.png</dc:source>
        <dc:date>18/11/2016</dc:date>
        <dc:creator>
          <cc:Agent>
            <dc:title>Twitter, Inc.</dc:title>
          </cc:Agent>
        </dc:creator>
        <dc:publisher>
          <cc:Agent>
            <dc:title>CMetalCore</dc:title>
          </cc:Agent>
        </dc:publisher>
      </cc:Work>
      <cc:License rdf:about="http://creativecommons.org/licenses/by-sa/3.0/">
        <cc:permits rdf:resource="http://creativecommons.org/ns#Reproduction"/>
        <cc:permits rdf:resource="http://creativecommons.org/ns#Distribution"/>
        <cc:requires rdf:resource="http://creativecommons.org/ns#Notice"/>
        <cc:requires rdf:resource="http://creativecommons.org/ns#Attribution"/>
        <cc:permits rdf:resource="http://creativecommons.org/ns#DerivativeWorks"/>
        <cc:requires rdf:resource="http://creativecommons.org/ns#ShareAlike"/>
      </cc:License>
    </rdf:RDF>
  </metadata>
  <g inkscape:label="Capa 1" inkscape:groupmode="layer" id="layer1" transform="translate(-50.461389,-83.56061) translate(394.28571,-355.71429)">
    <g id="g4147" transform="scale(0.9, 0.9)">
      <path style="fill:#869ab8;fill-opacity:1" d="m -318.57032,582.03156 c -9.12772,-2.45908 -17.50397,-9.39343 -21.78933,-18.03843 -3.28416,-6.62525 -3.28004,-6.57892 -3.2878,-37.02858 -0.38908,-26.33977 -0.24033,-27.18968 1.51554,-29.72998 3.72933,-6.2192 11.95325,-7.54732 17.3452,-2.80113 3.78564,3.33224 4.08657,4.46384 4.08657,15.36697 l 0,9.45539 15.90437,0 c 9.72842,0 16.83068,0.19866 18.28983,0.51158 8.29995,1.78001 11.45075,11.70557 5.688,17.91813 -0.67912,0.73214 -2.07798,1.78616 -3.10858,2.34228 -1.80873,0.97599 -2.47992,1.01608 -19.32372,1.15434 l -17.4499,0.14327 0,4.21672 c 0,6.133 0.63611,8.13956 3.48285,10.9863 3.32424,3.32426 4.21167,3.48083 19.79594,3.49316 12.09042,0.009 13.17784,0.0789 15.13441,0.96448 7.42256,3.35995 9.27173,12.3061 3.79853,18.37701 -3.19923,3.54859 -3.41034,3.58418 -21.13131,3.56395 -13.83162,-0.0157 -16.07961,-0.12201 -18.95061,-0.89546 z m 70.82377,0.20125 c -7.20673,-1.7462 -14.64448,-7.22164 -19.19049,-14.12745 -4.18936,-6.36399 -5.006,-10.84181 -5.02756,-27.567 -0.0186,-14.42365 0.27113,-16.24016 3.04585,-19.09717 2.56834,-2.64456 4.20482,-3.33007 7.98321,-3.34416 2.88533,-0.0114 3.61368,0.17171 5.60906,1.40535 1.4199,0.87789 2.83305,2.29045 3.7109,3.70934 1.75744,3.04581 1.43515,4.32334 1.65196,16.85196 0.22939,14.25948 0.25693,14.59687 1.33266,16.32712 3.63371,5.84451 11.14739,6.70578 16.13145,1.84909 2.87746,-2.80394 3.14786,-4.45137 3.14786,-19.17851 0,-12.10967 0.0545,-12.92483 0.98977,-14.78837 1.87359,-3.73339 4.59013,-5.70952 8.60533,-6.25986 4.29661,-0.58894 8.9302,1.94379 11.15013,6.09463 0.98942,1.84998 1.04881,2.60931 1.2721,16.2643 -0.0798,11.35959 0.45459,14.68396 1.52648,16.27476 3.42807,5.17581 10.63392,6.28916 15.13371,2.33829 3.2251,-2.8317 3.2233,-2.82204 3.4886,-18.64891 0.22774,-13.58524 0.2903,-14.38326 1.2721,-16.22844 4.12093,-7.74475 14.55264,-8.23291 19.08797,-0.89325 2.93375,4.06719 1.64963,12.67399 1.64963,18.22416 0.2129,7.30346 -0.21561,16.66834 -1.49265,19.55464 -3.47428,9.80617 -11.21265,17.59492 -20.52233,20.6559 -4.22302,1.38849 -13.52888,1.72173 -17.72191,0.63458 -4.04241,-1.0481 -7.54064,-2.65366 -10.86974,-4.98891 l -2.79475,-1.96038 -2.79429,1.96007 c -3.37911,2.37031 -6.79954,3.97575 -10.53795,4.94617 -3.48451,0.90453 -12.08918,0.90018 -15.8371,-0.008 z m 97.29296,0.0683 c -2.13405,-0.92928 -4.7992,-3.43861 -5.96398,-5.61534 -1.01815,-1.90267 -1.02642,-2.11277 -1.02642,-26.04353 0,-23.02829 0.0419,-24.20966 0.9192,-25.97906 3.64804,-7.35678 13.06729,-9.01253 18.77885,-3.30094 3.55219,3.55214 3.54227,3.4643 3.39006,30.03688 -0.13139,22.93501 -0.15267,23.40327 -1.14684,25.24231 -1.30818,2.41988 -3.68413,4.68113 -5.88168,5.59772 -2.12508,0.88632 -7.09791,0.92031 -9.06919,0.062 z m 49.15942,-0.26376 c -10.41345,-2.73005 -19.47921,-10.95676 -23.30734,-21.15032 -2.06585,-5.50088 -2.22922,-8.30325 -2.07194,-35.54129 0.14507,-25.12333 0.16354,-25.56064 1.15852,-27.40455 4.96179,-9.19523 18.54261,-8.03121 21.48812,1.84174 0.49696,1.6657 0.68924,4.69203 0.68924,10.84833 l 0,8.5382 11.12577,0.16954 c 10.28744,0.15676 11.26697,0.24506 12.9996,1.17144 8.14231,4.35347 8.17932,15.1548 0.0668,19.48973 -1.81894,0.97196 -2.64047,1.04672 -13.10474,1.19253 l -11.16415,0.1556 0.15548,5.46676 c 0.18145,6.37962 0.9081,8.29163 4.07332,10.71814 2.77201,2.12505 4.51726,2.47194 12.47805,2.48007 6.38761,0.006 7.24223,0.10747 9.39512,1.11 8.99739,4.18967 8.98792,16.87574 -0.0157,20.96579 -2.78296,1.26418 -19.08083,1.22903 -23.96617,-0.0517 z m 59.63938,0.0225 c -11.796754,-3.22674 -21.481916,-13.13668 -24.536803,-25.10624 -0.751002,-2.94252 -0.833973,-5.91252 -0.837222,-29.96811 0.178144,-24.96963 -1.060848,-23.99326 1.27767,-29.1322 2.692454,-5.10649 8.2492,-7.35656 14.133074,-5.72293 2.452834,0.68106 6.579808,4.80802 7.260837,7.26084 0.283471,1.02097 0.509069,5.81419 0.510525,10.84707 l 0.0028,9.01774 9.539364,0 c 10.9262,0 13.827274,0.4047 16.45982,2.29609 5.699888,4.09523 5.829709,13.27175 0.24499,17.31731 -2.786303,2.01841 -5.421221,2.40393 -16.429701,2.40393 l -9.814473,0 0,4.24287 c 0,5.58828 0.641441,7.93778 2.853043,10.45031 3.015368,3.42563 4.133894,3.75216 13.815701,4.03327 8.427266,0.24465 8.482643,0.25322 10.774436,1.66811 2.624398,1.62021 5.052016,5.20149 5.523167,8.1479 0.6819,4.2644 -1.552193,9.06647 -5.405259,11.61841 l -1.958718,1.29728 -10.107571,0.10153 c -8.628503,0.0867 -10.575565,-0.0265 -13.305643,-0.7732 z m 58.475612,0.21182 C 9.9723269,580.42262 4.9258949,577.38319 -0.01369813,572.13238 -6.0136101,565.75444 -8.7191061,558.72463 -8.7017781,549.55778 c 0.01062,-5.59964 0.969517,-9.97702 3.200225,-14.60856 2.356274,-4.89227 4.94030697,-8.08249 8.746933,-10.79884 11.0838981,-7.90929 30.7850431,-8.40353 43.1946691,-1.08363 4.442139,2.62023 9.061313,7.57907 11.312122,12.1439 4.551321,9.23049 4.09323,17.59104 -1.112777,20.30912 -1.801189,0.94039 -2.640906,0.98342 -21.665987,1.11005 l -19.792174,0.13173 0,1.22904 c 0,1.91593 3.05044,4.51256 6.407909,5.4546 2.288557,0.64215 5.050213,0.78288 15.405923,0.78501 7.006852,0 13.371107,0.21193 14.312215,0.47333 8.063968,2.23995 9.680475,12.92032 2.584895,17.07862 -2.298586,1.55362 -3.685768,1.16315 -18.374361,1.15285 -12.178237,-0.0229 -16.952864,-0.19233 -18.696992,-0.66325 z M 37.415575,540.6877 c -0.882124,-2.95572 -3.410332,-4.70541 -8.033941,-5.56013 -4.91818,-0.90917 -11.794512,1.12512 -13.121083,3.88173 -0.58414,1.21385 -1.142105,2.59571 -1.142105,2.59571 0,0 4.09264,0.13672 11.351947,0.13672 l 11.259758,0 z m 35.351117,41.37628 c -2.414077,-1.31178 -4.985161,-4.3582 -5.597536,-6.63237 -0.358019,-1.32959 -0.472924,-6.53051 -0.355073,-16.07111 0.171664,-13.89641 0.193239,-14.16238 1.456146,-17.95347 3.326535,-9.9859 12.221011,-18.26847 22.566292,-21.01386 3.803043,-1.00925 21.359539,-1.49284 25.189179,-0.69384 5.31814,1.10951 8.77372,5.21344 8.77372,10.4198 0,4.44033 -2.01752,7.87643 -5.79749,9.87387 -1.77943,0.94033 -2.80131,1.04043 -12.94066,1.26772 -10.513314,0.23569 -11.088164,0.2962 -12.775396,1.3452 -2.227044,1.38461 -3.850817,3.51963 -4.508776,5.92839 -0.308756,1.13032 -0.512883,6.71654 -0.514457,14.07876 -0.0027,12.20195 -0.0027,12.2055 -1.220449,14.64881 -0.822283,1.65008 -1.925391,2.93372 -3.396291,3.9521 -1.912846,1.32437 -2.606832,1.5236 -5.691859,1.63397 -2.760984,0.0987 -3.871894,-0.0692 -5.18735,-0.78397 z M -151.02863,511.01573 c -7.4366,-3.70581 -8.78827,-13.49338 -2.61229,-18.91594 2.40589,-2.11239 4.34144,-2.82489 7.67405,-2.82489 4.66002,0 8.2799,2.17727 10.37289,6.23905 5.00461,9.71218 -5.6264,20.38944 -15.43465,15.50178 z" id="path4223" inkscape:connector-curvature="0" sodipodi:nodetypes="csccsscssssscssccsscccsssccccssssssccssscccssscsscccsssssscccssssscsssscsscsscccscccsccsssscsssssscscccsssssssscscccccccssscscssssssssssssscssssssss"/>
    </g>
  </g>
</svg>