<svg width="24" height="24" viewBox="0 0 24 24" xmlns="http://www.w3.org/2000/svg"><g fill="none" fill-rule="evenodd"><path d="M0 0h24v24H0z"/><path d="M9.379 12.914l.707.707a1 1 0 010 1.415l-4.95 4.95a1 1 0 01-1.414 0l-.707-.708a1 1 0 010-1.414l4.95-4.95a1 1 0 011.414 0z" fill="#335EEA" opacity=".3"/><path d="M15.212 13.538a4.5 4.5 0 004.5-4.5c0-2.486-2.014-7-4.5-7-2.485 0-4.5 4.514-4.5 7a4.5 4.5 0 004.5 4.5z" fill="#335EEA"/><path d="M17.625 5.507c.958 1.112-.092 3.82-1.135 4.863a2.73 2.73 0 01-3.651.189l4.786-5.052z" fill="#FFF"/></g></svg>