<svg viewBox="0 0 2761 991" xmlns="http://www.w3.org/2000/svg"><path d="M326.558 759C247.442 759 170 702.045 170 573.476c0-128.987 77.442-185.105 156.558-185.105 38.93 0 69.489 10.051 91.256 24.29l-23.86 52.349c-14.652-10.47-36.42-17.17-58.187-17.17-47.72 0-91.255 37.69-91.255 124.799 0 87.108 44.79 125.636 91.255 125.636 21.768 0 43.535-6.7 58.186-17.17l23.861 53.605C395.209 749.787 365.488 759 326.558 759zm272.512 0c-100.884 0-156.558-79.989-156.558-185.524s55.255-185.105 156.558-185.105c100.883 0 156.558 79.151 156.558 185.105C755.628 679.011 699.953 759 599.07 759zm0-313.255c-56.093 0-83.721 50.255-83.721 126.894 0 76.638 27.628 127.312 83.72 127.312 56.094 0 83.722-50.674 83.722-127.312 0-76.639-27.628-126.894-83.721-126.894zm253.674-114.748c-23.86 0-43.116-18.427-43.116-41.042 0-22.614 19.256-41.041 43.116-41.041s43.116 18.427 43.116 41.041c0 22.615-19.674 41.042-43.116 41.042zm-36.418 64.493h72.837v355.972h-72.837V395.49zm358.325 355.972V514.008c0-41.46-25.116-67.425-74.511-67.425-26.373 0-50.652 4.606-65.303 10.47V751.88h-72V413.498c35.582-14.657 81.21-25.127 136.884-25.127 99.628 0 147.767 43.554 147.767 118.936v244.574h-72.837v-.42zm264.14 7.538c-46.047 0-91.675-11.307-119.721-25.127V233h72v171.704c17.163-7.957 44.79-14.658 69.488-14.658 91.675 0 154.047 66.169 154.047 175.054 0 134.432-69.489 193.9-175.814 193.9zM1448 446.583c-19.674 0-43.116 4.606-56.93 11.726v233.685c10.465 4.606 30.977 9.213 51.488 9.213 57.349 0 99.628-39.785 99.628-130.662.419-77.895-36.419-123.962-94.186-123.962zM1810.512 759c-102.14 0-154.047-41.46-154.047-111.817 0-99.253 105.488-116.842 213.07-122.705v-22.615c0-44.81-29.721-60.724-75.349-60.724-33.488 0-74.512 10.47-98.372 21.777l-18.419-49.418c28.465-12.563 76.605-25.127 124.326-25.127 84.977 0 136.884 33.084 136.884 121.03v224.472c-25.535 13.82-77.86 25.127-128.093 25.127zm59.441-186.361c-72.837 3.769-145.255 10.05-145.255 73.288 0 37.69 28.883 60.724 83.72 60.724 23.024 0 50.233-3.769 61.535-9.213v-124.8zM2101.023 759c-41.442 0-84.976-11.307-110.93-25.127l24.28-55.28c18.418 11.307 57.348 23.033 84.557 23.033 38.93 0 64.884-19.265 64.884-48.999 0-32.246-27.21-44.81-63.21-58.211-47.72-18.008-100.883-39.785-100.883-106.373 0-58.63 45.628-99.672 124.744-99.672 43.116 0 78.698 10.47 103.814 25.127l-22.605 50.255c-15.907-10.05-47.72-20.94-73.255-20.94-37.675 0-58.605 19.684-58.605 45.649 0 32.247 26.372 43.554 61.535 56.955 49.395 18.427 104.232 38.948 104.232 108.467C2239.163 717.12 2190.186 759 2101.023 759zm489.35-187.199l-236.513 33.084c7.117 64.075 48.977 96.322 108.838 96.322 35.581 0 74.093-8.795 98.372-21.777l20.93 54.024c-27.628 14.657-75.349 25.127-124.326 25.127-112.186 0-174.976-72.032-174.976-185.524 0-108.885 60.697-185.105 160.325-185.105 92.512 0 147.35 60.725 147.35 156.628.836 8.794.836 18.008 0 27.221zm-147.768-130.662c-55.256 0-91.675 42.297-92.93 116.423l172.465-23.87c-.838-61.982-32.233-92.553-79.535-92.553z" fill="currentColor" fill-rule="nonzero"/></svg>