<svg viewBox="0 0 2761 991" xmlns="http://www.w3.org/2000/svg"><g fill="currentColor" fill-rule="nonzero"><path d="M520.761 441.458c-19.134 0-34.239 16.481-34.239 37 0 20.518 15.441 37 34.239 37 19.134 0 34.239-16.482 34.239-37 0-20.519-15.441-37-34.239-37zm-122.522 0c-19.134 0-34.239 16.481-34.239 37 0 20.518 15.441 37 34.239 37 19.134 0 34.239-16.482 34.239-37 .336-20.519-15.105-37-34.239-37z"/><path d="M684.2 163.458H235.625c-37.827 0-68.625 30.805-68.625 68.643v448.694c0 37.838 30.798 68.643 68.625 68.643H615.24l-17.742-61.276 42.849 39.511 40.506 37.168 72.307 62.617V232.1c-.334-37.838-31.132-68.643-68.96-68.643zM554.984 597.083s-12.051-14.398-22.094-26.787c43.853-12.39 60.591-39.512 60.591-39.512-13.725 9.04-26.78 15.403-38.497 19.756-16.738 7.032-32.806 11.385-48.54 14.398-32.137 6.027-61.595 4.353-86.702-.335-19.081-3.683-35.484-8.706-49.21-14.398-7.699-3.014-16.068-6.697-24.437-11.385-1.004-.67-2.008-1.004-3.013-1.674-.67-.335-1.004-.67-1.339-.67-6.025-3.348-9.373-5.692-9.373-5.692s16.069 26.453 58.583 39.177c-10.043 12.724-22.429 27.457-22.429 27.457-73.981-2.344-102.101-50.562-102.101-50.562 0-106.815 48.205-193.54 48.205-193.54 48.205-35.83 93.732-34.825 93.732-34.825l3.348 4.018C351.45 339.587 324 366.04 324 366.04s7.365-4.018 19.75-9.375c35.82-15.738 64.274-19.756 75.99-21.096 2.01-.334 3.683-.67 5.692-.67 20.42-2.678 43.518-3.348 67.62-.669 31.803 3.683 65.948 13.06 100.763 31.81 0 0-26.446-25.113-83.355-42.19l4.687-5.358s45.862-1.004 93.732 34.824c0 0 48.205 86.726 48.205 193.541 0-.334-28.12 47.883-102.101 50.227zm505.484-261.311h-111.14v124.897l73.982 66.635V406.089h39.5c25.108 0 37.494 12.055 37.494 31.476v92.752c0 19.421-11.717 32.48-37.493 32.48H948.993v70.656l111.14-.003c59.587.335 115.491-29.466 115.491-97.775V435.89c.335-69.648-55.57-100.12-115.156-100.12zm582.478 199.903V433.212c0-36.833 66.282-45.204 86.367-8.371l61.26-24.779c-24.102-52.906-67.955-68.308-104.444-68.308-59.587 0-118.504 34.489-118.504 101.458v102.463c0 67.639 58.917 101.458 117.165 101.458 37.493 0 82.35-18.416 107.123-66.634l-65.613-30.136c-16.068 41.186-83.354 31.14-83.354-4.688zm-202.529-88.4c-23.098-5.022-38.497-13.393-39.501-27.792 1.339-34.489 54.565-35.828 85.698-2.678l49.21-37.838c-30.799-37.503-65.613-47.548-101.432-47.548-54.566 0-107.457 30.806-107.457 89.069 0 56.589 43.518 87.06 91.388 94.426 24.438 3.349 51.553 13.06 50.883 29.802-2.008 31.81-67.62 30.136-97.414-6.027l-47.536 44.534c27.785 35.829 65.613 53.91 101.097 53.91 54.566 0 115.157-31.475 117.5-89.069 3.348-72.661-49.544-91.078-102.436-100.788zm-224.287 185.84h74.985V335.772h-74.985v297.343zm1264.379-297.343h-111.14v124.897l73.982 66.635V406.089h39.501c25.107 0 37.493 12.055 37.493 31.476v92.752c0 19.421-11.717 32.48-37.493 32.48h-113.818v70.656l111.475-.003c59.587.335 115.491-29.466 115.491-97.775V435.89c0-69.648-55.904-100.12-115.491-100.12zm-545.32-4.018c-61.596 0-122.856 33.484-122.856 102.128V535.34c0 67.974 61.595 102.128 123.525 102.128 61.596 0 122.856-34.154 122.856-102.128V433.882c0-68.309-61.93-102.128-123.525-102.128zm48.205 203.586c0 21.43-24.103 32.48-47.87 32.48-24.103 0-48.206-10.38-48.206-32.48V433.882c0-21.765 23.434-33.485 46.867-33.485 24.437 0 49.209 10.38 49.209 33.485V535.34zm344.465-101.458c-1.674-69.648-49.21-97.775-110.47-97.775H2098.55V633.45h75.99v-94.427h13.39l68.96 94.427h93.733l-81.012-102.128c35.82-11.385 58.248-42.526 58.248-97.44zm-109.13 40.181h-44.189V406.09h44.188c47.201 0 47.201 67.974 0 67.974z"/></g></svg>