<svg xmlns="http://www.w3.org/2000/svg" xmlns:xlink="http://www.w3.org/1999/xlink" viewBox="0 0 112 40" fill="#fff" fill-rule="evenodd" stroke="#000" stroke-linecap="round" stroke-linejoin="round"><use xlink:href="#A" x=".5" y=".5"/><symbol id="A" overflow="visible"><path d="M13.01 0h6.034v27.93c-3.095.588-5.368.823-7.837.823C3.84 28.753 0 25.423 0 19.036 0 12.884 4.075 8.888 10.383 8.888c.98 0 1.724.078 2.625.313zm0 14.06c-.705-.235-1.293-.313-2.037-.313-3.056 0-4.82 1.88-4.82 5.172 0 3.213 1.685 4.976 4.78 4.976.695-.001 1.389-.053 2.077-.156zm15.634-4.74v13.988c0 4.82-.353 7.13-1.4 9.13-.98 1.92-2.273 3.135-4.937 4.467l-5.603-2.665c2.665-1.254 3.957-2.35 4.78-4.036.862-1.724 1.137-3.722 1.137-8.973v-11.9zM22.61.035h6.034v6.2H22.61zm9.678 10.656c2.665-1.254 5.2-1.802 7.994-1.802 3.095 0 5.133.823 6.034 2.43.5.9.666 2.077.666 4.585v12.271c-2.704.392-6.113.666-8.62.666-5.054 0-7.327-1.764-7.327-5.682 0-4.232 3.017-6.2 10.423-6.818v-1.332c0-1.097-.55-1.5-2.077-1.5-2.233 0-4.74.627-7.092 1.842v-4.663zm9.443 9.6c-3.997.392-5.3 1.02-5.3 2.586 0 1.175.745 1.724 2.4 1.724.9 0 1.724-.078 2.9-.274zm8.2-10.03c3.565-.94 6.504-1.37 9.482-1.37 3.095 0 5.33.705 6.662 2.077 1.254 1.293 1.645 2.703 1.645 5.72v11.833h-6.034v-11.6c0-2.312-.784-3.174-2.94-3.174-.823 0-1.567.078-2.782.43v14.34H49.92zm20.125 21.55c2.116 1.097 4.232 1.606 6.465 1.606 3.957 0 5.642-1.606 5.642-5.446v-.118c-1.175.587-2.35.823-3.918.823-5.3 0-8.66-3.487-8.66-9.012 0-6.858 4.977-10.736 13.792-10.736 2.586 0 4.977.274 7.876.862l-2.066 4.353c-1.607-.313-.13-.042-1.343-.16v.627l.078 2.546.04 3.292c.04.823.04 1.646.08 2.468v1.646c0 5.172-.43 7.6-1.724 9.6-1.88 2.94-5.133 4.4-9.757 4.4-2.35 0-4.388-.353-6.504-1.176v-5.564zm12-18.024h-.627c-1.175-.04-2.546.274-3.487.862-1.45.823-2.194 2.312-2.194 4.428 0 3.017 1.5 4.74 4.154 4.74.823 0 1.5-.157 2.272-.392v-2.077c0-.705-.04-1.5-.04-2.312l-.04-2.782-.04-1.998v-.47zm18.564-4.976c6.034 0 9.717 3.8 9.717 9.953 0 6.3-3.84 10.266-9.953 10.266-6.034 0-9.757-3.8-9.757-9.913 0-6.348 3.84-10.305 9.992-10.305zm-.118 15.36c2.312 0 3.684-1.92 3.684-5.25 0-3.3-1.332-5.25-3.644-5.25-2.4 0-3.762 1.92-3.762 5.25s1.372 5.25 3.722 5.25z" stroke="none" fill="#092e20" fill-rule="nonzero"/></symbol><defs /></svg>