<svg xmlns="http://www.w3.org/2000/svg" xmlns:xlink="http://www.w3.org/1999/xlink" viewBox="0 0 112 28" fill="#fff" fill-rule="evenodd" stroke="#000" stroke-linecap="round" stroke-linejoin="round"><style><![CDATA[.B{stroke:none}.C{fill-rule:nonzero}]]></style><use xlink:href="#S" x=".5" y=".5"/><defs><linearGradient id="A" x1="50%" y1="0%" x2="50%" y2="100%"><stop offset="0%" stop-color="#0994dc"/><stop offset="35%" stop-color="#66cef5"/><stop offset="85%" stop-color="#127bca"/></linearGradient><linearGradient id="B" x1="50%" y1="0%" x2="50%" y2="100%"><stop offset="0%" stop-color="#0e76bc"/><stop offset="36%" stop-color="#36aee8"/><stop offset="84%" stop-color="#00adef"/></linearGradient><linearGradient id="C" x1="50%" y1="100%" x2="50%" y2="0%"><stop offset="0%" stop-color="#1c63b7"/><stop offset="50%" stop-color="#33bdf2"/><stop offset="100%" stop-color="#33bdf2" stop-opacity=".5"/></linearGradient><linearGradient id="D" x1="50%" y1="0%" x2="50%" y2="100%"><stop offset="0%" stop-color="#166ab8"/><stop offset="38%" stop-color="#36aee8"/><stop offset="84%" stop-color="#0798dd"/></linearGradient><linearGradient id="E" x1="50%" y1="0%" x2="50%" y2="100%"><stop offset="0%" stop-color="#124379"/><stop offset="38%" stop-color="#1487cb"/><stop offset="84%" stop-color="#165197"/></linearGradient><linearGradient id="F" x1="50%" y1="100%" x2="50%" y2="0%"><stop offset="0%" stop-color="#33bdf2" stop-opacity=".5"/><stop offset="100%" stop-color="#1dacd8"/></linearGradient><linearGradient id="G" x1="50%" y1="100%" x2="50%" y2="0%"><stop offset="0%" stop-color="#136ab4"/><stop offset="61%" stop-color="#59caf5" stop-opacity=".5"/><stop offset="100%" stop-color="#59caf5" stop-opacity=".2"/></linearGradient><linearGradient id="H" x1="50%" y1="0%" x2="50%" y2="100%"><stop offset="0%" stop-color="#05a1e6"/><stop offset="100%" stop-color="#05a1e6" stop-opacity=".25"/></linearGradient><linearGradient id="I" x1="50%" y1="100%" x2="50%" y2="0%"><stop offset="0%" stop-color="#318ed5"/><stop offset="100%" stop-color="#38a7e4"/></linearGradient><linearGradient id="J" x1="50%" y1="100%" x2="50%" y2="0%"><stop offset="0%" stop-color="#05a1e6"/><stop offset="100%" stop-color="#05a1e6" stop-opacity=".25"/></linearGradient><linearGradient id="K" x1="50%" y1="100%" x2="50%" y2="0%"><stop offset="0%" stop-color="#1959a6"/><stop offset="50%" stop-color="#05a1e6"/><stop offset="100%" stop-color="#7ec5ea"/></linearGradient><linearGradient id="L" x1="50%" y1="100%" x2="50%" y2="0%"><stop offset="0%" stop-color="#165096"/><stop offset="100%" stop-color="#0d82ca"/></linearGradient><linearGradient id="M" x1="50%" y1="0%" x2="50%" y2="100%"><stop offset="0%" stop-color="#05a1e6"/><stop offset="85%" stop-color="#0495d6"/></linearGradient><linearGradient id="N" x1="50%" y1="100%" x2="50%" y2="0%"><stop offset="0%" stop-color="#38a7e4"/><stop offset="100%" stop-color="#0e88d3" stop-opacity=".3"/></linearGradient><linearGradient id="O" x1="50%" y1="0%" x2="50%" y2="100%"><stop offset="0%" stop-color="#168cd4"/><stop offset="70%" stop-color="#1c87cc"/><stop offset="100%" stop-color="#154b8d"/></linearGradient><linearGradient id="P" x1="0%" y1="50%" x2="100%" y2="50%"><stop offset="0%" stop-color="#97d6ee"/><stop offset="100%" stop-color="#55c1ea"/></linearGradient><linearGradient id="Q" x1="0%" y1="50%" x2="100%" y2="50%"><stop offset="0%" stop-color="#7accec"/><stop offset="100%" stop-color="#3fb7ed"/></linearGradient><linearGradient id="R" x1="50%" y1="0%" x2="50%" y2="100%"><stop offset="0%" stop-color="#1da7e7"/><stop offset="100%" stop-color="#37abe7" stop-opacity="0"/></linearGradient></defs><symbol id="S" overflow="visible"><g fill="#000" class="B"><path d="M110.369 10.842h-4.874V25.97h-1.983V10.842h-4.884V9.048h11.74v1.794zM96.765 25.97h-8.968V9.048h8.579v1.793h-6.597v5.629h6.113v1.794h-6.113v5.912h6.987v1.794zm-12.715 0h-2.406l-8.733-13.487c-.204-.324-.38-.677-.529-1.062h-.072c.062.361.094 1.136.094 2.324V25.97h-1.983V9.048h2.574l8.472 13.275.685 1.131h.047c-.079-.487-.119-1.317-.119-2.488V9.048h1.971V25.97zm-16.517-1.061c0 .361-.129.674-.389.938a1.28 1.28 0 0 1-.944.395c-.361 0-.669-.132-.92-.395a1.31 1.31 0 0 1-.377-.937c0-.371.126-.685.377-.944a1.23 1.23 0 0 1 .92-.389c.37 0 .685.131.944.395a1.29 1.29 0 0 1 .389.939zm39.879-18.034c-.174.1-.406.149-.693.149-.804 0-1.206-.453-1.206-1.36V2.938h-.791v-.626h.791V1.187l.739-.239v1.363h1.16v.626h-1.16v2.601c0 .309.05.53.156.658s.281.197.527.197a.78.78 0 0 0 .477-.149v.629zM104.5.746a.99.99 0 0 0-.49-.121c-.517 0-.773.325-.773.977v.71h1.08v.625h-1.08v3.984h-.739V2.937h-.784v-.625h.784v-.747c0-.507.155-.905.471-1.192.271-.249.602-.373.996-.373.228 0 .406.027.534.08v.666zm-4.009 3.879c0-.59-.133-1.041-.4-1.35-.258-.297-.62-.446-1.084-.446-.459 0-.826.15-1.103.451-.29.321-.435.774-.435 1.363 0 .551.138.984.415 1.293s.655.466 1.123.466c.486 0 .856-.158 1.111-.472.249-.307.374-.742.374-1.305m.758-.026c0 .734-.209 1.324-.623 1.766s-.972.666-1.673.666c-.692 0-1.243-.222-1.647-.666-.395-.428-.594-.993-.594-1.696 0-.802.226-1.42.674-1.859.417-.407.975-.612 1.674-.612.687 0 1.224.214 1.609.639s.58 1.014.58 1.761m-5.266 1.089c0 .377-.141.69-.423.939-.308.27-.732.405-1.264.405-.436 0-.819-.091-1.143-.277v-.793c.361.294.76.441 1.198.441.584 0 .877-.215.877-.644a.57.57 0 0 0-.194-.445c-.13-.118-.382-.259-.756-.423-.386-.169-.661-.342-.823-.522-.195-.214-.293-.491-.293-.833 0-.382.153-.701.455-.954s.692-.382 1.171-.382c.366 0 .694.072.985.216v.743c-.304-.22-.651-.329-1.046-.329-.244 0-.441.061-.587.179s-.222.276-.222.464c0 .204.062.363.185.476.109.105.341.233.692.382.394.165.678.336.851.511.224.221.338.503.338.845zm-4.415-1.063c0-.59-.133-1.041-.4-1.35-.259-.297-.62-.446-1.085-.446-.459 0-.826.15-1.101.451-.291.321-.436.774-.436 1.363 0 .551.138.984.418 1.293s.651.466 1.12.466c.485 0 .856-.158 1.111-.472.249-.307.374-.742.374-1.305m.757-.026c0 .734-.207 1.324-.621 1.766s-.973.666-1.675.666c-.692 0-1.242-.222-1.646-.666-.395-.428-.594-.993-.594-1.696 0-.802.225-1.42.675-1.859.417-.407.974-.612 1.673-.612.687 0 1.224.214 1.611.639s.577 1.014.577 1.761M87.457 3.06c-.13-.1-.317-.149-.564-.149-.3 0-.552.134-.756.405-.231.302-.347.721-.347 1.255v2.35h-.738V2.312h.738v.95h.018c.108-.336.276-.595.499-.779.209-.167.446-.252.706-.252.196 0 .342.021.442.063v.765zm-3.52 3.648c-.353.217-.775.324-1.263.324-.661 0-1.193-.219-1.599-.657-.395-.425-.593-.974-.593-1.647 0-.755.216-1.366.651-1.831s1.015-.698 1.748-.698c.4 0 .756.079 1.066.234v.757a1.87 1.87 0 0 0-1.098-.361c-.47 0-.851.164-1.147.491-.308.335-.465.782-.465 1.341 0 .536.143.96.426 1.274s.663.468 1.14.468c.403 0 .78-.132 1.134-.396v.701zm-4.599.213h-.736V2.312h.736v4.609zM79.465.66a.46.46 0 0 1-.143.342.47.47 0 0 1-.343.14c-.132 0-.246-.045-.34-.135a.46.46 0 0 1-.14-.348c0-.133.046-.247.14-.339s.208-.137.34-.137.25.044.343.137.143.206.143.339m-2.457 6.261h-.757V2.587c0-.342.022-.759.063-1.251h-.017c-.071.288-.136.496-.193.625l-2.201 4.96h-.369l-2.205-4.924c-.062-.137-.127-.359-.193-.661h-.016c.023.259.036.678.036 1.259v4.325h-.73V.467h.999l1.98 4.5c.149.339.246.597.293.773h.031l.309-.792L76.06.467h.948v6.454zm32.457-4.695c0-.09-.025-.154-.075-.195-.056-.045-.153-.069-.288-.069h-.194v.533h.234c.216 0 .323-.09.323-.268m.302 1.111h-.266l-.17-.375c-.086-.188-.178-.282-.279-.282h-.143v.657h-.219V1.774h.44c.196 0 .342.042.443.131.085.076.128.173.128.295 0 .108-.035.198-.105.273s-.167.127-.292.154v.007c.087.02.174.116.259.289l.206.416zm.487-.766c0-.307-.105-.567-.314-.773s-.466-.309-.768-.309c-.312 0-.571.103-.777.311s-.308.466-.308.771c0 .312.107.572.318.78s.465.31.767.31.556-.103.767-.313.316-.466.316-.776m.148-.007c0 .345-.119.634-.357.867a1.2 1.2 0 0 1-.879.352c-.352 0-.644-.115-.876-.341s-.347-.518-.347-.868a1.18 1.18 0 0 1 .353-.867c.236-.236.529-.353.88-.353.344 0 .633.113.867.337.24.23.359.521.359.873"/><path d="M54.72 24.253h-.587v1.825h-.239v-1.825h-.589v-.217h1.416v.217zm2.403 1.825h-.238v-1.371l.02-.396h0l-.064.199-.695 1.568h-.117l-.697-1.557c-.02-.043-.041-.113-.063-.211h-.008a4.57 4.57 0 0 1 .011.4v1.368h-.229v-2.042h.316l.626 1.425a1.9 1.9 0 0 1 .092.245h.009l.099-.251.639-1.419h.301v2.042z" class="C"/></g><path d="M22.886 5.852c2.375 7.262 3.274 20.217 10.219 20.217h0a8.55 8.55 0 0 0 1.599-.154h0c-6.313-1.472-7.061-14.286-10.913-20.922h0c-.302.274-.602.561-.905.859" fill="url(#A)" class="B C"/><path d="M23.791 4.993c3.852 6.636 4.6 19.45 10.913 20.922h0c.496-.091.993-.229 1.491-.403h0c-5.666-2.776-7.232-15.219-11.607-21.21h0c-.265.221-.531.452-.797.691" fill="url(#B)" class="B C"/><path d="M29.341 1.047a8.58 8.58 0 0 0-1.6.154c-1.405.265-2.832.87-4.272 1.786a10.6 10.6 0 0 1 1.119 1.316c1.463-1.214 2.917-2.112 4.366-2.651.544-.201 1.085-.353 1.629-.452a5.02 5.02 0 0 0-1.242-.152" fill="#14559a" class="B C"/><path d="M40.617 22.953l1.742-1.527C39.947 14.198 39.083 1.058 32.09 1.058c-.5 0-1.005.047-1.508.14 6.37 1.584 7.186 15.443 10.035 21.755" fill="url(#C)" class="B C"/><path d="M30.583 1.198c-.392-.1-.805-.151-1.242-.151l2.75.01c-.5 0-1.005.047-1.508.141" fill="#3092c4" class="B C"/><path d="M40.496 24.488c-.273-.261-.533-.547-.788-.852-1.176.833-2.348 1.465-3.513 1.876a5.41 5.41 0 0 0 1.31.446 5.55 5.55 0 0 0 1.116.11c1.307 0 2.34-.155 3.219-.576-.484-.262-.928-.601-1.344-1.004" fill="#1969bc" class="B C"/><path d="M28.954 1.652c5.705 2.984 6.201 16.497 10.754 21.984h0a19.34 19.34 0 0 0 .909-.684h0C37.768 16.64 36.953 2.78 30.584 1.197h0c-.544.102-1.086.252-1.63.455" fill="url(#D)" class="B C"/><path d="M24.588 4.302c4.374 5.991 5.941 18.434 11.607 21.21h0c1.164-.411 2.337-1.043 3.513-1.876h0c-4.552-5.487-5.048-19-10.754-21.984h0c-1.449.538-2.902 1.436-4.366 2.65" fill="url(#E)" class="B C"/><path d="M20.087 5.676c-.686 1.55-1.386 3.588-2.233 6.248 1.684-2.373 3.362-4.417 5.031-6.073-.23-.707-.477-1.359-.743-1.939-.682.523-1.37 1.111-2.056 1.764" fill="url(#F)" class="B C"/><path d="M22.751 3.465l-.607.447c.266.581.512 1.232.742 1.939l.905-.858c-.323-.555-.666-1.068-1.04-1.528" fill="#2b74b1" class="B C"/><path d="M23.47 2.986l-.718.479c.373.46.716.973 1.041 1.529l.797-.692c-.352-.484-.726-.928-1.119-1.316" fill="#125a9e" class="B C"/><path d="M62.385.494c-3.227 12.444-9.966 22.439-15.617 24.959l-.316.13c-.014.008-.026.01-.037.015-.03.012-.057.021-.087.033-.014.008-.027.011-.039.016-.048.017-.094.031-.141.05-.02.008-.039.014-.058.02a.7.7 0 0 1-.07.023c-.021.008-.043.015-.068.024s-.041.012-.06.02c-.041.012-.079.022-.121.036-.017 0-.033.009-.051.014-.025.008-.054.015-.082.022-.019.008-.035.011-.055.015a1.71 1.71 0 0 1-.089.023l-.108.024a2.3 2.3 0 0 0 .809.142c5.358 0 10.76-9.602 19.699-25.569h-3.51z" fill="url(#G)" class="B C"/><path d="M16.691 1.551c.014-.008.02-.008.023-.017.036-.01.064-.022.094-.033.024-.008.032-.017.039-.018l.093-.033c.076-.021.142-.048.211-.072.01 0 .019-.008.031-.008l.088-.026c.014-.008.027-.008.04-.013l.089-.026c.013 0 .024-.008.034-.009l.295-.076c.014 0 .025-.008.04-.009.029-.008.055-.013.086-.017.013-.008.027-.008.042-.013.029-.008.056-.009.087-.016h.02l.179-.033h.036c.029-.008.054-.009.083-.015.016 0 .032-.008.047-.008.027 0 .053-.008.079-.012.014 0 .027 0 .043-.008l.193-.017-.57-.03C12.058 1.041 3.745 12.237 0 26.735h.722a210.19 210.19 0 0 0 3.26-6.057C6.604 10.409 11.946 3.405 16.691 1.55" fill="url(#H)" class="B C"/><path d="M20.087 5.677a25.08 25.08 0 0 1 2.056-1.764l-.49-.946c-.552.67-1.056 1.554-1.566 2.711m.496-4.042c.394.331.747.785 1.07 1.33l.311-.349a6.05 6.05 0 0 0-1.458-1.02.65.65 0 0 0 .064.03" class="B C" fill="#0d82ca"/><path d="M3.981 20.68C9.483 10.077 12.09 3.367 16.691 1.551h0c-4.744 1.857-10.087 8.86-12.71 19.129" fill="url(#I)" class="B C"/><path d="M21.964 2.618l-.311.349c.173.289.334.604.491.946l.607-.447c-.249-.307-.512-.592-.786-.848" fill="#127bca" class="B C"/><path d="M6.479 26.69h0c-.034.008-.068.008-.1.012-.048 0-.077.008-.104.008l-.216.014h-.021c5.569-.156 8.114-2.944 9.377-6.988l2.439-7.815c-2.332 3.283-4.675 7.196-7.031 11.58-1.136 2.113-2.863 2.996-4.345 3.184" fill="url(#J)" class="B C"/><path d="M6.479 26.688h0c1.481-.189 3.209-1.07 4.345-3.184h0c2.356-4.383 4.7-8.297 7.03-11.58h0c.848-2.661 1.547-4.698 2.234-6.248h0c-4.645 4.421-9.307 11.772-13.609 21.011" fill="url(#K)" class="B C"/><path d="M3.981 20.68l-3.26 6.057H2.82c.278-2.123.672-4.147 1.16-6.056" fill="#05a1e6" class="B C"/><path d="M18.469 1.094c-.017 0-.03.008-.045.008h0c-.025.008-.052.008-.078.011h0c-.016 0-.031 0-.047.008h0c-.029.008-.055.009-.083.014h0c-.013 0-.025 0-.036.008h0l-.179.031h0-.02 0c-.031.008-.058.013-.087.017h0c-.015.008-.03.008-.044.012h0c-.028.008-.057.012-.085.017h0c-.015.008-.027.008-.04.009h0l-.295.076h0c-.011 0-.021.008-.034.01h0l-.089.026h0c-.013.008-.028.008-.04.012h0l-.088.026h0c-.012 0-.021.008-.032.008h0l-.205.072h0 0l-.093.032h0c-.013.008-.024.01-.039.016h0c-.03.009-.059.021-.087.032h0c-.01.008-.021.009-.029.014h0c-4.601 1.816-7.208 8.526-12.71 19.129h0c-.489 1.91-.884 3.934-1.16 6.056h0 .295l2.019-.008h0 .049.142.049.014.049.027.019.038.119.119.1.026.175 0c.066-.008.134-.008.202-.014h0 .013c.029 0 .057-.008.085-.008h0 .02 0c.031 0 .066-.008.1-.012h0 0c4.301-9.238 8.964-16.59 13.609-21.011h0c.511-1.157 1.014-2.041 1.565-2.71h0c-.322-.545-.675-1-1.069-1.331h0l-.012-.008c-.022-.009-.043-.02-.066-.031h0c-.022-.012-.041-.021-.065-.033h0c-.02-.008-.043-.02-.063-.03h0c-.028-.008-.05-.02-.074-.031h0c-.02-.008-.038-.017-.058-.025h0c-.041-.016-.083-.033-.122-.051h0c-.018-.008-.035-.013-.052-.02h0c-.029-.01-.061-.024-.091-.036h0c-.015-.008-.032-.01-.049-.016h0l-.126-.043h0-.011c-.049-.016-.096-.028-.146-.042h0c-.011-.008-.021-.008-.033-.01h0l-.123-.035h0c-.011 0-.02-.008-.029-.008h0c-.1-.026-.202-.048-.306-.067h0c-.011 0-.021-.008-.032-.008h0c-.044-.008-.088-.016-.132-.021h0c-.011-.008-.017-.008-.027-.008h0c-.053-.008-.105-.014-.157-.02h0-.027 0c-.042-.008-.082-.009-.121-.014h0c-.067.008-.13.012-.193.018" fill="url(#L)" class="B C"/><path d="M49.781 7.383l-2.662 8.49h0c2.905-3.997 5.766-9.026 8.49-14.828h0c-3.178.998-4.874 3.283-5.828 6.338" fill="url(#M)" class="B C"/><path d="M47.211 25.241l-.443.212c5.65-2.52 12.39-12.515 15.617-24.959h-.654c-7.414 13.243-9.798 22.108-14.52 24.747" fill="url(#N)" class="B C"/><path d="M43.521 24.128c1.229-1.501 2.231-4.051 3.598-8.255-1.577 2.166-3.164 4.028-4.753 5.546.338 1.052.718 1.969 1.152 2.708" fill="#079ae1" class="B C"/><path d="M43.522 24.128c-.419.511-.861.9-1.354 1.188l-.328.176a4.76 4.76 0 0 0 1.724.544h0 0l.282.025h.017c.043 0 .089 0 .136.008h.019.139.149.047.106c.017 0 .035 0 .052-.008.033 0 .068 0 .102-.008h.05c.035 0 .073-.008.11-.012.02 0 .031-.008.042-.008.039-.008.08-.012.118-.018h.035l.133-.022h.008l.277-.056c-.729-.267-1.34-.896-1.865-1.793" fill="#1969bc" class="B C"/><g fill="#1e5cb3"><path d="M33.105 26.068a8.47 8.47 0 0 0 1.599-.155c.496-.09.993-.228 1.491-.402.414.202.849.353 1.309.446a5.56 5.56 0 0 0 1.117.11h-5.516z" class="B C"/><path d="M38.621 26.069c1.306 0 2.34-.155 3.218-.576.52.281 1.088.468 1.724.544h0 0l.282.024h.017c.043 0 .089 0 .136.008h.02.139-5.539z" class="B C"/></g><path d="M44.159 26.068h.151.047.105c.018 0 .035 0 .052-.008.033 0 .068 0 .103-.008h.05c.035 0 .073-.008.109-.012.02 0 .031-.008.042-.008.039-.008.08-.012.118-.018.013 0 .023 0 .037-.008l.133-.021h.008l.277-.056h0a2.3 2.3 0 0 0 .809.142l-2.037.008z" fill="#1d60b5" class="B C"/><path d="M42.361 21.433l-1.742 1.519-.91.683c.255.305.515.591.788.852.415.403.859.742 1.344 1.003l.327-.176c.494-.288.937-.677 1.355-1.188-.434-.74-.814-1.656-1.16-2.695" fill="#175fab" class="B C"/><path d="M59.661.494h-2.749-.273 0-.258 0-.01l-.521.025h0l-.243.519h0c-2.724 5.803-5.586 10.831-8.49 14.828h0c-1.366 4.204-2.368 6.755-3.598 8.255h0c.526.896 1.137 1.527 1.864 1.794h0c.021-.008.038-.008.057-.013h0 .012c.013 0 .026-.008.04-.008h0c.03-.008.061-.014.091-.023h0c.019-.008.035-.009.054-.015h0c.028-.008.056-.015.082-.021h0c.017-.008.034-.011.051-.014h0c.042-.014.081-.024.121-.036h0a.35.35 0 0 1 .06-.02h0c.023-.008.047-.014.068-.025h0c.024-.008.049-.013.07-.022h0c.019-.008.039-.014.057-.021h0c.048-.017.094-.031.142-.05h0c.013 0 .026-.012.039-.015h0c.029-.012.058-.021.087-.034h0c.011-.008.023-.009.037-.014h0l.305-.13h0 .011c.146-.064.295-.137.442-.212h0c4.723-2.639 7.107-11.504 14.521-24.747h0-2.071z" fill="url(#O)" class="B C"/><path d="M18.662 1.076c.012 0 .022 0 .034.008a.27.27 0 0 1 .086.009h.029l.157.02c.01 0 .018 0 .027.008l.132.022c.01 0 .022.008.033.008l.305.068c.009 0 .019.008.028.008l.123.035c.013 0 .022.008.034.01l.145.042.138.052c.017.008.033.012.049.016l.091.037c.017 0 .034.012.052.018l.121.051.059.025c.023.012.048.023.073.031l.064.03.065.033a6.08 6.08 0 0 1 1.458 1.021c.165-.174.338-.33.517-.469-.98-.695-2.091-1.091-3.372-1.091l-.447.02" fill="#7dcbec" class="B C"/><path d="M21.964 2.618c.274.255.537.54.786.848l.718-.479a7.58 7.58 0 0 0-.989-.838 4.63 4.63 0 0 0-.516.47" fill="#5ec5ed" class="B C"/><path d="M18.662 1.076l.447-.018c1.281 0 2.392.396 3.372 1.09 1.034-.816 2.285-1.101 4.022-1.101h-8.411a6.3 6.3 0 0 1 .57.029" fill="url(#P)" class="B C"/><path d="M26.503 1.047c-1.737 0-2.987.285-4.022 1.101.343.243.674.525.988.838 1.44-.916 2.866-1.522 4.273-1.787a8.67 8.67 0 0 1 1.599-.153h-2.838z" fill="url(#Q)" class="B C"/><path d="M47.119 15.875l2.663-8.492c.956-3.056 2.648-5.341 5.826-6.338l.245-.519c-5.181.311-7.602 2.946-8.821 6.849-2.131 6.814-3.422 11.231-4.665 14.045 1.587-1.518 3.175-3.381 4.752-5.544" fill="url(#R)" class="B C"/></symbol></svg>