<svg xmlns="http://www.w3.org/2000/svg" xmlns:xlink="http://www.w3.org/1999/xlink" viewBox="0 0 110 30" fill="#fff" fill-rule="evenodd" stroke="#000" stroke-linecap="round" stroke-linejoin="round"><use xlink:href="#A" x=".5" y=".5"/><symbol id="A" overflow="visible"><path d="M26.211 28.714a.65.65 0 0 1-.559-.316L20.737 20.2l-9.192 2.5a.65.65 0 0 1-.726-.326L.077 2.182a.65.65 0 0 1 .486-.95L9.683.006a.65.65 0 0 1 .646.308l11 18.374 12.794-3.48-4.266-6.025a.65.65 0 0 1 .363-1.008l5.985-1.415a.65.65 0 0 1 .657.225l5.18 6.468a.65.65 0 0 1-.337 1.034l-5.44 1.484 4.763 6.7a.65.65 0 0 1-.316.99l-14.295 5.013a.65.65 0 0 1-.207.04zm-4.172-8.87l4.455 7.43 12.983-4.545-4.534-6.392zM1.664 2.387l10.053 18.92 8.343-2.264L9.435 1.351zm29.833 6.834l4 5.626 4.962-1.35-4.317-5.376zm17.387-1.964h1.3v13.94h-1.295zm14 3.883v10.057h-1.277v-1.74c-.495.62-1.118 1.128-1.826 1.488a5.1 5.1 0 0 1-5.859-1.049 5.19 5.19 0 0 1-1.511-3.766 5.1 5.1 0 0 1 1.525-3.716 4.97 4.97 0 0 1 3.679-1.543c.78-.01 1.55.17 2.242.527a5.1 5.1 0 0 1 1.761 1.58v-1.84zm-5.17 1a3.91 3.91 0 0 0-3.449 2.021c-.723 1.258-.723 2.805 0 4.063.343.625.848 1.146 1.462 1.508a3.82 3.82 0 0 0 1.97.54 4.04 4.04 0 0 0 2.012-.536c.613-.337 1.12-.84 1.462-1.45a4.14 4.14 0 0 0 .513-2.07 4 4 0 0 0-1.15-2.918 3.81 3.81 0 0 0-2.821-1.161zm7.592-1h1.322v1.47a4.79 4.79 0 0 1 1.25-1.297 2.46 2.46 0 0 1 1.368-.43 2.36 2.36 0 0 1 1.15.343l-.678 1.1a1.8 1.8 0 0 0-.7-.175 1.87 1.87 0 0 0-1.249.531 3.36 3.36 0 0 0-.92 1.649q-.23.86-.23 3.474v3.403h-1.322zm16.2 0v10.057H80.23v-1.74c-.495.62-1.118 1.128-1.826 1.488a5.1 5.1 0 0 1-5.859-1.049 5.19 5.19 0 0 1-1.511-3.766c-.02-1.395.53-2.74 1.527-3.716a4.97 4.97 0 0 1 3.679-1.543c.78-.01 1.55.17 2.242.527a5.1 5.1 0 0 1 1.761 1.58v-1.84zm-5.17 1a3.91 3.91 0 0 0-3.449 2.021c-.723 1.258-.723 2.805 0 4.063.343.625.848 1.146 1.462 1.508a3.82 3.82 0 0 0 1.97.54 4.04 4.04 0 0 0 2.012-.536c.613-.337 1.12-.84 1.462-1.45a4.14 4.14 0 0 0 .513-2.07 4 4 0 0 0-1.149-2.928 3.81 3.81 0 0 0-2.819-1.161zm7.133-1h1.38l3.376 7.33 3.34-7.33h1.38l-4.6 10.058h-.23zm19.907 6.72l1.1.573a5.94 5.94 0 0 1-1.239 1.702 4.92 4.92 0 0 1-1.582.984 5.52 5.52 0 0 1-1.989.338q-2.46 0-3.85-1.6a5.44 5.44 0 0 1-1.38-3.647c-.013-1.238.402-2.443 1.175-3.4a4.8 4.8 0 0 1 3.987-1.904 4.96 4.96 0 0 1 4.107 1.95q1.092 1.38 1.1 3.45H95.75c-.015 1.067.387 2.097 1.12 2.872a3.57 3.57 0 0 0 2.674 1.12 4.3 4.3 0 0 0 1.495-.267 3.99 3.99 0 0 0 1.235-.708 6.03 6.03 0 0 0 1.101-1.442zm0-2.7a4.28 4.28 0 0 0-.754-1.653 3.57 3.57 0 0 0-1.308-.998c-.533-.25-1.115-.38-1.704-.38a3.68 3.68 0 0 0-2.545.952q-.777.7-1.175 2.07zm3.64-7.892h1.295v13.94h-1.295z" stroke="none" fill="#ef533f" fill-rule="nonzero"/></symbol><defs /></svg>