<svg xmlns="http://www.w3.org/2000/svg" xmlns:xlink="http://www.w3.org/1999/xlink" viewBox="0 0 115 39" fill="#fff" fill-rule="evenodd" stroke="#000" stroke-linecap="round" stroke-linejoin="round"><use xlink:href="#Q" x=".5" y=".5"/><defs><linearGradient id="A" x1="84.75%" y1="111.40%" x2="58.25%" y2="64.58%"><stop offset="0%" stop-color="#fb7655"/><stop offset="0%" stop-color="#fb7655"/><stop offset="41%" stop-color="#e42b1e"/><stop offset="99%" stop-color="#900"/></linearGradient><linearGradient id="B" x1="116.67%" y1="60.91%" x2="1.77%" y2="19.31%"><stop offset="0%" stop-color="#871101"/><stop offset="0%" stop-color="#871101"/><stop offset="99%" stop-color="#911209"/></linearGradient><linearGradient id="C" x1="75.77%" y1="219.28%" x2="38.98%" y2="7.77%"><stop offset="0%" stop-color="#871101"/><stop offset="0%" stop-color="#871101"/><stop offset="99%" stop-color="#911209"/></linearGradient><linearGradient id="D" x1="50.01%" y1="7.25%" x2="66.48%" y2="79.15%"><stop offset="0%" stop-color="#fff"/><stop offset="0%" stop-color="#fff"/><stop offset="23%" stop-color="#e57252"/><stop offset="46%" stop-color="#de3b20"/><stop offset="99%" stop-color="#a60003"/></linearGradient><linearGradient id="E" x1="46.17%" y1="16.35%" x2="49.93%" y2="83.06%"><stop offset="0%" stop-color="#fff"/><stop offset="0%" stop-color="#fff"/><stop offset="23%" stop-color="#e4714e"/><stop offset="56%" stop-color="#be1a0d"/><stop offset="99%" stop-color="#a80d00"/></linearGradient><linearGradient id="F" x1="36.97%" y1="15.61%" x2="49.53%" y2="92.48%"><stop offset="0%" stop-color="#fff"/><stop offset="0%" stop-color="#fff"/><stop offset="18%" stop-color="#e46342"/><stop offset="40%" stop-color="#c82410"/><stop offset="99%" stop-color="#a80d00"/></linearGradient><linearGradient id="G" x1="13.59%" y1="58.35%" x2="85.76%" y2="-46.72%"><stop offset="0%" stop-color="#fff"/><stop offset="0%" stop-color="#fff"/><stop offset="54%" stop-color="#c81f11"/><stop offset="99%" stop-color="#bf0905"/></linearGradient><linearGradient id="H" x1="27.62%" y1="21.13%" x2="50.74%" y2="79.04%"><stop offset="0%" stop-color="#fff"/><stop offset="0%" stop-color="#fff"/><stop offset="31%" stop-color="#de4024"/><stop offset="99%" stop-color="#bf190b"/></linearGradient><linearGradient id="I" x1="-20.68%" y1="122.28%" x2="104.24%" y2="-6.34%"><stop offset="0%" stop-color="#bd0012"/><stop offset="0%" stop-color="#bd0012"/><stop offset="7%" stop-color="#fff"/><stop offset="17%" stop-color="#fff"/><stop offset="27%" stop-color="#c82f1c"/><stop offset="33%" stop-color="#820c01"/><stop offset="46%" stop-color="#a31601"/><stop offset="72%" stop-color="#b31301"/><stop offset="99%" stop-color="#e82609"/></linearGradient><linearGradient id="J" x1="58.79%" y1="65.20%" x2="11.96%" y2="50.13%"><stop offset="0%" stop-color="#8c0c01"/><stop offset="0%" stop-color="#8c0c01"/><stop offset="54%" stop-color="#990c00"/><stop offset="99%" stop-color="#a80d0e"/></linearGradient><linearGradient id="K" x1="79.31%" y1="62.75%" x2="23.09%" y2="17.89%"><stop offset="0%" stop-color="#7e110b"/><stop offset="0%" stop-color="#7e110b"/><stop offset="99%" stop-color="#9e0c00"/></linearGradient><linearGradient id="L" x1="92.88%" y1="74.11%" x2="59.84%" y2="39.69%"><stop offset="0%" stop-color="#79130d"/><stop offset="0%" stop-color="#79130d"/><stop offset="99%" stop-color="#9e120b"/></linearGradient><radialGradient id="M" cx="32%" cy="40%" r="91%" fx="32%" fy="40%"><stop offset="0%" stop-color="#a80d00"/><stop offset="0%" stop-color="#a80d00"/><stop offset="99%" stop-color="#7e0e08"/></radialGradient><radialGradient id="N" cx="14%" cy="41%" r="99%" fx="14%" fy="41%"><stop offset="0%" stop-color="#a30c00"/><stop offset="0%" stop-color="#a30c00"/><stop offset="99%" stop-color="#800e08"/></radialGradient><linearGradient id="O" x1="56.57%" y1="101.70%" x2="3.11%" y2="11.98%"><stop offset="0%" stop-color="#8b2114"/><stop offset="0%" stop-color="#8b2114"/><stop offset="43%" stop-color="#9e100a"/><stop offset="99%" stop-color="#b3100c"/></linearGradient><linearGradient id="P" x1="30.87%" y1="35.64%" x2="92.49%" y2="100.73%"><stop offset="0%" stop-color="#b31000"/><stop offset="0%" stop-color="#b31000"/><stop offset="44%" stop-color="#910f08"/><stop offset="99%" stop-color="#791c12"/></linearGradient></defs><symbol id="Q" overflow="visible"><g stroke="none"><path d="M61.543 31.02h-5.97l-3.594-5.375-3.47-4.672h-2.253v7.03c0 .365.057.688.172.97.115.27.36.48.734.625.187.073.516.14.984.203l1.188.1v1.1h-9.375v-1.1l1.078-.1c.48-.052.812-.12 1-.203.312-.135.536-.333.672-.594.146-.26.22-.594.22-1v-16.03a2.78 2.78 0 0 0-.156-.969c-.104-.28-.35-.495-.734-.64a6.27 6.27 0 0 0-1.016-.25c-.35-.074-.705-.126-1.062-.156v-1.1h10.235c.937 0 1.818.1 2.64.297a6.98 6.98 0 0 1 2.234.922c.646.417 1.16.964 1.547 1.64.385.667.578 1.474.578 2.422 0 .854-.13 1.6-.4 2.266a4.67 4.67 0 0 1-1.156 1.703c-.47.448-1.03.84-1.687 1.172a13.27 13.27 0 0 1-2.172.828l2.72 3.656 2.672 3.6c.458.625.87 1.1 1.234 1.4.375.292.745.53 1.1.72.27.135.6.24 1.016.313s.745.115 1.016.125v1.1m-8.22-16.53c0-1.344-.385-2.406-1.156-3.187-.77-.792-1.86-1.187-3.266-1.187h-2.64v9.516h2.047c1.437 0 2.635-.458 3.594-1.375.958-.927 1.437-2.182 1.438-3.766m25.16 16.245l-5.016.344-.234-.22V28.91h-.094l-.844.844c-.313.292-.672.557-1.078.797-.47.28-.922.495-1.36.64s-1.057.22-1.86.22c-1.365 0-2.406-.443-3.125-1.328-.708-.896-1.062-2.193-1.062-3.9v-7.366c0-.375-.073-.687-.22-.937-.135-.26-.34-.484-.6-.672a1.87 1.87 0 0 0-.703-.266 5.92 5.92 0 0 0-.891-.125v-1.016l5.14-.375.234.22v10.703c0 1.115.25 1.953.75 2.516s1.1.844 1.797.844c.573 0 1.083-.1 1.53-.266a4.41 4.41 0 0 0 1.125-.625c.266-.205.511-.436.734-.687a4.02 4.02 0 0 0 .5-.687v-8.747c0-.344-.073-.646-.22-.906a2.02 2.02 0 0 0-.609-.687c-.188-.125-.47-.198-.844-.22l-1.234-.078V15.79l5.594-.375.234.22v12.234c0 .354.073.656.22.906a1.98 1.98 0 0 0 .609.641 1.83 1.83 0 0 0 .672.234l.86.063v1.016m17.558-7.427c0 2.313-.73 4.255-2.187 5.828s-3.15 2.36-5.078 2.36a8.24 8.24 0 0 1-2.5-.391c-.813-.26-1.578-.6-2.297-1.047l-1.156 1.797-.97-.22.1-2.78.03-3.14V10.457a2.47 2.47 0 0 0-.25-1.062c-.156-.354-.36-.6-.6-.766-.198-.135-.53-.234-1-.297l-1.1-.14v-1l5.656-.36.22.234v10.156l.1.03c.646-.687 1.35-1.203 2.1-1.547.77-.344 1.526-.516 2.266-.516 1.896 0 3.48.75 4.75 2.25s1.906 3.453 1.906 5.86m-3.266.1c0-.77-.083-1.557-.25-2.36s-.427-1.5-.78-2.094a4.37 4.37 0 0 0-1.391-1.469c-.573-.375-1.26-.562-2.062-.562-.73 0-1.37.146-1.922.438-.542.28-1.03.667-1.47 1.156v8.97c.085.305.205.599.359.875.187.333.437.65.75.953a4.15 4.15 0 0 0 1.063.719c.396.177.88.266 1.453.266 1.27 0 2.297-.615 3.078-1.844s1.172-2.9 1.172-5.047m4.4 12.642c0-.52.14-.948.422-1.28.292-.323.65-.484 1.078-.484.333 0 .62.063.86.188s.453.286.64.484c.156.156.323.37.5.64l.422.672c.52-.28 1.14-1.016 1.86-2.203.73-1.188 1.255-2.23 1.578-3.125l-2.686-6.617-2.516-6.047c-.198-.48-.53-.85-1-1.1-.47-.27-.938-.443-1.406-.516v-1.03h7.03v1.094c-.313.01-.688.078-1.125.203-.438.115-.656.276-.656.484l.078.234.156.453 3.703 9.125 1.453-3.453 1.703-4.234.313-.812c.135-.354.203-.656.203-.906 0-.27-.24-.52-.72-.75-.47-.24-.917-.385-1.344-.437v-1h5.72v.97c-.313.052-.724.234-1.234.547-.5.302-.9.734-1.14 1.297l-3.312 7.86-2.187 5.22c-.656 1.458-1.245 2.594-1.766 3.406-.5.823-1 1.47-1.5 1.938-.48.437-.917.73-1.312.875-.385.156-.786.234-1.203.234-.812 0-1.453-.193-1.922-.578-.458-.385-.687-.828-.687-1.328" fill="#000" fill-rule="nonzero"/><path d="M27.804 23.619L7.314 35.788l26.53-1.8 2.043-26.753z" fill="url(#A)"/><path d="M33.89 33.969l-2.282-15.74-6.213 8.202z" fill="url(#B)"/><path d="M33.919 33.969l-16.706-1.311-9.81 3.097z" fill="url(#C)"/><path d="M7.426 35.756l4.173-13.672-9.183 1.963z" fill="url(#D)"/><path d="M25.394 26.478l-3.84-15.041-10.989 10.299z" fill="url(#E)"/><path d="M35.017 11.647L24.629 3.163l-2.893 9.354z" fill="url(#F)"/><path d="M30.158.139l-6.11 3.375-3.853-3.42z" fill="url(#G)"/><path d="M0 28.637l2.559-4.668-2.07-5.561z" fill="url(#H)"/><path d="M.352 18.231l2.083 5.909 9.051-2.029 10.334-9.604 2.916-9.263L20.142 0l-7.807 2.922-7.405 6.901c-.17.087-3.152 5.724-4.583 8.41z"/><path d="M7.665 7.616c5.331-5.285 12.203-8.408 14.84-5.747s-.159 9.129-5.488 14.411-12.118 8.578-14.753 5.918.072-9.297 5.403-14.581z" fill="url(#I)"/><path d="M7.426 35.752l4.141-13.715 13.751 4.42c-4.972 4.662-10.502 8.602-17.892 9.296z" fill="url(#J)"/><path d="M21.837 12.48l3.532 13.983c4.155-4.365 7.879-9.062 9.707-14.871l-13.237.887z" fill="url(#K)"/><path d="M35.038 11.665C36.451 7.402 36.777 1.287 30.115.149L24.648 3.17l10.39 8.495z" fill="url(#L)"/><path d="M0 28.574c.196 7.037 5.271 7.142 7.436 7.204L2.44 24.109 0 28.574z" fill="#9e1209"/><path d="M21.857 12.498l9.754 5.977c.203.114 2.771-4.334 3.356-6.847l-13.11.869z" fill="url(#M)"/><path d="M11.562 22.037l5.535 10.68c3.273-1.775 5.836-3.938 8.184-6.255l-13.719-4.425z" fill="url(#N)"/><path d="M2.418 24.126l-.784 9.339c1.48 2.021 3.514 2.197 5.651 2.039C5.74 31.66 2.654 23.971 2.418 24.126z" fill="url(#O)"/><path d="M24.616 3.188l10.995 1.543C35.024 2.246 33.22.638 30.15.138l-5.534 3.05z" fill="url(#P)"/></g></symbol></svg>