<svg xmlns="http://www.w3.org/2000/svg" xmlns:xlink="http://www.w3.org/1999/xlink" viewBox="0 0 239.093 85" fill="#fff" fill-rule="evenodd" stroke="#000" stroke-linecap="round" stroke-linejoin="round"><use xlink:href="#A" x="7.032" y="2.5"/><symbol id="A" overflow="visible"><g fill="#c00" stroke="none"><path d="M195.87 69.598V80h18.587c3.808 0 10.345-2.816 10.572-10.69v-4.023c0-6.724-5.457-10.69-10.572-10.69h-9.265V49.77h18.359V39.31h-17.62c-4.547 0-10.629 3.793-10.629 10.862v3.621c0 7.069 6.025 10.69 10.629 10.69 12.789.057-3.069 0 8.753 0v5.057M96.287 67.069s9.947-.862 9.947-13.851-12.05-14.195-12.05-14.195H72.471V80h10.913v-9.885L92.82 80h16.142L96.287 67.069zm-4.206-8.391h-8.696V49.31h8.753s2.444.919 2.444 4.655-2.501 4.713-2.501 4.713zm41.095-19.368h-11.084c-7.901 0-10.572 7.241-10.572 10.69v30h11.084v-7.184h10.402V80h10.743V50c0-8.736-7.844-10.69-10.572-10.69zm-.171 21.897h-10.459v-9.943s0-2.241 3.467-2.241h3.808c3.069 0 3.126 2.241 3.126 2.241v9.943h.057z"/><path d="M148.807 39.31h11.539V80h-11.538zm27.738 30.172V39.31h-11.482v30.172V80h11.482 15.517V69.482z"/><use xlink:href="#C"/><use xlink:href="#C"/><path d="M3.979 80h44.903S40.3 40.402 68.72 24.368c6.196-3.046 25.919-14.425 58.204 9.713 1.023-.862 1.989-1.552 1.989-1.552S99.356 2.701 66.446 6.035C49.849 7.529 29.5 22.759 17.564 42.874S3.979 80 3.979 80zM97.537 9.253l.227-3.851c-.511-.287-1.933-.977-5.513-2.011l-.227 3.793a90.6 90.6 0 0 1 5.514 2.069z"/><path d="M92.137 21.437l-.227 3.621a31.36 31.36 0 0 1 5.627.69l.227-3.563c-1.932-.402-3.808-.632-5.627-.747zM71.107 3.506h.568L70.538 0c-1.762 0-3.581.115-5.457.345l1.08 3.391c1.648-.172 3.297-.23 4.945-.23zm2.728 21.15l1.307 3.965c1.648-.805 3.297-1.494 4.945-2.011l-1.251-3.793a40.94 40.94 0 0 0-5.002 1.839zM48.03 9.54l-2.558-3.966-4.434 2.471 2.615 4.023L48.03 9.54zm11.652 25.862l2.728 4.138c.966-1.437 2.103-2.759 3.353-4.08l-2.558-3.908c-1.307 1.207-2.501 2.529-3.524 3.851zM51.44 53.908l4.604 3.678a46.36 46.36 0 0 1 1.194-6.724l-4.092-3.276c-.739 2.126-1.251 4.253-1.705 6.322zM26.544 26.609l-4.036-3.563-4.206 4.31 4.377 3.793 3.865-4.54zM9.379 52.299l-6.537-2.414L0 56.782l6.537 2.414 2.842-6.896zm41.209 16.207c.114 3.046.398 5.517.682 7.241l6.821 2.471-1.364-7.471-6.139-2.241z"/></g></symbol><defs ><path id="C" d="M3.979 80h44.903S40.3 40.403 68.72 24.368c6.196-3.046 25.919-14.425 58.204 9.713 1.023-.862 1.989-1.552 1.989-1.552S99.356 2.702 66.446 6.035c-16.54 1.494-36.889 16.724-48.825 36.839S3.979 80 3.979 80z"/></defs></svg>