<svg xmlns="http://www.w3.org/2000/svg" xmlns:xlink="http://www.w3.org/1999/xlink" viewBox="0 0 111 39" fill="#fff" fill-rule="evenodd" stroke="#000" stroke-linecap="round" stroke-linejoin="round"><use xlink:href="#A" x=".5" y=".5"/><symbol id="A" overflow="visible"><path d="M34.029 1.943a17.24 17.24 0 0 1-1.998 3.544C27.253.711 20.276-1.126 13.766.687a18.79 18.79 0 0 0-13.2 13.51c-1.65 6.553.37 13.48 5.263 18.14l.693.612a18.75 18.75 0 0 0 30.781-13.005c.5-4.775-.9-10.817-3.284-18zM8.506 32.445c-.408.504-1.08.713-1.702.53s-1.072-.725-1.14-1.37.26-1.267.83-1.577 1.27-.244 1.774.164c.687.557.793 1.566.236 2.254zm25.443-5.617c-4.628 6.165-14.5 4.086-20.847 4.384 0 0-1.123.066-2.254.252 0 0 .426-.182.972-.387 4.45-1.55 6.553-1.847 9.256-3.238 5.1-2.587 10.123-8.253 11.17-14.143-1.936 5.666-7.815 10.538-13.167 12.517-3.668 1.352-10.294 2.668-10.294 2.668l-.267-.143c-4.509-2.19-4.659-11.954 3.541-15.103 3.6-1.383 7.025-.624 10.902-1.55 4.14-.984 8.93-4.086 10.88-8.133 2.18 6.475 4.806 16.6.097 22.88zm7.367-2.042a1.2 1.2 0 0 1-.581-1.087c-.004-.338.129-.663.368-.902a1.25 1.25 0 0 1 .902-.366 1.37 1.37 0 0 1 .671.18 7.22 7.22 0 0 0 3.937 1.32c1.346 0 2.122-.582 2.122-1.483v-.05c0-1.061-1.455-1.425-3.056-1.917-2.018-.582-4.272-1.399-4.272-4.013v-.053c0-2.591 2.149-4.164 4.868-4.164 1.493.028 2.958.41 4.274 1.116a1.33 1.33 0 0 1 .75 1.192 1.26 1.26 0 0 1-1.294 1.27c-.217.004-.431-.05-.62-.157-1.113-.582-2.253-.933-3.199-.933-1.215 0-1.917.582-1.917 1.346v.053c0 1.01 1.483 1.425 3.082 1.942 1.995.628 4.246 1.527 4.246 3.986v.053c0 2.873-2.227 4.296-5.074 4.296a9.34 9.34 0 0 1-5.211-1.632zm11.467-10.951c-.009-.416.151-.819.443-1.116s.691-.464 1.107-.463a1.57 1.57 0 0 1 1.579 1.579v.948c1.01-1.425 2.434-2.565 4.652-2.565 3.199 0 6.342 2.536 6.342 7.095v.053c0 4.53-3.109 7.092-6.342 7.092-2.282 0-3.708-1.14-4.652-2.407v4.826a1.57 1.57 0 0 1-1.567 1.567 1.57 1.57 0 0 1-1.567-1.567zm10.953 5.525v-.052c0-2.64-1.788-4.362-3.911-4.362s-3.986 1.769-3.986 4.362v.052c0 2.617 1.864 4.362 3.986 4.362s3.911-1.669 3.911-4.37zm4.37-5.522a1.55 1.55 0 0 1 .444-1.117c.292-.297.692-.464 1.109-.462s.823.162 1.12.459.462.7.459 1.12v.753c.157-1.164 2.073-2.326 3.443-2.326.42-.03.833.124 1.131.422a1.45 1.45 0 0 1 .422 1.13 1.47 1.47 0 0 1-1.241 1.503c-2.227.387-3.754 2.326-3.754 5.033v4.507a1.56 1.56 0 0 1-1.579 1.553 1.54 1.54 0 0 1-1.553-1.553zm9.313.007a1.55 1.55 0 0 1 1.553-1.579 1.57 1.57 0 0 1 1.579 1.579V24.87a1.57 1.57 0 0 1-1.566 1.507 1.57 1.57 0 0 1-1.566-1.507zm4.714.006c-.009-.417.151-.819.444-1.117s.692-.464 1.109-.462a1.57 1.57 0 0 1 1.579 1.579v.642c.928-1.448 2.553-2.296 4.272-2.227 3.079 0 4.868 2.071 4.868 5.234v7.362c.007.414-.154.813-.447 1.106s-.692.454-1.106.447a1.55 1.55 0 0 1-1.59-1.553v-6.398c0-2.122-1.061-3.341-2.925-3.341-1.812 0-3.079 1.27-3.079 3.393v6.345c-.032.842-.724 1.507-1.566 1.507a1.57 1.57 0 0 1-1.566-1.507zm26.042-1.62a1.57 1.57 0 0 0-1.579 1.579v.93c-1.01-1.425-2.434-2.567-4.653-2.567-3.199 0-6.345 2.536-6.345 7.092v.053c-.009 4.534 3.1 7.092 6.336 7.092 2.265 0 3.687-1.125 4.652-2.387-.157 2.463-1.664 3.763-4.307 3.763a8.37 8.37 0 0 1-4.205-1.085 1.25 1.25 0 0 0-.567-.128c-.718 0-1.306.573-1.323 1.291-.012.561.341 1.065.872 1.245 1.642.81 3.45 1.228 5.28 1.219 2.46 0 4.375-.582 5.621-1.837 1.137-1.14 1.744-2.852 1.744-5.152v-9.534a1.55 1.55 0 0 0-1.529-1.579zm-5.49 11.471c-2.149 0-3.908-1.683-3.908-4.375v-.052c0-2.64 1.786-4.362 3.908-4.362s3.986 1.747 3.986 4.362v.052c0 2.614-1.861 4.375-3.986 4.375zM77.407 8.49c0-.875.704-1.579 1.579-1.579s1.579.704 1.579 1.579-.704 1.579-1.579 1.579-1.579-.704-1.579-1.579z" stroke="none" fill="#68bd45" fill-rule="nonzero"/></symbol><defs /></svg>