<svg width="24" height="24" viewBox="0 0 24 24" xmlns="http://www.w3.org/2000/svg"><g fill="none" fill-rule="evenodd"><path d="M0 0h24v24H0z"/><path d="M10.586 12l-2.122 2.121a1 1 0 001.415 1.415L12 13.414l.707.707a2 2 0 010 2.829L9.88 19.778a2 2 0 01-2.829 0L4.222 16.95a2 2 0 010-2.829l2.828-2.828a2 2 0 012.829 0l.707.707z" fill="#335EEA" opacity=".3"/><path d="M13.414 12l2.122-2.121a1 1 0 10-1.415-1.415L12 10.586l-.707-.707a2 2 0 010-2.829l2.828-2.828a2 2 0 012.829 0l2.828 2.828a2 2 0 010 2.829l-2.828 2.828a2 2 0 01-2.829 0L13.414 12z" fill="#335EEA"/></g></svg>