<svg width="24" height="24" viewBox="0 0 24 24" xmlns="http://www.w3.org/2000/svg"><g fill="none" fill-rule="evenodd"><path d="M0 0h24v24H0z"/><path d="M3.5 21h17a1.5 1.5 0 001.5-1.5v-11A1.5 1.5 0 0020.5 7H10L7.44 4.44A1.5 1.5 0 006.378 4H3.5A1.5 1.5 0 002 5.5v14A1.5 1.5 0 003.5 21z" fill="#335EEA" opacity=".3"/><path d="M10.927 10.855v1.956H8.92a.5.5 0 00-.5.5v1.024a.5.5 0 00.5.5h2.008v1.956a.5.5 0 00.823.382l3.506-2.968a.5.5 0 000-.764l-3.506-2.968a.5.5 0 00-.823.382z" fill="#335EEA"/></g></svg>