<svg viewBox="0 0 322 83" fill="none" xmlns="http://www.w3.org/2000/svg"><path fill-rule="evenodd" clip-rule="evenodd" d="M39.324 37.727v14.106h25.37A26.036 26.036 0 0140.336 68.17c-13.86-.466-24.855-11.85-24.855-25.736 0-13.886 10.996-25.27 24.855-25.736a26.2 26.2 0 0122.015 11.847h16.952C73.158 12.377 57.613 1.746 40.337 1.896 18.1 2.421.449 20.803.797 43.07c.347 22.268 18.564 40.088 40.805 39.917 22.241-.17 40.183-18.268 40.19-40.539a40.281 40.281 0 00-.29-4.692H39.324v-.03zM91.049 42.448c-.365-16.847 9.493-32.238 24.937-38.934a41.357 41.357 0 0145.42 8.428c12.022 11.793 15.717 29.699 9.347 45.296-6.37 15.598-21.536 25.782-38.365 25.762a40.85 40.85 0 01-29.071-11.69 40.955 40.955 0 01-12.268-28.862zm66.854 0c-.128-14.059-11.588-25.366-25.63-25.286-14.041.08-25.373 11.516-25.341 25.575.031 14.06 11.414 25.445 25.456 25.462a25.353 25.353 0 0018.157-7.511 25.42 25.42 0 007.358-18.24zM184.633 3.2h29.362c17.849 0 26.759 7.734 26.759 22.043a16.717 16.717 0 01-8.678 15.149 18.48 18.48 0 0111.571 17.958c0 15.584-9.662 23.318-27.511 23.318h-31.503V3.2zm15.303 13.759v17.379H214.4c8.997 0 10.906-4.78 10.906-9.124 0-4.345-2.892-8.284-10.154-8.284h-15.216v.029zm0 31.398v19.58h16.808c8.678 0 11.426-5.01 11.426-9.905s-2.893-9.675-11.426-9.675h-16.808zM303.874 3.2l-19.382 32.992L264.532 3.2h-18.225l29.825 47.214-18.399 31.254h17.589L321.347 3.2h-17.473z" fill="currentColor"/></svg>