<svg width="24" height="24" viewBox="0 0 24 24" xmlns="http://www.w3.org/2000/svg"><g fill="none" fill-rule="evenodd"><path d="M0 0h24v24H0z"/><path d="M5.5 4h4A1.5 1.5 0 0111 5.5v1A1.5 1.5 0 019.5 8h-4A1.5 1.5 0 014 6.5v-1A1.5 1.5 0 015.5 4zm9 12h4a1.5 1.5 0 011.5 1.5v1a1.5 1.5 0 01-1.5 1.5h-4a1.5 1.5 0 01-1.5-1.5v-1a1.5 1.5 0 011.5-1.5z" fill="#335EEA"/><path d="M5.5 10h4a1.5 1.5 0 011.5 1.5v7A1.5 1.5 0 019.5 20h-4A1.5 1.5 0 014 18.5v-7A1.5 1.5 0 015.5 10zm9-6h4A1.5 1.5 0 0120 5.5v7a1.5 1.5 0 01-1.5 1.5h-4a1.5 1.5 0 01-1.5-1.5v-7A1.5 1.5 0 0114.5 4z" fill="#335EEA" opacity=".3"/></g></svg>