<svg width="24" height="24" viewBox="0 0 24 24" xmlns="http://www.w3.org/2000/svg"><g fill="none" fill-rule="evenodd"><path d="M0 0h24v24H0z"/><rect fill="#335EEA" x="4" y="4" width="7" height="7" rx="1.5"/><path d="M5.5 13h4a1.5 1.5 0 011.5 1.5v4A1.5 1.5 0 019.5 20h-4A1.5 1.5 0 014 18.5v-4A1.5 1.5 0 015.5 13zm9-9h4A1.5 1.5 0 0120 5.5v4a1.5 1.5 0 01-1.5 1.5h-4A1.5 1.5 0 0113 9.5v-4A1.5 1.5 0 0114.5 4zm0 9h4a1.5 1.5 0 011.5 1.5v4a1.5 1.5 0 01-1.5 1.5h-4a1.5 1.5 0 01-1.5-1.5v-4a1.5 1.5 0 011.5-1.5z" fill="#335EEA" opacity=".3"/></g></svg>