<svg width="24" height="24" viewBox="0 0 24 24" xmlns="http://www.w3.org/2000/svg"><g fill="none" fill-rule="evenodd"><path d="M0 0h24v24H0z"/><path d="M19 11h2a1 1 0 010 2h-2a1 1 0 010-2zM3 11h2a1 1 0 010 2H3a1 1 0 010-2zm9-9a1 1 0 011 1v2a1 1 0 01-2 0V3a1 1 0 011-1zm0 16a1 1 0 011 1v2a1 1 0 01-2 0v-2a1 1 0 011-1z" fill="#335EEA" opacity=".3"/><circle fill="#335EEA" opacity=".3" cx="12" cy="12" r="2"/><path d="M12 17a5 5 0 100-10 5 5 0 000 10zm0 2a7 7 0 110-14 7 7 0 010 14z" fill="#335EEA"/></g></svg>