<svg width="24" height="24" viewBox="0 0 24 24" xmlns="http://www.w3.org/2000/svg"><g fill="none" fill-rule="evenodd"><path d="M0 0h24v24H0z"/><path d="M17.928 4.465A5.986 5.986 0 0120 9v7a6 6 0 01-6 6h-4a6 6 0 01-6-6V9c0-1.811.803-3.435 2.072-4.535C6.518 5.9 9.002 7 12 7c2.998 0 5.482-1.1 5.928-2.535z" fill="#335EEA" opacity=".3"/><path d="M15.348 3.668C14.524 3.255 13.317 3 12 3c-1.317 0-2.524.255-3.348.668A2.71 2.71 0 008.125 4c.124.105.301.22.527.332C9.476 4.745 10.683 5 12 5c1.317 0 2.524-.255 3.348-.668A2.71 2.71 0 0015.875 4a2.71 2.71 0 00-.527-.332z" fill="#335EEA"/></g></svg>