<svg width="24" height="24" viewBox="0 0 24 24" xmlns="http://www.w3.org/2000/svg"><g fill="none" fill-rule="evenodd"><path d="M0 0h24v24H0z"/><path d="M4 6h16a1 1 0 011 1v1a1 1 0 01-1 1H4a1 1 0 01-1-1V7a1 1 0 011-1zm1 5h5a1 1 0 011 1v7a1 1 0 01-1 1H5a1 1 0 01-1-1v-7a1 1 0 011-1zm9 0h5a1 1 0 011 1v7a1 1 0 01-1 1h-5a1 1 0 01-1-1v-7a1 1 0 011-1z" fill="#335EEA"/><path d="M14.445 2.168a1 1 0 011.11 1.664L12 6.202l-3.555-2.37a1 1 0 011.11-1.664L12 3.798l2.445-1.63z" fill="#335EEA" opacity=".3"/></g></svg>