<svg width="24" height="24" viewBox="0 0 24 24" xmlns="http://www.w3.org/2000/svg"><g fill="none" fill-rule="evenodd"><path d="M0 0h24v24H0z"/><path d="M3.877 3.746l18.352 4.917a1 1 0 01.707 1.225l-2.588 9.66a1 1 0 01-1.225.706L.771 15.337a1 1 0 01-.707-1.225l2.588-9.66a1 1 0 011.225-.706zm6.588 12.118a4 4 0 102.07-7.728 4 4 0 00-2.07 7.728z" fill="#335EEA" opacity=".3"/><path d="M2 6h19a1 1 0 011 1v10a1 1 0 01-1 1H2a1 1 0 01-1-1V7a1 1 0 011-1zm9.5 10a4 4 0 100-8 4 4 0 000 8zm0-2a2 2 0 100-4 2 2 0 000 4z" fill="#335EEA"/></g></svg>