<svg width="24" height="24" viewBox="0 0 24 24" xmlns="http://www.w3.org/2000/svg"><g fill="none" fill-rule="evenodd"><path d="M0 0h24v24H0z"/><path d="M11 12H2v-1a3 3 0 013-3h3a3 3 0 013 3v1zm0 2v6a1 1 0 01-1 1H3a1 1 0 01-1-1v-6h9z" fill="#335EEA"/><path d="M22 12h-9v-1a3 3 0 013-3h3a3 3 0 013 3v1zm0 2v6a1 1 0 01-1 1h-7a1 1 0 01-1-1v-6h9zM5 3h3a1 1 0 011 1v1a1 1 0 01-1 1H5a1 1 0 01-1-1V4a1 1 0 011-1zm11 0h3a1 1 0 011 1v1a1 1 0 01-1 1h-3a1 1 0 01-1-1V4a1 1 0 011-1z" fill="#335EEA" opacity=".3"/></g></svg>