<svg width="24" height="24" viewBox="0 0 24 24" xmlns="http://www.w3.org/2000/svg"><g fill="none" fill-rule="evenodd"><path d="M0 0h24v24H0z"/><path d="M5.747 14.043A6 6 0 1114.811 7.5h2.439a3.75 3.75 0 010 7.5h-9c-.962 0-1.84-.362-2.503-.957z" fill="#335EEA"/><path d="M6.5 21A1.5 1.5 0 015 19.5c0-.552.5-1.386 1.5-2.5 1 1.114 1.5 1.948 1.5 2.5A1.5 1.5 0 016.5 21zm5 0a1.5 1.5 0 01-1.5-1.5c0-.552.5-1.386 1.5-2.5 1 1.114 1.5 1.948 1.5 2.5a1.5 1.5 0 01-1.5 1.5zm5 0a1.5 1.5 0 01-1.5-1.5c0-.552.5-1.386 1.5-2.5 1 1.114 1.5 1.948 1.5 2.5a1.5 1.5 0 01-1.5 1.5z" fill="#335EEA" opacity=".3"/></g></svg>