<svg viewBox="0 0 2761 991" xmlns="http://www.w3.org/2000/svg"><path d="M951.211 442.866c25.294 0 45.797-20.48 45.797-45.739 0-25.263-20.503-45.738-45.797-45.738-25.294 0-45.797 20.475-45.797 45.738 0 25.26 20.503 45.739 45.797 45.739zm1511.432 156.271c-6.967-4.891-12.345-5.702-16.808 3.797-76.919 166.334-206.54 83.33-193.664 90.636 28.751-13.132 104.37-73.682 92.94-157.289-6.94-51.095-50.864-73.76-97.486-65.644-81.381 14.166-111.32 101.806-96.078 179.397 2.667 13.325 7.432 24.315 12.193 35.08-91.965 74.669-128.486-66.842-132.63-83.753-.164-.905 71.01-60.137 90.805-201.281 20.748-147.928-26.516-174.864-74.847-174.023-89.436 1.556-113.603 188.124-81.135 343.615-2.72.707-15.375 7.706-35.71 8.49-14.632-45.97-77.156-86.266-93.519-70.738-40.954 38.842 9.932 114.782 45.737 120.738-21.51 132.267-156.021 99.51-130.982-66.2 43.803-81.215 77.117-201.975 71.173-274.877-2.106-25.81-21.219-60.39-64.443-58.675-83.139 3.284-92.177 189.904-82.43 322.356-.484-3.263-5.111 16.092-39.18 25.715-8.06-44.66-80.083-89.49-97.038-67.937-31.738 40.338 23.266 112.262 49.32 117.278-21.51 132.263-156.017 99.505-130.977-66.204 43.802-81.21 77.112-201.971 71.168-274.873-2.106-25.814-21.215-60.395-64.443-58.684-83.139 3.288-92.177 189.908-82.43 322.36-.489-3.314-5.224 16.679-40.683 26.142-1.187-57.942-73.474-84.511-90.839-66.023-30.948 32.956 7.088 100.574 42.275 117.282-21.508 132.263-156.016 99.505-130.977-66.204 43.803-81.21 77.117-201.971 71.17-274.873-2.103-25.814-21.216-60.395-64.445-58.684-83.134 3.288-89.824 199.29-80.078 331.738-27.383 117.14-119.214 263.426-107.284-29.616 1.179-20.557 2.465-28.361-7.8-36.058-7.691-5.982-25.181-3.103-34.742-2.866-11.62.465-14.534 7.253-17.102 17.514-5.982 26.496-7.057 52.181-7.912 87.227-.56 16.394-1.877 24.043-8.201 46.397-6.315 22.35-42.344 63.201-62.07 56.37-27.366-9.395-18.388-86.528-13.26-139.524 4.273-41.88-9.41-60.688-44.467-67.527-20.525-4.271-32.995-3.616-54.37-10.344-20.213-6.36-24.785-44.535-67.897-31.813-23.58 6.964-8.421 56.848-14.089 93.82-27.862 181.871-85.835 186.866-112.731 98.518 121.131-296.205 35.04-412.978-15.353-412.978-52.488 0-112.486 36.097-87.08 267.059-12.353-3.599-16.152-5.538-29.675-5.538-76.482 0-128.59 61.731-128.59 137.882 0 76.151 52.112 137.887 128.595 137.887 45.15 0 76.849-20.501 100.857-52.216 15.664 22.397 34.738 52.56 69.619 51.203 103.969-4.043 134.205-216.977 137.775-228.854 11.115 1.71 21.63 4.947 31.894 6.658 17.102 2.564 18.345 9.322 17.956 26.496-4.532 144.82 22.234 195.528 82.948 195.528 33.828 0 63.978-33.185 84.749-56.913 15.513 31.968 40.233 55.934 73.396 56.908 80.358 1.996 111.126-125.884 108.32-109.055-2.201 13.205 26.071 108.335 108.8 108.68 102.475.431 121.523-112.085 123.794-130.93.284-3.75.41-3.362 0 0l-.078 1.142c32.533-6.043 49.32-23.458 49.32-23.458s26.122 154.996 122.887 153.25c100.486-1.818 119.435-103.525 121.921-123.358.328-4.706.522-4.155 0 0l-.039.582c38.645-14.037 48.81-28.125 48.81-28.125s20.762 151.914 122.888 153.242c91.007 1.19 124.736-91.86 124.934-130.806 15.35.164 43.743-9.093 43.078-9.62 0 0 33.335 132.824 126.427 139.646 43.708 3.202 76.495-24.557 95.186-37.218 43.923 35.515 190.185 80.879 282.538-75.453 13.036-22.436-14.99-48.94-19.911-52.401zM400.883 712.64c-44.623 0-73.236-41.196-73.236-85.615 0-44.415 26.265-85.611 70.888-85.611 20.08 0 31.25 2.206 46.889 15.786 2.836 11.158 10.873 36.895 14.784 48.582 5.24 15.64 11.473 28.953 17.757 43.441-8.978 37.162-38.411 63.417-77.082 63.417zm108.739-154.134c-1.856-2.952-1.468-1.138-3.544-3.926-8.18-22.216-23.943-71.803-25.769-128.126-2.063-63.713 8.572-138.395 39.927-138.395 21.245 0 43.824 151.355-10.619 270.447h.005zm628.3-66.386c-5.033-37.808-5.297-206.358 35.23-201.716 22.376 9.05-14.188 168.097-35.23 201.716zm295.928 0c-5.033-37.808-5.296-206.358 35.23-201.716 22.377 9.05-14.188 168.097-35.23 201.716zm293.58 2.349c-5.037-37.813-5.296-206.362 35.226-201.72 22.376 9.05-14.188 168.1-35.226 201.72zm324.11-213.93c37.052-3.835 35.524 157.715-38.848 259.707-9.59-36.865-24.297-247.05 38.848-259.711v.004zm155.736 347.623c-11.9-60.02 18.85-99.44 50.55-103.763 11.08-1.767 27.136 5.4 30.34 18.799 5.265 25.25-.765 62.705-71.714 110.227.104.405-6.522-11.894-9.172-25.263h-.004z" fill="currentColor" fill-rule="nonzero"/></svg>