<svg xmlns="http://www.w3.org/2000/svg" xmlns:xlink="http://www.w3.org/1999/xlink" viewBox="0 0 99 33" fill="#fff" fill-rule="evenodd" stroke="#000" stroke-linecap="round" stroke-linejoin="round"><use xlink:href="#A" x=".5" y=".5"/><symbol id="A" overflow="visible"><g stroke="none" fill-rule="nonzero"><path d="M0 25.527l.192-.268L9.248 8.074l.019-.182L5.275.393C4.94-.235 3.999-.076 3.889.627z" fill="#ffc24a"/><use xlink:href="#C" fill="#ffa712"/><use xlink:href="#C" fill="#000"/><path d="M12.178 13.564l2.973-3.044-2.973-5.676a.77.77 0 0 0-1.35 0L9.239 7.874v.258z" fill="#f4bd62"/><use xlink:href="#D" fill="#ffa50e"/><use xlink:href="#D" fill="#000"/><path d="M9.247 7.857L0 25.527l.087-.087.315-.128 11.589-11.546.147-.4z" fill="#f6820c"/><path d="M12.549 31.35l10.488-5.85-2.994-18.447a.72.72 0 0 0-1.215-.391L0 25.527l10.428 5.822c.659.368 1.462.368 2.121 0" fill="#fde068"/><path d="M22.943 25.452L19.971 7.146c-.093-.573-.682-.81-1.092-.399L.117 25.491l10.314 5.764a2.16 2.16 0 0 0 2.105.001z" fill="#fcca3f"/><path d="M12.549 31.178c-.658.368-1.462.367-2.121-.001L.084 25.439 0 25.528l10.428 5.822c.659.368 1.462.368 2.121 0l10.488-5.849-.026-.158z" fill="#eeab37"/><path d="M30.979 22.818h-1.785V8.926h8.1v1.707h-6.315v4.56h5.705v1.67h-5.705zm9.453-11.894c-.246.246-.543.37-.892.37a1.21 1.21 0 0 1-.892-.37 1.22 1.22 0 0 1-.37-.892 1.21 1.21 0 0 1 .37-.892 1.22 1.22 0 0 1 .892-.37 1.21 1.21 0 0 1 .892.37 1.22 1.22 0 0 1 .37.892 1.21 1.21 0 0 1-.37.892zm0 11.894h-1.785v-9.507h1.785zm3.853 0h-1.786v-9.507h1.707v1.552h.077c.18-.517.553-.944 1.116-1.28s1.1-.505 1.64-.505.977.078 1.34.233l-.68 1.67c-.233-.1-.55-.136-.95-.136-.647 0-1.22.255-1.717.766s-.747 1.18-.747 2.008v5.2zm8.788.3c-1.436 0-2.603-.478-3.502-1.436s-1.35-2.166-1.35-3.628c0-1.384.436-2.574 1.3-3.57s2-1.494 3.347-1.494c1.4 0 2.538.46 3.386 1.378s1.27 2.147 1.27 3.687l-.02.33h-7.5c.052.957.372 1.714.96 2.27a2.91 2.91 0 0 0 2.067.834c1.28 0 2.147-.543 2.6-1.63l1.6.66c-.3.737-.822 1.355-1.533 1.853s-1.585.747-2.62.747zm2.56-6.2c-.04-.543-.288-1.06-.747-1.552s-1.142-.737-2.047-.737c-.66 0-1.232.207-1.717.62s-.818.97-1 1.67h5.5zm8.363 6.2c-.725 0-1.375-.155-1.95-.466s-1.006-.698-1.3-1.164h-.067v1.32h-1.707V8.926h1.785v4.385l-.078 1.32h.078c.285-.466.715-.854 1.3-1.164s1.226-.466 1.95-.466c1.23 0 2.3.485 3.182 1.455s1.34 2.173 1.34 3.6-.446 2.64-1.34 3.6-1.953 1.455-3.182 1.455zm-.3-1.63c.828 0 1.54-.314 2.134-.94s.892-1.458.892-2.493-.298-1.866-.892-2.493-1.307-.94-2.134-.94a2.81 2.81 0 0 0-2.144.93c-.588.63-.883 1.455-.883 2.503s.294 1.882.883 2.503 1.303.932 2.144.932zm9.513 1.63c-1 0-1.853-.3-2.532-.873s-1.02-1.352-1.02-2.3c0-1.035.4-1.846 1.203-2.435s1.792-.883 2.97-.883c1.048 0 1.908.194 2.58.582v-.272c0-.7-.24-1.258-.718-1.678s-1.067-.63-1.766-.63c-.518 0-.987.123-1.407.37a1.9 1.9 0 0 0-.863 1.009l-1.63-.698c.22-.57.653-1.096 1.3-1.58s1.5-.728 2.56-.728c1.216 0 2.225.356 3.027 1.067s1.203 1.714 1.203 3.007v5.743h-1.697v-1.32h-.078c-.712 1.086-1.753 1.63-3.124 1.63zm.3-1.63c.737 0 1.407-.275 2.008-.825s.902-1.2.902-1.95c-.504-.414-1.26-.62-2.27-.62-.867 0-1.52.188-1.96.563s-.66.815-.66 1.32c0 .466.2.834.602 1.106s.86.408 1.378.408zm9.8 1.63c-1.06 0-1.937-.26-2.63-.776a4.59 4.59 0 0 1-1.523-1.94l1.6-.66c.504 1.2 1.365 1.785 2.58 1.785.556 0 1.012-.123 1.368-.37s.534-.57.534-.97c0-.62-.433-1.04-1.3-1.26l-1.92-.466c-.608-.155-1.184-.45-1.727-.883s-.812-.997-.812-1.745c0-.84.372-1.523 1.116-2.047S82.222 13 83.245 13c.84 0 1.6.2 2.25.572s1.132.928 1.417 1.64l-1.552.64c-.35-.84-1.074-1.26-2.173-1.26-.53 0-.977.1-1.34.33s-.543.517-.543.892c0 .543.42.912 1.26 1.106l1.882.446c.892.207 1.552.563 1.98 1.067s.64 1.074.64 1.707c0 .854-.35 1.565-1.048 2.134s-1.598.854-2.697.854zm9.507 0c-1.436 0-2.604-.478-3.502-1.436s-1.35-2.166-1.35-3.628c0-1.384.436-2.574 1.3-3.57s2-1.494 3.347-1.494c1.4 0 2.538.46 3.386 1.378s1.27 2.147 1.27 3.687v.33h-7.5c.05.957.372 1.714.96 2.27a2.91 2.91 0 0 0 2.066.834c1.28 0 2.147-.543 2.6-1.63l1.6.66c-.3.737-.822 1.355-1.533 1.853s-1.585.747-2.62.747zm2.56-6.2c-.04-.543-.288-1.06-.747-1.552s-1.142-.737-2.047-.737a2.56 2.56 0 0 0-1.717.621c-.485.414-.818.97-1 1.67h5.5z" fill="#63666a"/></g></symbol><defs ><path id="C" d="M.113 25.322l.145-.282L9.219 8.035 5.237.506C4.906-.116 4.066.042 3.957.738z"/><path id="D" d="M12.124 13.438l2.89-2.96-2.89-5.503c-.274-.523-.941-.577-1.213-.054L9.315 7.997l-.048.157z"/></defs></svg>