<svg xmlns="http://www.w3.org/2000/svg" xmlns:xlink="http://www.w3.org/1999/xlink" viewBox="0 0 49 65" fill="#fff" fill-rule="evenodd" stroke="#000" stroke-linecap="round" stroke-linejoin="round"><style><![CDATA[.B{stroke-width:.635}.C{stroke:none}.D{fill:#d0b698}.E{fill-rule:nonzero}]]></style><use xlink:href="#A" x=".5" y=".5"/><symbol id="A" overflow="visible"><g class="E"><g class="B"><path d="M45.84 25.081c.818.002 1.392-.222 1.598-1.034.195-.769-.151-1.758-1.056-1.901-.528-.083-1.789-.019-2.969.169a27.64 27.64 0 0 1 .743 2.59c.641.11 1.235.175 1.684.176zm1.634 24.574c-.892-.954-2.166-1.549-3.535-1.664-.437 1.145-.965 2.069-1.573 2.853 1.193.175 1.981.713 2.922 1.318 1.446.929 3.491-1.109 2.185-2.507zm-29.6 12.055c-.027 2.126 3.096 2.161 3.72.356.367-1.062.663-1.991 1.398-2.878-1.282-.095-2.55-.362-3.759-.854-.825 1.058-1.343 2.184-1.358 3.375z"/><path d="M3.671 18.763a1.2 1.2 0 1 1-.251-2.389c.154-.016.304-.001.445.038-.043-.944-.002-1.82.119-2.634C1.348 13.875.14 15.413.01 17.282c-.137 1.983 1.178 3.964 3.656 4.137.386.027.729.005 1.034-.058l-.598-2.729c-.131.069-.276.115-.431.131z" class="D"/></g><path d="M3.419 16.374a1.2 1.2 0 1 0 .251 2.389 1.19 1.19 0 0 0 .431-.131c-.127-.783-.205-1.52-.237-2.221-.141-.039-.291-.054-.445-.037z" fill="#000" class="C"/><path d="M32.433 3.646a1.16 1.16 0 0 1 .188-.2 1.2 1.2 0 1 1 1.567 1.818 24.3 24.3 0 0 1 1.754 1.993 3.94 3.94 0 0 0 .511-.705c1.242-2.151.336-4.351-1.385-5.344-1.494-.862-3.265-.811-4.75.864l.576.387 1.539 1.185z" class="B D"/><path d="M34.313 3.595a1.2 1.2 0 0 0-1.691-.149c-.07.059-.133.126-.188.2.582.485 1.17 1.024 1.756 1.62a1.2 1.2 0 0 0 .124-1.671z" fill="#000" class="C"/><g class="B"><path d="M13.118 55.039c.206.461 1.337.488 2.093-.014-.392-.645-.694-1.34-.928-2.066-.805.532-1.488 1.357-1.165 2.08z"/><path d="M44.155 24.904l-.743-2.59c-.69-2.001-1.547-3.55-2.555-4.395-.967-4.512-2.823-8.004-4.914-10.66-.548-.696-1.134-1.361-1.754-1.993-.558-.569-1.144-1.109-1.755-1.62-.523-.437-1.039-.832-1.539-1.185a14.74 14.74 0 0 0-.576-.387c-4.024-2.569-9.514-3.298-16.895 1.013-5.144 3.004-8.718 5.778-9.441 10.69-.12.815-.161 1.69-.118 2.634.032.7.11 1.439.237 2.221.139.857.339 1.764.598 2.728a40.62 40.62 0 0 0 .955 3.04c1.284 3.613 3.624 7.088 4.951 9.097 1.343 2.037 2.618 5.809 2.817 9.523.15 2.794-.188 6.679.86 9.939.233.726.536 1.421.928 2.066.692 1.14 1.663 2.124 3.028 2.848.325.172.657.325.992.462 1.209.492 2.477.759 3.759.854 5.339.396 10.92-2.177 13.456-3.791 2.336-1.486 4.38-2.568 5.918-4.552.607-.783 1.136-1.707 1.573-2.853.511-1.342.896-2.988 1.134-5.067.679-5.952.311-12.862-.917-18.02z" class="D"/><path d="M19.089 6.843c0-3.007 2.463-5.427 5.522-5.427s5.522 2.42 5.522 5.427-2.463 5.427-5.522 5.427-5.522-2.42-5.522-5.427zM6.733 13.126c0-3.006 2.463-5.427 5.522-5.427s5.522 2.42 5.522 5.427-2.463 5.427-5.522 5.427-5.522-2.42-5.522-5.427z"/></g><g class="C"><path d="M25.896 5.986a1.71 1.71 0 1 1 3.428 0 1.71 1.71 0 1 1-3.428 0z" fill="#000"/><path d="M28.086 6.081a.38.38 0 0 1 .762 0 .38.38 0 1 1-.762 0z"/><path d="M13.424 11.984a1.71 1.71 0 1 1 3.428 0 1.71 1.71 0 1 1-3.428 0z" fill="#000"/><path d="M15.614 12.079a.38.38 0 0 1 .762 0 .38.38 0 1 1-.762 0z"/></g><path d="M22.224 17.569c-1.022.477-.984 1.004-1.781 1.557l.844 2.187c.778 1.981 3.049.449 2.532-.71l-1.39-3.121-.206.088zm2.739-.5c-1.17.472-1.538.025-2.533.412l1.39 3.121c.516 1.16 3.174.497 2.221-1.407l-1.079-2.127zm8.783 13.052c-.721-.321-2.073-.5-3.316-.379-.115.618-.348 1.227-.816 1.835 1.037.604 2.034 1.018 2.849 1.238.789.214 1.402.146 1.811-.585.387-.693.309-1.738-.528-2.11z" class="B"/></g><path d="M27.808 33.15c.825-.527 1.402-1.049 1.805-1.573.468-.608.701-1.217.816-1.835.09-.486.108-.978.108-1.479" fill="none" class="B"/><g class="E"><path d="M25.198 13.923c-.622-.265-1.232-.29-1.952-.112-.123.676-.841 1.437-1.874 1.896-.994.442-1.999.482-2.594.164-.653.455-1.052.952-1.259 1.633-.405 1.334.642 2.596 1.797 2.175.512-.187.865-.37 1.127-.553.797-.553.758-1.081 1.781-1.557l.206-.088c.995-.387 1.363.06 2.533-.412.218-.088.463-.207.747-.371 1.065-.614.771-2.228-.511-2.775z" fill="#ac967b" class="B"/><path d="M21.372 15.707c1.033-.46 1.751-1.22 1.874-1.896.037-.204.021-.401-.059-.58-.342-.769-1.71-.906-3.055-.307s-2.158 1.707-1.816 2.476a1 1 0 0 0 .461.471c.596.319 1.601.279 2.594-.164z" fill="#000" class="C"/></g><path d="M47.484 23.787c-.47-.093-1.154-.211-1.722-.235m1.627 28.177c-.163-.451-.604-1.328-1.503-1.709M19.402 63.252a3.81 3.81 0 0 1 .049-2.494m14.934-28.766c-.43-.211-1.06-.502-1.602-.673" fill="none" class="B"/></symbol><defs /></svg>