<svg viewBox="0 0 2761 991" xmlns="http://www.w3.org/2000/svg"><path d="M992.911 584.893v-179.4c0-11.04 8.967-20.01 20.004-20.01 11.036 0 20.004 8.97 20.004 20.01v179.4c0 11.04-8.968 20.01-20.004 20.01-10.347 0-20.004-8.97-20.004-20.01zm229.008 7.59l-86.912-138.69v131.1c0 11.04-8.968 20.01-20.004 20.01-11.037 0-20.004-8.97-20.004-20.01v-173.88c0-14.49 11.726-26.91 26.902-26.91h1.38c8.966 0 17.934 4.83 22.762 12.42l86.223 136.62v-129.03c0-11.04 8.967-20.01 20.004-20.01 11.036 0 20.003 8.97 20.003 20.01v173.88c0 14.49-11.726 26.91-26.901 26.91-9.657 0-18.624-4.14-23.453-12.42zm189.69-169.74v164.22a18.55 18.55 0 01-18.624 18.63h-2.759a18.55 18.55 0 01-18.624-18.63v-164.22h-46.215a18.55 18.55 0 01-18.624-18.63 18.55 18.55 0 0118.624-18.63h133.128a18.55 18.55 0 0118.624 18.63 18.55 18.55 0 01-18.624 18.63h-46.905zm97.26 164.22v-184.23c0-9.66 8.277-17.94 17.934-17.94h120.712c9.657 0 17.935 8.28 17.935 17.94 0 9.66-8.278 17.94-17.935 17.94h-98.639v51.06h84.844c9.657 0 17.934 8.28 17.934 17.94 0 9.66-8.277 17.94-17.934 17.94h-84.844v60.03h98.64c9.656 0 17.934 8.28 17.934 17.94 0 9.66-8.278 17.94-17.935 17.94h-120.712c-9.657 1.38-17.934-6.21-17.934-16.56zm325.578 6.21l-31.73-71.07h-48.975v63.48c0 11.04-8.967 20.01-20.004 20.01h-.69c-11.036 0-20.003-8.97-20.003-20.01v-180.09c0-11.04 8.967-20.01 20.004-20.01h73.117c52.423 0 76.565 33.12 76.565 68.31 0 29.67-15.865 52.44-40.007 61.41l27.591 62.1c5.519 13.11-3.449 27.6-17.934 27.6-7.588 0-15.175-4.14-17.934-11.73zm-27.592-173.19h-52.423v65.55h53.113c22.763 0 35.869-11.73 35.869-32.43-.69-17.25-13.796-33.12-36.559-33.12zm266.257 162.84c-16.555 16.56-39.318 26.22-62.77 26.22-23.453 0-45.526-7.59-62.081-24.84-24.143-24.15-27.591-53.13-27.591-89.01s3.448-65.55 27.59-89.01c16.556-16.56 38.629-24.84 62.081-24.84 23.453 0 46.216 8.97 62.77 25.53 5.519 6.21 10.347 12.42 13.796 20.01 6.208 13.11-3.449 27.6-17.934 27.6-8.278 0-15.175-4.83-18.624-12.42-1.38-4.14-4.139-7.59-6.898-11.04-6.898-8.97-19.314-13.8-33.11-13.8-12.416 0-24.832 5.52-33.799 14.49-15.175 15.87-15.175 42.78-15.175 63.48 0 20.01 0 47.61 15.175 63.48 8.967 8.97 21.383 14.49 33.8 14.49 13.795 0 26.211-4.83 33.109-13.8 2.759-3.45 5.518-7.59 6.898-11.73 2.759-7.59 10.346-12.42 18.624-12.42 14.485 0 24.142 14.49 17.934 27.6-3.449 7.59-8.277 14.49-13.795 20.01zm214.522 1.38c-16.555 16.56-40.007 24.84-63.46 24.84-23.453 0-46.215-8.28-63.46-24.84-24.142-24.15-27.591-53.13-27.591-89.01s4.138-65.55 27.591-89.01c16.555-16.56 40.007-24.84 63.46-24.84 23.453 0 46.216 8.28 63.46 24.84 24.143 24.15 27.591 53.13 27.591 89.01.69 35.88-3.448 65.55-27.59 89.01zm-28.281-151.8c-8.967-8.97-22.073-14.49-34.49-14.49-12.415 0-26.21 5.52-34.488 14.49-15.176 15.87-15.865 42.78-15.865 63.48 0 20.01.69 46.92 15.865 62.79 8.967 8.97 22.073 14.49 34.489 14.49 12.416 0 26.212-5.52 34.489-14.49 15.175-15.87 15.865-42.78 15.865-62.79 0-20.7-.69-48.3-15.865-63.48zm288.33 153.18v-137.31l-51.734 140.07c-2.76 8.28-11.037 13.8-20.004 13.8s-16.555-5.52-20.004-13.8l-51.734-142.14v139.38c0 11.04-8.967 19.32-19.313 19.32-11.037 0-19.314-8.97-19.314-19.32v-170.43c0-16.56 13.795-30.36 30.35-30.36h2.76c12.415 0 24.142 7.59 28.28 20.01l50.354 136.62 51.044-136.62c4.14-11.73 15.865-20.01 28.282-20.01 16.554 0 30.35 13.8 30.35 30.36v170.43c0 11.04-8.967 19.32-19.314 19.32-11.726 0-20.004-8.28-20.004-19.32zM713.548 184.693H247.945c-43.456 0-77.945 34.5-77.945 77.28v465.75c0 43.47 34.49 77.97 77.945 77.97H713.55c42.767 0 77.256-34.5 77.256-77.28v-465.75c0-43.47-34.49-77.97-77.256-77.97zm-150.373 113.85c0-11.73 8.968-20.7 20.694-20.7 11.726 0 20.693 8.97 20.693 20.7v276.69c0 11.73-8.967 20.7-20.693 20.7s-20.694-8.97-20.694-20.7v-276.69zm-103.467-10.35c0-11.73 8.967-20.7 20.693-20.7 11.727 0 20.694 8.97 20.694 20.7v300.15c0 11.73-8.967 20.7-20.694 20.7-11.726 0-20.693-8.97-20.693-20.7v-300.15zm-103.468 10.35c0-11.73 8.968-20.7 20.694-20.7 11.726 0 20.693 8.97 20.693 20.7v276.69c0 11.73-8.967 20.7-20.693 20.7s-20.694-8.97-20.694-20.7v-276.69zm-103.467 41.4c0-11.73 8.967-20.7 20.693-20.7 11.727 0 20.694 8.97 20.694 20.7v186.3c0 11.73-8.967 20.7-20.694 20.7-11.726 0-20.693-8.97-20.693-20.7v-186.3zm448.359 316.02c-3.449 2.76-80.015 66.93-220.73 66.93-140.716 0-217.282-64.17-220.731-66.93-8.967-7.59-9.657-20.7-2.07-28.98 7.588-8.97 20.694-9.66 28.971-2.07 1.38 0 69.668 56.58 193.83 56.58 125.54 0 193.139-56.58 193.139-57.27 8.967-7.59 22.073-6.21 28.97 2.07 8.278 8.97 6.898 22.08-1.379 29.67zm6.898-129.72c0 11.73-8.967 20.7-20.694 20.7-11.726 0-20.693-8.97-20.693-20.7v-186.3c0-11.73 8.967-20.7 20.693-20.7 11.727 0 20.694 8.97 20.694 20.7v186.3z" fill="currentColor" fill-rule="nonzero"/></svg>