<svg width="2761" height="991" viewBox="0 0 2761 991" xmlns="http://www.w3.org/2000/svg"><g fill-rule="nonzero" fill="869ab8"><path d="M1930.071 232.283c0-24.279 20.225-43.983 45.16-43.983h520.682c24.942 0 45.158 19.704 45.158 43.983v526.04c0 24.288-20.216 43.977-45.158 43.977H1975.23c-24.934 0-45.159-19.69-45.159-43.968V232.275v.008z" fill="#869ab8"/><path d="M220.071 702.3h254.824v-83.623h-162.59v-319h-92.234V702.3zm383.84 0V424.98h-92.227V702.3h92.226zm-46.106-315.175c32.155 0 52.174-21.297 52.174-47.925-.597-27.208-20.019-47.9-51.561-47.9-31.551 0-52.182 20.7-52.182 47.9 0 26.628 20.018 47.925 50.965 47.925h.604zM646.727 702.3h92.227V547.427c0-8.289.596-16.577 3.038-22.48 6.657-16.56 21.832-33.717 47.314-33.717 33.38 0 46.734 25.436 46.734 62.697v148.365h92.21V543.286c0-85.185-45.5-124.821-106.185-124.821-49.747 0-71.595 27.796-83.732 46.733h.62V424.98h-92.226c1.217 26.024 0 277.319 0 277.319zm411.634-402.624h-92.226V702.3h92.226v-89.913l23.049-29.005 72.208 118.918h113.453l-121.335-172.15 106.169-117.114h-111.02s-75.843 104.774-82.524 117.21v-230.57z" fill="#869ab8"/><path d="M1514.437 587.154c1.218-7.118 3.04-20.774 3.04-36.218 0-71.66-36.443-144.417-132.394-144.417-102.637 0-150.012 81.026-150.012 154.514 0 90.89 57.7 147.647 158.506 147.647 40.09 0 77.124-5.894 107.502-18.318l-12.148-60.856c-24.91 8.245-50.416 12.376-81.988 12.376-43.115 0-80.761-17.674-83.802-55.324l191.296.58v.016zm-191.901-62.338c2.428-23.656 18.23-58.56 57.7-58.56 41.896 0 51.625 37.263 51.625 58.56H1322.536zm422.795-224.508v139.328h-1.218c-13.366-19.501-41.3-32.513-78.325-32.513-71.066 0-133.613 56.765-133.016 153.741 0 89.89 56.49 148.436 126.926 148.436 38.267 0 74.695-16.571 92.925-48.505h1.815l3.654 41.999h81.98c-1.21-19.518-2.437-53.223-2.437-86.34V300.3h-92.312l.008.008zm0 274.164c0 7.086-.605 14.195-1.831 20.09-5.445 25.443-27.313 43.165-54.037 43.165-38.251 0-63.16-30.742-63.16-79.23 0-45.525 21.27-82.193 63.773-82.193 28.539 0 48.576 19.51 54.045 43.746 1.21 5.338 1.21 11.256 1.21 16.57V574.472z" fill="#869ab8"/><path d="M2115.686 702.292V424.978h-92.178v277.314h92.186-.008zm-46.073-315.17c32.139 0 52.147-21.295 52.147-47.907-.605-27.216-20.008-47.915-51.534-47.915-31.55 0-52.155 20.7-52.155 47.915 0 26.612 20 47.908 50.938 47.908h.604zm97.092 315.17h92.17V547.446c0-8.28.604-16.576 3.036-22.488 6.662-16.568 21.829-33.716 47.298-33.716 33.346 0 46.693 25.428 46.693 62.712v148.338h92.17V543.29c0-85.176-45.47-124.811-106.113-124.811-49.722 0-71.558 27.787-83.688 46.715h.612v-40.207h-92.17c1.2 26.015-.008 277.313-.008 277.313v-.008z" fill="#fff"/></g></svg>