<svg xmlns="http://www.w3.org/2000/svg" xmlns:xlink="http://www.w3.org/1999/xlink" viewBox="0 0 113 33" fill="#fff" fill-rule="evenodd" stroke="#000" stroke-linecap="round" stroke-linejoin="round"><use xlink:href="#A" x=".5" y=".5"/><symbol id="A" overflow="visible"><g stroke="none" fill-rule="nonzero"><path d="M102.476 11.162c-.27 0-.535.056-.768.188l-7.386 4.265c-.478.275-.768.796-.768 1.35v8.515c0 .553.29 1.072.768 1.348l1.93 1.112c.937.462 1.283.455 1.71.455 1.387 0 2.18-.842 2.18-2.305v-8.4c0-.12-.103-.204-.22-.204h-.925c-.12 0-.22.087-.22.204v8.405c0 .65-.676 1.3-1.772.753L95 25.672c-.07-.04-.126-.11-.126-.188v-8.515a.25.25 0 0 1 .126-.204l7.37-4.25c.07-.04.15-.04.22 0l7.37 4.25a.25.25 0 0 1 .126.204v8.515c0 .08-.04.165-.1.204l-7.386 4.25c-.065.038-.153.038-.22 0l-1.897-1.13c-.057-.033-.134-.03-.188 0-.524.297-.622.33-1.113.502-.12.042-.305.108.063.314l2.478 1.46c.236.136.5.204.768.204s.532-.065.768-.204l7.386-4.25a1.56 1.56 0 0 0 .768-1.348v-8.515c0-.553-.29-1.072-.768-1.35l-7.386-4.265a1.54 1.54 0 0 0-.768-.188zm1.976 6.085c-2.103 0-3.356.895-3.356 2.383 0 1.613 1.243 2.058 3.262 2.258 2.415.236 2.603.59 2.603 1.066 0 .824-.657 1.176-2.21 1.176-1.952 0-2.38-.487-2.525-1.46-.017-.104-.097-.188-.204-.188h-.96c-.12.003-.217.1-.22.22 0 1.243.676 2.713 3.905 2.713 2.337 0 3.685-.915 3.685-2.525 0-1.59-1.09-2.02-3.356-2.32-2.288-.305-2.51-.45-2.51-.988 0-.443.185-1.035 1.882-1.035 1.515 0 2.075.327 2.305 1.35.02.096.105.174.204.174h.96c.06 0 .116-.036.157-.078s.068-.096.063-.157c-.148-1.76-1.322-2.587-3.685-2.587z" fill="#83cd29"/><path d="M59.055 0a.47.47 0 0 0-.235.063c-.145.085-.234.24-.235.408v11.996c0 .118-.055.223-.157.282s-.228.06-.33 0l-1.96-1.13a.94.94 0 0 0-.941 0l-7.825 4.516c-.292.17-.47.493-.47.83v9.032a.94.94 0 0 0 .471.815l7.825 4.516a.93.93 0 0 0 .94 0l7.825-4.516a.94.94 0 0 0 .471-.815V3.48c0-.343-.187-.664-.486-.83L59.291.047c-.073-.04-.154-.048-.235-.047zM8.718 11.274c-.15.006-.29.032-.423.1L.47 15.9a.94.94 0 0 0-.47.815l.016 12.122c0 .17.087.325.235.408s.326.087.47 0l4.641-2.665c.294-.174.486-.48.486-.815v-5.66c0-.338.178-.647.47-.815l1.976-1.145c.143-.083.305-.126.47-.126s.328.042.47.126l1.975 1.144c.293.168.47.478.47.815v5.66c0 .337.196.643.486.815l4.642 2.666c.146.087.326.087.47 0a.48.48 0 0 0 .235-.408l.016-12.122c.002-.337-.178-.648-.47-.815l-7.825-4.516c-.132-.078-.273-.104-.423-.1h-.094zm70.315.1c-.165 0-.328.043-.47.126l-7.825 4.516a.94.94 0 0 0-.471.815v9.032a.94.94 0 0 0 .486.815l7.762 4.424a.94.94 0 0 0 .925.015l4.704-2.62c.15-.083.25-.238.25-.408s-.088-.323-.235-.408l-7.872-4.516c-.147-.084-.25-.254-.25-.423V19.93c0-.17.105-.323.25-.408l2.446-1.41a.47.47 0 0 1 .471 0l2.447 1.41a.47.47 0 0 1 .235.408v2.227a.47.47 0 0 0 .235.408c.147.085.324.085.47 0l4.688-2.728c.29-.17.47-.48.47-.815v-2.18a.94.94 0 0 0-.471-.815l-7.776-4.517c-.143-.083-.305-.126-.47-.126zm-23.397 6.743c.044 0 .087.01.126.03l2.68 1.552c.073.042.126.12.126.204v3.105c0 .084-.052.162-.126.204l-2.68 1.552c-.073.04-.162.04-.235 0l-2.68-1.552c-.073-.042-.126-.12-.126-.204v-3.105c0-.084.053-.16.126-.204l2.68-1.552c.037-.02.07-.03.1-.03z" fill="#404137"/><path d="M32.224 11.336a.94.94 0 0 0-.471.126l-7.825 4.5c-.292.17-.47.494-.47.83v9.032a.94.94 0 0 0 .47.815l7.825 4.516a.93.93 0 0 0 .94 0l7.825-4.516a.94.94 0 0 0 .471-.815v-9.032a.96.96 0 0 0-.47-.83l-7.825-4.5a.93.93 0 0 0-.471-.126zm46.793 8.06c-.03 0-.066 0-.094.015l-1.505.878c-.057.032-.093.09-.094.157v1.725c0 .065.038.124.094.157l1.505.862c.053.033.12.033.172 0l1.505-.862c.056-.032.094-.092.094-.157v-1.725c0-.065-.038-.124-.094-.157l-1.505-.878c-.028-.017-.047-.015-.078-.015z" fill="#83cd29"/></g></symbol><defs /></svg>