<svg xmlns="http://www.w3.org/2000/svg" xmlns:xlink="http://www.w3.org/1999/xlink" viewBox="0 0 93 49" fill="#fff" fill-rule="evenodd" stroke="#000" stroke-linecap="round" stroke-linejoin="round"><use xlink:href="#B" x=".5" y=".5"/><defs><radialGradient cx="30%" cy="18%" fx="30%" fy="18%" id="A" r="86%" spreadMethod="pad"><stop offset="0%" stop-color="#aeb2d5"/><stop offset=".3%" stop-color="#aeb2d5"/><stop offset=".75%" stop-color="#484c89"/></radialGradient></defs><symbol id="B" overflow="visible"><g stroke="none" fill-rule="nonzero"><path d="M0 23.653c0 13.063 20.41 23.653 45.587 23.653s45.587-10.59 45.587-23.653S70.763 0 45.587 0 0 10.59 0 23.653" fill="url(#A)"/><path d="M45.587 45.55c24.193 0 43.806-9.803 43.806-21.897S69.78 1.756 45.587 1.756 1.781 11.559 1.781 23.653 21.394 45.55 45.587 45.55" fill="#777bb3"/><path d="M24.768 26.368c1.989 0 3.474-.362 4.414-1.073.93-.706 1.572-1.929 1.908-3.635.314-1.595.194-2.708-.355-3.309-.562-.614-1.776-.925-3.61-.925h-3.179l-1.764 8.945h2.584zM14.369 37.386c-.148 0-.288-.065-.382-.178s-.132-.26-.104-.403l4.671-23.704c.045-.229.249-.395.486-.395h10.067c3.164 0 5.519.846 6.999 2.519 1.488 1.68 1.948 4.029 1.366 6.98-.237 1.202-.644 2.319-1.21 3.318s-1.316 1.927-2.226 2.753c-1.091 1.007-2.326 1.737-3.666 2.167-1.32.424-3.014.639-5.037.639h-4.076l-1.164 5.907c-.045.229-.249.395-.485.395h-5.237z" fill="#000"/><path d="M24.354 17.911h2.771c2.213 0 2.982.479 3.243.764.433.474.515 1.473.237 2.889-.313 1.586-.893 2.71-1.724 3.341-.851.646-2.235.974-4.112.974h-1.985l1.57-7.969zm4.754-5.692H19.041c-.474 0-.881.331-.971.79l-4.671 23.704c-.056.286.02.582.208.807s.468.355.763.355h5.235c.474 0 .881-.331.971-.79l1.086-5.512h3.669c2.075 0 3.821-.223 5.191-.663 1.408-.451 2.704-1.216 3.851-2.274.948-.861 1.731-1.827 2.322-2.872s1.017-2.211 1.264-3.464c.613-3.107.115-5.595-1.479-7.394-1.578-1.782-4.058-2.686-7.371-2.686m-7.524 14.637h3.184c2.11 0 3.683-.39 4.716-1.176s1.73-2.094 2.092-3.929c.346-1.762.189-3.005-.473-3.729s-1.988-1.086-3.977-1.086h-3.587l-1.955 9.921m7.524-13.661c3.028 0 5.238.784 6.626 2.352s1.807 3.756 1.253 6.566c-.228 1.157-.614 2.216-1.157 3.175s-1.253 1.837-2.131 2.632c-1.045.965-2.207 1.652-3.484 2.062s-2.905.615-4.884.615h-4.484l-1.242 6.302h-5.235l4.67-23.704h10.067"/><path d="M49.475 31.084c-.148 0-.288-.065-.382-.178s-.132-.26-.104-.403l2.066-10.49c.197-.997.148-1.713-.136-2.016-.174-.185-.697-.495-2.244-.495h-3.743l-2.598 13.185c-.045.229-.249.395-.486.395h-5.194c-.148 0-.288-.065-.382-.178s-.132-.26-.104-.403l4.671-23.704c.045-.229.249-.395.486-.395h5.194c.148 0 .288.065.382.178s.132.26.104.403l-1.127 5.721h4.027c3.068 0 5.148.533 6.36 1.631 1.237 1.12 1.62 2.911 1.145 5.321l-2.173 11.031c-.045.229-.249.395-.486.395h-5.276z" fill="#000"/><path d="M46.52 5.917h-5.194c-.474 0-.881.331-.971.79L35.684 30.41c-.056.286.02.582.208.807s.468.355.763.355h5.194c.474 0 .881-.331.971-.79l2.52-12.79h3.336c1.544 0 1.868.325 1.881.339.094.098.217.559.013 1.591l-2.066 10.49c-.056.286.02.582.208.807s.468.355.763.355h5.276c.474 0 .881-.331.971-.79l2.173-11.031c.51-2.589.074-4.532-1.296-5.773-1.307-1.184-3.497-1.76-6.694-1.76h-3.429l1.013-5.14c.056-.286-.02-.582-.208-.807s-.468-.355-.763-.355m0 .976l-1.242 6.302h4.627c2.911 0 4.919.501 6.025 1.502s1.434 2.625.995 4.869l-2.173 11.03h-5.276L51.54 20.11c.235-1.193.149-2.007-.26-2.441s-1.277-.651-2.606-.651h-4.15l-2.675 13.58h-5.194l4.671-23.704h5.194"/><path d="M65.628 26.368c1.989 0 3.474-.362 4.414-1.073.93-.706 1.572-1.929 1.908-3.635.314-1.595.194-2.708-.355-3.309-.562-.614-1.776-.925-3.61-.925h-3.179l-1.764 8.945h2.584zM55.231 37.386c-.148 0-.288-.065-.382-.178s-.132-.26-.104-.403l4.671-23.704c.045-.229.249-.395.486-.395h10.067c3.166 0 5.519.846 6.999 2.519 1.488 1.68 1.946 4.028 1.366 6.98-.237 1.202-.644 2.319-1.211 3.318s-1.316 1.927-2.226 2.753c-1.091 1.007-2.326 1.737-3.666 2.167-1.32.424-3.014.639-5.037.639h-4.078l-1.164 5.907c-.045.229-.249.395-.486.395H55.23z" fill="#000"/><path d="M65.215 17.911h2.771c2.213 0 2.982.479 3.243.764.434.474.515 1.473.237 2.889-.313 1.586-.893 2.71-1.724 3.341-.851.646-2.235.974-4.112.974h-1.984l1.57-7.969zm4.754-5.692H59.902c-.474 0-.881.331-.971.79L54.26 36.713c-.056.286.02.582.208.807s.468.355.763.355h5.235c.474 0 .881-.331.971-.79l1.086-5.512h3.669c2.075 0 3.821-.223 5.191-.663 1.408-.451 2.704-1.216 3.851-2.275.948-.862 1.729-1.826 2.321-2.871s1.017-2.211 1.264-3.464c.613-3.107.115-5.595-1.479-7.394-1.578-1.782-4.058-2.686-7.371-2.686m-7.524 14.637h3.184c2.111 0 3.683-.39 4.716-1.176s1.73-2.094 2.092-3.929c.347-1.762.189-3.005-.473-3.729s-1.989-1.086-3.977-1.086H64.4l-1.955 9.921m7.524-13.661c3.028 0 5.238.784 6.626 2.352s1.807 3.756 1.253 6.566c-.228 1.157-.614 2.216-1.157 3.175s-1.253 1.837-2.131 2.632c-1.045.965-2.207 1.652-3.484 2.062s-2.905.615-4.884.615h-4.484l-1.242 6.302h-5.235l4.671-23.704h10.067"/></g></symbol></svg>