<svg viewBox="0 0 2761 991" xmlns="http://www.w3.org/2000/svg"><path d="M705.019 399.95c27.127 0 53.153-22.584 57.68-50.446 5.35-27.119-13.037-49.703-40.144-49.703-27.115 0-53.145 22.584-57.74 49.703-5.29 27.862 12.342 50.446 40.204 50.446zm1840.855 80.607h60.682c8.316 0 13.186-3.377 15.059-11.137a2716.172 2716.172 0 018.961-35.996c1.796-6.984-2.271-12.278-10.015-12.278h-59.879c4.314-17.161 21.107-72.876 21.107-109.2 0-72.54-61.598-134.244-149-134.244-98.708 0-162.925 66.243-162.925 159.455 0 27.188 10.144 58.879 22.717 78.537-5.411-.309-10.83-.462-16.25-.46-75.002 0-122.244 40.685-122.244 99.887 0 55.562 43.8 77.153 85.038 91.522 36.63 12.766 70.362 18.706 70.362 47.322 0 19.295-18.56 30.618-54.884 30.618-43.098 0-66.783-20.296-72.803-27.995 4.083-3.208 10.156-10.846 10.156-23.573 0-17.802-12.505-32.332-35.73-32.332-19.65 0-36.263 16.027-40.435 37.11-31.561 25.82-66.008 42.553-114.864 42.553-48.105 0-73.074-25.021-73.074-78.263 11.278 3.434 40.645 7.558 60.053 7.558 81.455 0 136.968-37.01 136.968-111.124 0-39.854-34.987-81.709-104.204-81.709h-.157c-91.038 0-142.032 57.668-164.297 121.098a1300.764 1300.764 0 00-18.747-4.374c4.98-14.07 8.554-30.375 8.554-48.452 0-31.328-19.4-68.272-71.314-68.272-36.162 0-70.463 23.685-94.237 59.185 5.915-23.157 9.837-38.578 10.091-39.611 1.55-6.057-.972-12.803-10.418-12.803h-53.282c-7.594 0-12.953 2.683-15.112 11.33-1.448 5.766-19.755 77.597-37.577 147.54-11.226 43.61-69.298 97.897-142.287 97.897-48.113 0-73.061-26.667-73.061-79.93 12.589 5.012 40.64 9.22 60.04 9.22 84.768 0 136.968-37.008 136.968-111.123 0-39.854-34.983-81.709-104.207-81.709h-.15c-102.513 0-165.31 79.623-175.95 169.902-4.426 37.53-36.101 89.064-70.439 89.064-16.729 0-26.058-10.507-26.058-28.346 0-15.405 10.846-53.076 22.733-100.286 3.983-15.793 10.027-39.886 16.73-66.581h55.73c8.297 0 13.163-3.377 15.047-11.137 2.668-11.173 7.562-30.666 8.95-35.996 1.796-6.984-2.247-12.278-10.015-12.278h-54.803s25.23-100.674 25.832-103.26c2.429-10.237-6.137-16.144-15.1-14.26 0 0-42.359 8.292-50.215 9.93-7.896 1.598-14.025 5.936-16.878 17.319l-22.435 90.27h-44.005c-8.296 0-13.175 3.386-15.035 11.13a3732.041 3732.041 0 01-8.95 36.003c-1.82 6.985 2.244 12.279 10.003 12.279h43.155c-.307 1.235-15.587 59.363-27.947 111.418-5.818 25.033-25.303 83.61-57.212 83.61-19.061 0-27.115-9.616-27.115-30.239 0-32.477 31.97-113.779 31.97-150.67 0-49.28-26.438-77.832-80.6-77.832-34.14 0-69.54 22.044-84.541 41.391 0 0 4.551-15.837 6.109-21.926 1.662-6.432-1.788-12.75-10.233-12.75H837.25c-11.27 0-14.385 6.024-16.04 12.65-.661 2.658-19.743 77.588-38.062 149.52-12.528 49.255-42.972 90.412-75.523 90.412-16.737 0-24.19-10.503-24.19-28.341 0-15.414 9.959-53.448 21.842-100.653 14.457-57.471 27.212-104.797 28.576-110.325 1.78-7.086-1.388-13.26-10.52-13.26H670.06c-9.652 0-13.098 5.065-15.132 12.102 0 0-14.994 56.76-30.871 119.948-11.532 45.858-24.267 92.567-24.267 114.513 0 39.164 17.585 68.684 65.928 68.684 37.312 0 66.84-18.92 89.387-43.03-3.312 13.05-5.427 21.31-5.64 22.153-1.946 7.46.41 14.054 9.2 14.054h54.516c9.49 0 13.138-3.817 15.12-12.093 1.908-7.897 42.625-168.05 42.625-168.05 10.761-43.02 37.38-71.508 74.829-71.508 17.758 0 33.127 11.758 31.348 34.608-1.977 25.138-32.292 115.446-32.292 155.081 0 30 11.124 68.813 67.598 68.813 38.494 0 66.832-18.456 87.438-42.275 7.546 25.28 27.535 42.275 64.201 42.275 60.937 0 97.667-36.141 119.247-72.444 17.907 42.178 59.847 72.424 121.348 72.424 62.684 0 111.193-26.425 145.57-62.349l-10.72 42.053c-1.95 7.574 1.347 13.53 10.24 13.53h53.957c7.388 0 12.645-3.757 14.562-11.517.948-3.809 8.744-33.938 19.755-76.75 21.059-81.922 54.904-166.915 105.762-166.915 17.935 0 25.29 10.027 25.29 25.824 0 7.449-2.162 13.884-4.03 17.334-24.65-4.898-44.482 7.271-44.482 33.592 0 17.148 18.045 32.736 42.4 32.736 18.61 0 33.995-4.564 46.265-12.824a1729.855 1729.855 0 0136.15 7.86 237.795 237.795 0 00-2.829 35.904c0 65.754 46.951 121.518 131.11 121.518 65.947 0 111.204-24.125 150.27-55.054 18.78 30.727 66.195 55.558 128.402 55.558 85.26 0 133.615-44.332 133.615-102.932 0-53.04-43.541-72.562-88.443-88.815-36.5-13.186-66.944-20.356-66.944-46.152 0-21.144 16.644-30.815 45.171-30.815 18.509 0 32.405 3.986 39.826 6.068 7.36 18.42 22.588 38.817 48.585 38.817 21.999 0 31.877-17.399 31.877-33.422 0-45.612-75.98-50.393-75.98-148.214 0-60.827 34.42-111.006 105.702-111.006 49.53 0 81.874 31.408 81.874 82.1 0 41.794-25.348 116.196-25.348 116.196h-43.086c-8.28 0-13.166 3.385-15.038 11.128a3072.974 3072.974 0 01-8.966 36.004c-1.812 6.985 2.251 12.279 10.015 12.279h42.069s-43.49 160.391-43.49 189.56c0 39.164 22.072 68.676 70.435 68.676 68.406 0 111.152-44.454 129.738-109.095 1.444-4.999-1.388-9.07-6.452-9.07h-26.099c-5.209 0-8.231 2.97-9.546 8.062-5.896 22.947-20.506 47.088-49.276 47.088-16.729 0-26.054-10.507-26.054-28.342 0-15.41 10.2-51.486 22.75-100.285 5.98-23.238 16.624-66.59 16.624-66.59zm-539.375-2.74c24.19 0 35.682 16.092 35.682 35.27 0 32.437-25.158 52.217-64.508 52.217-14.082 0-33.769-3.337-45.393-7.21 4.886-29.831 26.477-80.277 74.22-80.277zm-569.035 0c26.477 0 35.67 16.092 35.67 35.27 0 32.437-25.147 52.217-64.492 52.217-14.086 0-33.773-3.337-45.394-7.21 4.858-29.831 24.004-80.277 74.216-80.277zM390.64 177C218.03 177 131 300.753 131 403.952c0 62.486 23.657 118.077 74.397 138.788 8.32 3.406 15.773.117 18.186-9.095 1.679-6.375 5.649-22.454 7.42-29.156 2.438-9.112 1.49-12.307-5.225-20.248-14.63-17.258-23.98-39.6-23.98-71.246 0-91.812 68.692-174.005 178.872-174.005 97.566 0 151.163 59.613 151.163 139.227 0 104.753-46.354 193.164-115.18 193.164-38.005 0-66.456-31.433-57.337-69.983 10.919-46.023 32.07-95.694 32.07-128.914 0-29.738-15.962-54.542-48.996-54.542-38.853 0-70.064 40.193-70.064 94.036 0 34.294 11.588 57.487 11.588 57.487s-39.76 168.465-46.729 197.969c-13.88 58.757-2.09 130.786-1.093 138.061.589 4.31 6.129 5.335 8.638 2.082 3.584-4.676 49.853-61.804 65.59-118.89 4.45-16.165 25.553-99.859 25.553-99.859 12.621 24.077 49.513 45.285 88.746 45.285 116.785 0 196.024-106.472 196.024-248.988C620.643 277.363 529.367 177 390.64 177z" fill="#869ab8" fill-rule="nonzero"/></svg>