<svg xmlns="http://www.w3.org/2000/svg" xmlns:xlink="http://www.w3.org/1999/xlink" viewBox="0 0 114 34" fill="#fff" fill-rule="evenodd" stroke="#000" stroke-linecap="round" stroke-linejoin="round"><use xlink:href="#D" x=".5" y=".5"/><defs><linearGradient id="A" x1="0.01%" y1="-0.00%" x2="74.52%" y2="64.13%"><stop offset="0%" stop-color="#5a9fd4"/><stop offset="100%" stop-color="#306998"/></linearGradient><linearGradient id="B" x1="49.98%" y1="82.27%" x2="23.43%" y2="44.91%"><stop offset="0%" stop-color="#ffd43b"/><stop offset="100%" stop-color="#ffe873"/></linearGradient><radialGradient id="C" cx="50%" cy="50%" fx="50%" fy="50%" r="71%"><stop offset="0%" stop-color="#b8b8b8" stop-opacity=".498"/><stop offset="100%" stop-color="#7f7f7f" stop-opacity="0"/></radialGradient></defs><symbol id="D" overflow="visible"><g stroke="none" fill-rule="nonzero"><path d="M42.288 13.857c0-3.44-.981-5.205-2.942-5.302a5.49 5.49 0 0 0-2.284.375c-.592.211-.987.421-1.2.633v8.21c1.255.787 2.369 1.156 3.341 1.096 2.058-.136 3.085-1.805 3.085-5.012zm2.42.143c0 1.747-.41 3.198-1.234 4.351-.919 1.306-2.192 1.978-3.82 2.015-1.227.04-2.491-.345-3.792-1.151v7.462l-2.104-.751V9.364c.345-.423.789-.787 1.325-1.096 1.252-.73 2.774-1.105 4.568-1.124l.03.03c1.637-.021 2.899.648 3.785 2.014.826 1.25 1.241 2.853 1.241 4.812zm12.858 4.897c0 2.344-.235 3.967-.705 4.87s-1.37 1.623-2.696 2.16c-1.075.423-2.238.654-3.486.693l-.348-1.326c1.269-.172 2.162-.345 2.68-.518 1.02-.345 1.72-.875 2.104-1.584.308-.578.46-1.68.46-3.313v-.548a10.81 10.81 0 0 1-4.524.978c-1.036 0-1.95-.324-2.737-.978-.884-.711-1.326-1.614-1.326-2.707V7.865l2.104-.721v8.815c0 .942.304 1.667.912 2.176s1.395.753 2.36.735 1.998-.394 3.096-1.124V7.462h2.104v11.435zm8.217 1.354l-.693.03c-1.19 0-2.118-.283-2.781-.852s-.993-1.353-.993-2.355V8.783h-1.438V7.459h1.438V3.946l2.102-.748v4.264h2.364v1.324h-2.364v8.233c0 .79.211 1.349.635 1.676.367.269.942.424 1.729.462v1.096zm12.741-.173h-2.104v-8.122c0-.826-.194-1.538-.578-2.132a2.1 2.1 0 0 0-1.853-1.008c-.964 0-2.171.509-3.619 1.526v9.736h-2.104V.663L70.369 0v8.843c1.344-.978 2.814-1.466 4.409-1.466 1.114 0 2.017.375 2.707 1.124s1.038 1.681 1.038 2.795v8.786zm11.184-6.552c0-1.322-.254-2.413-.751-3.276-.594-1.052-1.517-1.607-2.765-1.665-2.306.134-3.458 1.787-3.458 4.954 0 1.453.24 2.666.723 3.637.617 1.241 1.542 1.853 2.776 1.833 2.316-.018 3.474-1.846 3.474-5.486zm2.305.014c0 1.881-.481 3.446-1.438 4.697-1.057 1.4-2.516 2.102-4.379 2.102-1.846 0-3.285-.705-4.324-2.102-.942-1.25-1.411-2.816-1.411-4.697 0-1.768.509-3.256 1.526-4.466 1.075-1.285 2.489-1.929 4.236-1.929s3.17.644 4.266 1.929c1.015 1.211 1.526 2.698 1.526 4.466zm12.064 6.538h-2.104v-8.583c0-.942-.283-1.676-.85-2.206s-1.322-.783-2.263-.762c-.999.018-1.95.345-2.853.978v10.572h-2.104V9.246c1.211-.882 2.325-1.458 3.343-1.727.96-.254 1.805-.375 2.537-.375.5 0 .969.048 1.411.145.826.191 1.499.546 2.017 1.066a2.82 2.82 0 0 1 .866 2.074v9.649z" fill="#646464"/><path d="M12.974.741C11.892.747 10.858.839 9.948 1c-2.68.474-3.166 1.465-3.166 3.292v2.414h6.333v.805H4.402C2.561 7.51.949 8.616.446 10.721c-.581 2.412-.607 3.918 0 6.436.45 1.875 1.523 3.211 3.366 3.211h2.178v-2.893c0-2.09 1.808-3.934 3.956-3.934h6.326c1.761 0 3.166-1.45 3.166-3.218V4.291c0-1.716-1.448-3.006-3.166-3.292-1.088-.181-2.217-.263-3.299-.258zM9.547 2.682c.654 0 1.188.543 1.188 1.21s-.534 1.203-1.188 1.203-1.188-.538-1.188-1.203a1.2 1.2 0 0 1 1.188-1.21z" fill="url(#A)"/><path d="M20.233 7.51v2.812c0 2.18-1.848 4.015-3.956 4.015H9.951c-1.733 0-3.166 1.483-3.166 3.218v6.031c0 1.716 1.492 2.726 3.166 3.218 2.002.592 3.927.696 6.326 0 1.595-.462 3.166-1.391 3.166-3.218v-2.414h-6.326v-.804h9.492c1.841 0 2.526-1.284 3.166-3.211.661-1.984.633-3.892 0-6.436-.455-1.832-1.323-3.211-3.166-3.211h-2.377zm-3.558 15.272c.656 0 1.189.538 1.189 1.203a1.2 1.2 0 0 1-1.189 1.21c-.654 0-1.188-.543-1.188-1.21s.534-1.203 1.188-1.203z" fill="url(#B)"/><path d="M108.173 5.585h.369V3.272h.874v-.276h-2.117v.276h.874v2.314m1.57 0h.315V3.472l.684 2.113h.351l.713-2.104v2.106h.344v-2.59h-.455l-.779 2.219-.664-2.219h-.509v2.587" fill="#646464"/><path d="M21.674 30.904c0 .909-3.8 1.646-8.487 1.646S4.7 31.813 4.7 30.904s3.8-1.646 8.487-1.646 8.487.737 8.487 1.646z" fill="url(#C)" opacity=".444"/></g></symbol></svg>