<svg viewBox="0 0 2761 991" xmlns="http://www.w3.org/2000/svg"><path d="M666.751 420.38c0-17.962 14.764-24.873 39.222-24.873 35.063 0 79.355 10.597 114.42 29.482V316.742c-38.293-15.2-76.126-21.188-114.42-21.188-93.665 0-155.952 48.827-155.952 130.358 0 127.126 175.326 106.861 175.326 161.676 0 21.185-18.453 28.096-44.292 28.096-38.294 0-87.203-15.662-125.96-36.85V688.46c42.91 18.425 86.28 26.253 125.96 26.253 95.968 0 161.947-47.44 161.947-129.892-.46-137.263-176.25-112.852-176.25-164.442zM978.65 203.432l-112.579 23.95-.46 368.954c0 68.175 51.215 118.378 119.5 118.378 37.834 0 65.516-6.908 80.741-15.2V606.01c-14.76 5.988-87.663 27.176-87.663-40.996V401.495h87.663v-98.11H978.19l.46-99.953zm230.697 134.037l-7.384-34.084h-99.66v403.038h115.349V433.28c27.218-35.467 73.36-29.019 87.663-23.954v-105.94c-14.764-5.53-68.747-15.663-95.968 34.083zm124.111-34.084h115.81v403.038h-115.81V303.385zm0-35.007l115.81-24.873V150l-115.81 24.413v93.965zm356.654 27.176c-45.217 0-74.284 21.188-90.43 35.93l-6.002-28.559h-101.502V840l115.345-24.41.464-130.355c16.61 11.977 41.061 29.019 81.665 29.019 82.589 0 157.795-66.329 157.795-212.343-.461-133.58-76.591-206.357-157.335-206.357zm-27.682 317.364c-27.222 0-43.374-9.67-54.443-21.647l-.464-170.89c11.997-13.357 28.607-22.568 54.907-22.568 41.986 0 71.053 46.98 71.053 107.32 0 61.724-28.607 107.785-71.053 107.785zm548.59-106.401c0-117.918-57.213-210.963-166.56-210.963-109.814 0-176.254 93.048-176.254 210.043 0 138.643 78.44 208.657 191.015 208.657 54.907 0 96.432-12.437 127.806-29.939V592.19c-31.37 15.663-67.361 25.337-113.039 25.337-44.756 0-84.435-15.663-89.509-70.015h225.62c0-5.991.922-29.941.922-40.995zm-227.926-43.758c0-52.05 31.838-73.7 60.905-73.7 28.143 0 58.135 21.65 58.135 73.7h-119.04z" fill="currentColor" fill-rule="nonzero"/></svg>